<svg xmlns="http://www.w3.org/2000/svg" width="22.617" height="22.639" viewBox="0 0 22.617 22.639">
  <g id="Group_54949" data-name="Group 54949" transform="translate(-113.639 -794.127)">
    <path id="Path_55011" data-name="Path 55011" d="M1697.774,3590.568v-.251c0-.53,0-1.059,0-1.589a.949.949,0,0,1,.956-.969c.324,0,.648.009.971,0a.932.932,0,0,1,.946.905c.017.521.026,1.042.037,1.564a1.34,1.34,0,0,1-.015.175c-.018.158,0,.179.159.181.324,0,.648-.006.971.005a2.551,2.551,0,0,1,1.316.44,2.835,2.835,0,0,1,1.042,1.2,2.484,2.484,0,0,1,.247,1.061q0,4.767,0,9.533,0,2.428,0,4.855a2.6,2.6,0,0,1-.392,1.333,2.848,2.848,0,0,1-1.3,1.148,2.14,2.14,0,0,1-.914.219c-.633,0-1.265,0-1.9,0-.065,0-.13-.008-.189-.012a10.537,10.537,0,0,1-.009-1.883c.052-.006.108-.016.165-.018.125,0,.25,0,.375,0,.5-.011,1-.036,1.5-.031a.944.944,0,0,0,.7-.618,2.361,2.361,0,0,0,.044-.437q0-5.186,0-10.371c0-.19,0-.379,0-.568,0-.089-.04-.141-.132-.139-.168,0-.336.013-.5.02-.081,0-.161.012-.242.012h-17.874v.319q0,5.2,0,10.394a3.653,3.653,0,0,0-.005.679.889.889,0,0,0,.714.7,11.213,11.213,0,0,0,1.8.014,1.368,1.368,0,0,1,.262.037,11.917,11.917,0,0,1,.033,1.888c-.1.005-.162.011-.227.011-.618,0-1.236,0-1.854,0a2.372,2.372,0,0,1-1.158-.3,2.834,2.834,0,0,1-1.27-1.331,2.548,2.548,0,0,1-.249-1.061q0-5.594,0-11.188c0-1.074,0-2.148,0-3.222a2.573,2.573,0,0,1,.666-1.7,2.786,2.786,0,0,1,1-.749,2.377,2.377,0,0,1,.976-.232c.287,0,.574,0,.861,0h.22a.434.434,0,0,0,.029-.1c0-.412.025-.826-.007-1.235a2.94,2.94,0,0,1,.053-.807.883.883,0,0,1,.777-.676c.426-.017.853-.006,1.28,0a.455.455,0,0,1,.2.065,1.03,1.03,0,0,1,.526.6,1.115,1.115,0,0,1,.045.3c0,.53,0,1.059,0,1.589,0,.079.007.158.011.25Z" transform="translate(-1568.148 -2793.629)" fill="#ff8027"/>
    <g id="Group_52900" data-name="Group 52900" transform="translate(116.162 804.602)">
      <g id="Group_52867" data-name="Group 52867" transform="translate(0 0)">
        <path id="Path_55123" data-name="Path 55123" d="M1236.871,613.943l-2.146-2.207c-.084.035-.136.041-.165.07-.809.826-1.614,1.656-2.425,2.48-.218.222-.461.42-.679.642a5.721,5.721,0,0,0-.651.732.993.993,0,0,0-.111.531c-.008,1.517,0,3.033,0,4.55,0,.183,0,.367,0,.589h-1.212c-.014-.172-.038-.337-.039-.5,0-1.016,0-2.033,0-3.049,0-.779-.009-1.558-.041-2.336a.722.722,0,0,1,.222-.586c.253-.254.5-.51.762-.774a2.457,2.457,0,0,0-.72-.8,2.8,2.8,0,0,0-.411.286c-.584.582-1.151,1.181-1.739,1.76a.964.964,0,0,0-.311.747c.01,1.141,0,2.283,0,3.424,0,.125,0,.25,0,.375a.243.243,0,0,1-.268.258l-.047,0c-1.2,0-.989.1-1-.9-.011-1.251.006-2.5-.009-3.752a1.022,1.022,0,0,1,.36-.817c.612-.579,1.2-1.185,1.794-1.781.517-.519,1.032-1.04,1.586-1.6a3.877,3.877,0,0,1,.407.312c.342.343.668.7,1.01,1.045s.442.347.8-.015q1.146-1.142,2.289-2.288c.153-.153.312-.3.469-.451.457.158.637.578.952.844l.02.019,2.347,2.287c.283-.3.566-.608.859-.907s.566-.559.881-.869c.344.34.642.63.935.925q1,1.014,2.005,2.032c.241.244.492.481.72.737a.549.549,0,0,1,.129.333c.007,1.532,0,3.065,0,4.6a1.351,1.351,0,0,1-.061.245c-.334,0-.673.016-1.009-.011-.086-.007-.2-.131-.232-.225a1.091,1.091,0,0,1-.017-.371c0-1.157-.008-2.314,0-3.471a1.016,1.016,0,0,0-.328-.79c-.692-.677-1.37-1.368-2.065-2.065a3.379,3.379,0,0,0-.877.8c.263.264.507.522.766.764a.785.785,0,0,1,.267.619c-.007,1.861,0,3.722-.006,5.583a3.323,3.323,0,0,1-.042.358h-1.162c-.013-.188-.036-.369-.037-.549,0-1.517-.011-3.034,0-4.55a1.173,1.173,0,0,0-.393-.954c-.473-.432-.923-.887-1.383-1.333Z" transform="translate(-1225.874 -609.895)" fill="#ff8027"/>
        <path id="Path_55134" data-name="Path 55134" d="M1306.031,686.9a2.487,2.487,0,0,1,.053.358c0,.734.007,1.469,0,2.2,0,.383-.059.443-.432.447q-1.1.013-2.2,0c-.387,0-.445-.058-.449-.429q-.014-1.1,0-2.2c0-.336.041-.372.388-.375C1304.244,686.894,1305.1,686.9,1306.031,686.9Zm-1.571.516h-.862v.853h.862Zm1.044,1.057a1.4,1.4,0,0,0-.864.01v.816h.864Zm-.87-1.058v.854h.845v-.854Zm-1.041,1.9h.858v-.85h-.858Z" transform="translate(-1295.754 -682.831)" fill="#ff8027"/>
        <path id="Path_55145" data-name="Path 55145" d="M1328.907,618.744l.034-.015-.014.034Z" transform="translate(-1319.235 -617.9)"/>
        <path id="Path_55146" data-name="Path 55146" d="M1342.8,652.978l-.019.022.022-.019Z" transform="translate(-1331.812 -648.933)"/>
      </g>
      <path id="Path_55242" data-name="Path 55242" d="M-18749.262-1017.6h1.984" transform="translate(18757.039 1023.126)" fill="none" stroke="#ff8027" stroke-width="2"/>
    </g>
    <path id="Path_55244" data-name="Path 55244" d="M-11385.49,4720.392h-.585v.536h.585v-.687" transform="translate(11511.372 -3911.13)" fill="#fff"/>
    <path id="Path_55245" data-name="Path 55245" d="M-11385.485,4724.55v.605h-.627v-.605Z" transform="translate(11511.396 -3914.084)" fill="#fff"/>
    <path id="Path_55246" data-name="Path 55246" d="M-11389.321,4724.55v.623h-.613v-.623Z" transform="translate(11513.934 -3914.084)" fill="#fff"/>
    <path id="Path_55247" data-name="Path 55247" d="M-11389.328,4720.737v.614h-.619v-.614Z" transform="translate(11513.941 -3911.554)" fill="#fff"/>
    <path id="Path_55248" data-name="Path 55248" d="M-11395.659,4659.435h17.827" transform="translate(11511.822 -3843.67)" fill="none" stroke="#ff8027" stroke-width="2"/>
    <path id="Path_55249" data-name="Path 55249" d="M-11041.14,4422.738v-4.651l-1.406-1.79-1.967-1.354-1.1,1.354.971,2.531.129,3.91Z" transform="translate(11174.252 -3607.656)" fill="#ff8027"/>
    <path id="Path_55250" data-name="Path 55250" d="M-11054.415,4419.205v3.885l-.639.435-3.145-.435.359-5.751,2.989-2.53,1.177,1.482-.256,1.048Z" transform="translate(11174.85 -3607.65)" fill="#ff8027"/>
    <path id="Subtraction_14" data-name="Subtraction 14" d="M2.381,3.335H0V0H2.381V3.334ZM1.189,1.406a.262.262,0,1,0,.262.262A.262.262,0,0,0,1.189,1.406Z" transform="translate(129.938 811.865)" fill="#fff"/>
    <path id="Subtraction_16" data-name="Subtraction 16" d="M2.382,3.333H0V0H2.382V3.332ZM1.14,1.361a.278.278,0,1,0,0,.555h.04a.278.278,0,0,0,0-.555Z" transform="translate(123.793 812.103)" fill="#ff8027"/>
    <path id="Subtraction_15" data-name="Subtraction 15" d="M2.381,3.335H0V0H2.381V3.334ZM1.189,1.406a.262.262,0,1,0,.262.262A.262.262,0,0,0,1.189,1.406Z" transform="translate(117.937 811.865)" fill="#fff"/>
  </g>
</svg>
