<svg xmlns="http://www.w3.org/2000/svg" width="29.634" height="24.73" viewBox="0 0 29.634 24.73">
  <g id="Group_54912" data-name="Group 54912" transform="translate(-166.268 525.819)">
    <path id="Path_54896" data-name="Path 54896" d="M206.17-497.86a8.971,8.971,0,0,1-3.8,2.96c-.67.274-1.395.413-2.087.637a1.01,1.01,0,0,0-.528.321,5.679,5.679,0,0,1-4.035,2.493,13.672,13.672,0,0,1-2.078.135c-.166,0-.335-.158-.5-.244.11-.147.188-.353.335-.431a4.488,4.488,0,0,0,2.038-2.626c-.174-.082-.319-.157-.468-.219a9.492,9.492,0,0,1-5.832-9.546,9.5,9.5,0,0,1,7.842-8.543,9.468,9.468,0,0,1,11,8.4,9.2,9.2,0,0,1-1.042,5.315,1.017,1.017,0,0,1-.549.452,24.907,24.907,0,0,1-5.5,1,1.87,1.87,0,0,1-.632-.191,2.882,2.882,0,0,0-.7-.227c-.661-.031-1.324-.02-1.986-.008a.86.86,0,0,0-.959.883.873.873,0,0,0,.949.85,19.05,19.05,0,0,0,1.985-.016,2.551,2.551,0,0,0,.836-.381c.126-.065.23-.213.357-.232C202.586-497.343,204.361-497.6,206.17-497.86Zm-6.726-5.708a.8.8,0,0,0-.8-.811.8.8,0,0,0-.8.8.825.825,0,0,0,.771.8A.828.828,0,0,0,199.444-503.568Zm3.408-.042a.785.785,0,0,0-.829-.768.777.777,0,0,0-.747.8.788.788,0,0,0,.8.8A.8.8,0,0,0,202.852-503.61Zm-7.605.829a.8.8,0,0,0,.765-.84.782.782,0,0,0-.836-.758.8.8,0,0,0-.74.807A.8.8,0,0,0,195.247-502.781Z" transform="translate(-17.552 -9.774)" fill="#ff8027"/>
    <path id="Path_54897" data-name="Path 54897" d="M190.671-507.588a11.19,11.19,0,0,0-2.5-14.224,11.144,11.144,0,0,0-13.663-.393,11.2,11.2,0,0,0-3.06,14.542c-.015.029-.025.076-.048.085a6.476,6.476,0,0,1-3.138.4,1.762,1.762,0,0,1-1.418-1.716c-.151-1.162-.286-2.325-.426-3.488-.051-.421-.108-.843-.143-1.265a1.773,1.773,0,0,1,1.63-2.021c.681-.048.913-.321,1.088-.958a12.509,12.509,0,0,1,12.215-9.2,12.514,12.514,0,0,1,12.055,9.471.721.721,0,0,0,.736.643,1.852,1.852,0,0,1,1.877,2.342q-.247,2.253-.548,4.5a1.85,1.85,0,0,1-2.245,1.73c-.54-.059-1.081-.118-1.616-.207A6.084,6.084,0,0,1,190.671-507.588Z" transform="translate(0)" fill="#ff8027"/>
  </g>
</svg>
