<svg xmlns="http://www.w3.org/2000/svg" width="23.524" height="25.161" viewBox="0 0 23.524 25.161">
  <g id="Group_54913" data-name="Group 54913" transform="translate(0 303.851)">
    <path id="Path_54888" data-name="Path 54888" d="M10.141-303.851h3.243a2.424,2.424,0,0,1,1.559,2.671,7.478,7.478,0,0,0,0,.894,2.049,2.049,0,0,0,3.09,1.757c.408-.223.805-.467,1.209-.7a2.007,2.007,0,0,1,2.9.69c.361.564.688,1.15,1.025,1.73a2.02,2.02,0,0,1-.71,2.94c-.408.26-.842.48-1.248.742a2.115,2.115,0,0,0-.011,3.6c.327.213.673.4,1.009.6a2.4,2.4,0,0,1,.921,3.368c-.3.538-.614,1.064-.934,1.589a2.065,2.065,0,0,1-2.942.768c-.44-.243-.862-.519-1.308-.75a2.045,2.045,0,0,0-2.992,1.681c-.025.371-.012.745-.013,1.118a2.233,2.233,0,0,1-1.668,2.465H10.253a2.233,2.233,0,0,1-1.668-2.462c0-.391.01-.783-.011-1.173a2.047,2.047,0,0,0-2.994-1.739c-.451.221-.9.449-1.344.68a2.033,2.033,0,0,1-2.914-.815c-.331-.538-.644-1.088-.961-1.635a2.021,2.021,0,0,1,.744-2.967c.427-.265.875-.494,1.3-.768a2.027,2.027,0,0,0-.026-3.421c-.361-.229-.739-.431-1.106-.65a2.289,2.289,0,0,1-.88-3.223q.462-.828.961-1.635a2.049,2.049,0,0,1,2.8-.8c.5.245.99.515,1.5.751a2.049,2.049,0,0,0,2.923-1.743,6.3,6.3,0,0,0,.008-.893A2.42,2.42,0,0,1,10.141-303.851Zm1.626,16.745a4.179,4.179,0,0,0,4.16-4.155,4.179,4.179,0,0,0-4.141-4.174A4.178,4.178,0,0,0,7.6-291.252,4.179,4.179,0,0,0,11.767-287.106Z" transform="translate(0)" fill="#ff8027"/>
  </g>
</svg>
