<svg xmlns="http://www.w3.org/2000/svg" width="31.521" height="27.581" viewBox="0 0 31.521 27.581">
  <path id="Icon_awesome-headphones-alt" data-name="Icon awesome-headphones-alt" d="M9.85,18.01H8.865a3.943,3.943,0,0,0-3.94,3.947v3.925a3.944,3.944,0,0,0,3.94,3.947H9.85a1.972,1.972,0,0,0,1.97-1.974V19.984A1.972,1.972,0,0,0,9.85,18.01Zm12.805,0H21.67a1.972,1.972,0,0,0-1.97,1.974v7.873a1.972,1.972,0,0,0,1.97,1.974h.985a3.944,3.944,0,0,0,3.94-3.947V21.958A3.944,3.944,0,0,0,22.655,18.01ZM15.76,2.25C6.951,2.25.281,9.584,0,18.01v6.9a.985.985,0,0,0,.985.985H1.97a.985.985,0,0,0,.985-.985v-6.9a12.805,12.805,0,0,1,25.611,0v6.9a.985.985,0,0,0,.985.985h.985a.985.985,0,0,0,.985-.985v-6.9C31.239,9.584,24.569,2.25,15.76,2.25Z" transform="translate(0 -2.25)" fill="#fff"/>
</svg>
