<svg xmlns="http://www.w3.org/2000/svg" width="23.945" height="24.655" viewBox="0 0 23.945 24.655">
  <g id="Group_55026" data-name="Group 55026" transform="translate(3498.528 -1247.861)">
    <path id="Path_54582" data-name="Path 54582" d="M860.307,449.39a3.261,3.261,0,0,1-6.4,0h-.549c-.868,0-1.737,0-2.605,0a.848.848,0,0,1-.839-.723.872.872,0,0,1,.574-.954,3.184,3.184,0,0,0,2.044-1.9,8.348,8.348,0,0,0,.6-2.228,21.386,21.386,0,0,0,.2-3.213c0-.889-.01-1.779.005-2.667a8.043,8.043,0,0,1,2.18-5.471,7.811,7.811,0,0,1,2.959-1.974.286.286,0,0,0,.191-.219,3.113,3.113,0,0,1,2.51-2.369,3.191,3.191,0,0,1,3.7,2.364c.02.083.025.163.136.206a7.85,7.85,0,0,1,4.707,4.889,9.09,9.09,0,0,1,.469,1.955,7.058,7.058,0,0,1,.02.856c0,1.128-.015,2.256.011,3.383a14,14,0,0,0,.5,3.78,4.5,4.5,0,0,0,.972,1.817A2.806,2.806,0,0,0,873,447.7a.834.834,0,0,1,.617.64.852.852,0,0,1-.81,1.052c-.625.006-1.25,0-1.875,0H860.307Zm-5.465-5.5h13.829c-.059-.8-.143-1.586-.168-2.373-.031-.973-.014-1.948-.015-2.922a11.488,11.488,0,0,0-.091-1.979,5.941,5.941,0,0,0-2.626-4.049,7.329,7.329,0,0,0-7.411-.354,5.988,5.988,0,0,0-3.3,5.345c-.039,1.079.009,2.16-.01,3.24-.014.777-.072,1.553-.119,2.329C854.914,443.374,854.873,443.624,854.842,443.886Zm-1.389,3.777h16.636c-.025-.039-.04-.066-.057-.09a6.3,6.3,0,0,1-.874-1.771.21.21,0,0,0-.245-.173c-.868.007-1.737,0-2.6,0h-3.542l-4.178,0c-1.324,0-2.647,0-3.971,0a.2.2,0,0,0-.232.172,6.444,6.444,0,0,1-.692,1.493C853.617,447.414,853.538,447.531,853.453,447.663Zm5.009,1.734h-2.711a1.422,1.422,0,0,0,1.251.881A1.461,1.461,0,0,0,858.462,449.4Zm4.206-19.736a1.4,1.4,0,0,0-1.789,0Z" transform="translate(-4348.325 820.402)" fill="#ff8027" stroke="#fff" stroke-width="0.2"/>
    <path id="Path_54881" data-name="Path 54881" d="M268.362,767.53l1.821,3.356-20.707.214,2-1.535,1.071-1.571v-.464Z" transform="translate(-3747 498)" fill="#ff8027"/>
    <path id="Path_54880" data-name="Path 54880" d="M267.891,766.859l-15.459.393.428-4.427.5-4.963,1.749-3.177,2.856-1.214,5.57-.25L267,756.47l.893,3.392v7Z" transform="translate(-3747 498)" fill="#ff8027"/>
  </g>
</svg>
