<svg xmlns="http://www.w3.org/2000/svg" width="23.521" height="21.369" viewBox="0 0 23.521 21.369">
  <g id="Group_54920" data-name="Group 54920" transform="translate(-107.866 -232.54)">
    <path id="Path_54858" data-name="Path 54858" d="M127.994,248.2c-.268-.2-.5-.37-.724-.545q-2.635-2.035-5.269-4.072a3.931,3.931,0,0,0-2.629-.972,4.108,4.108,0,0,0-2.333.946q-2.815,2.155-5.62,4.323c-.056.043-.116.081-.2.137-.686-1.785-.433-3.64-.509-5.489-.153-.009-.283-.022-.413-.024-.463,0-.925,0-1.388-.006a.96.96,0,0,1-1-.618.988.988,0,0,1,.416-1.107c.58-.459,1.171-.9,1.757-1.357q3.783-2.919,7.567-5.838c.317-.244.633-.493.969-.711a1.791,1.791,0,0,1,2.182.091q3.908,3.01,7.814,6.023,1.16.894,2.321,1.785a1.068,1.068,0,0,1,.449.869.776.776,0,0,1-.8.86c-.534.017-1.069.007-1.6.008-.444,0-.444,0-.443.428,0,.761.016,1.522,0,2.283A9.249,9.249,0,0,1,127.994,248.2Z" transform="translate(0 0)" fill="#ff8027"/>
    <path id="Path_54859" data-name="Path 54859" d="M175.043,433.517c.278-.222.507-.41.741-.59q2.653-2.038,5.308-4.072a2.069,2.069,0,0,1,2.82-.04c2.06,1.57,4.1,3.16,6.154,4.742l.113.088a8.958,8.958,0,0,1-6.835,3.9A9.073,9.073,0,0,1,175.043,433.517Z" transform="translate(-63.031 -183.659)" fill="#ff8027"/>
  </g>
</svg>
