<svg xmlns="http://www.w3.org/2000/svg" width="26.18" height="23.72" viewBox="0 0 26.18 23.72">
  <g id="Group_54909" data-name="Group 54909" transform="translate(-253.055 333.681)">
    <path id="Path_54892" data-name="Path 54892" d="M253.082-218.644a6.913,6.913,0,0,1,.66-3.516,8.177,8.177,0,0,1,4.858-4.487,1.026,1.026,0,0,1,.962.081,8.147,8.147,0,0,0,8.39.07,1.405,1.405,0,0,1,1.3-.1,7.264,7.264,0,0,1,2.185,1.261,2.354,2.354,0,0,1-.406.224c-.59.173-.923.465-.8,1.17.073.437-.842,1.269-1.29,1.212a.705.705,0,0,0-.88.588c-.161.521-.385,1.022-.579,1.532-.006.016,0,.039.016.13a1.525,1.525,0,0,1,.708,1.775C267.889-218.522,254.045-218.446,253.082-218.644Z" transform="translate(0 -96.031)" fill="#ff8027"/>
    <path id="Path_54893" data-name="Path 54893" d="M299-330.555a5.154,5.154,0,0,1,5.273-5.126,5.2,5.2,0,0,1,5.081,5.277,5.227,5.227,0,0,1-5.3,5.073A5.15,5.15,0,0,1,299-330.555Z" transform="translate(-40.355 2)" fill="#ff8027"/>
    <path id="Path_54894" data-name="Path 54894" d="M387.555-198.885a.946.946,0,0,0-1.3-.568.618.618,0,0,1-.242.008c-.625-.072-1.219-.065-1.54.616-.263-.094-.467-.181-.679-.239a.468.468,0,0,1-.394-.577.716.716,0,0,0-.419-.78,2.125,2.125,0,0,1-.586-.522,1.09,1.09,0,0,0-1.1-.553c-.451.061-.4-.423-.574-.665a.364.364,0,0,1,.118-.568.726.726,0,0,0,.307-.89,2,2,0,0,1-.036-.784,1.012,1.012,0,0,0-.414-1.111c-.288-.186-.139-.43-.038-.644.113-.238.118-.626.514-.565a1,1,0,0,0,1.033-.56,2.068,2.068,0,0,1,.467-.474c.351-.254.6-.522.462-1-.107-.377.236-.424.461-.517s.509-.368.75-.02a.968.968,0,0,0,1.068.366,3.14,3.14,0,0,1,.788-.006.81.81,0,0,0,.891-.354c.128-.211.3-.323.556-.171.272.162.749.1.711.6a.962.962,0,0,0,.5.949,2.308,2.308,0,0,1,.564.548.829.829,0,0,0,.92.407c.471-.1.477.332.621.594.132.241.233.494-.077.685a.713.713,0,0,0-.3.881,3.038,3.038,0,0,1,.023.908.831.831,0,0,0,.394.925c.292.161.206.408.092.631-.126.248-.1.671-.54.607a.938.938,0,0,0-.98.539,2.528,2.528,0,0,1-.542.569.859.859,0,0,0-.422.918c.027.144-.152.381-.3.493A3.691,3.691,0,0,1,387.555-198.885Zm-1.675-2.24a3.109,3.109,0,0,0,3.09-3.1,3.124,3.124,0,0,0-3.152-3.112,3.136,3.136,0,0,0-3.091,3.11A3.1,3.1,0,0,0,385.879-201.125Z" transform="translate(-111.962 -111.132)" fill="#ff8027"/>
    <path id="Path_54895" data-name="Path 54895" d="M410.531-181.543a2.2,2.2,0,0,1-2.238,2.218,2.207,2.207,0,0,1-2.187-2.207,2.2,2.2,0,0,1,2.238-2.215A2.2,2.2,0,0,1,410.531-181.543Z" transform="translate(-134.433 -133.786)" fill="#ff8027"/>
  </g>
</svg>
