<svg id="Group_55108" data-name="Group 55108" xmlns="http://www.w3.org/2000/svg" width="157.292" height="131.117" viewBox="0 0 157.292 131.117">
  <g id="Group_55094" data-name="Group 55094" transform="translate(0 0)">
    <g id="Group_54891" data-name="Group 54891" transform="translate(0 0)">
      <path id="Path_56896" data-name="Path 56896" d="M723.4,2643.072q0,2.383,0,4.766v5.272q0,1.663,0,3.326c-.438.743.485,1.876-.689,2.408q.029-25.308.059-50.615l.5-.011a.7.7,0,0,0,.107.427q.009,3.833.018,7.667l.01,1.408,0,5.285v4.752q0,2.642,0,5.285v4.752Q723.41,2640.433,723.4,2643.072Z" transform="translate(-574.171 -2550.397)" fill="#fff"/>
      <path id="Path_57037" data-name="Path 57037" d="M703.109,2508.074l-.761-.759.286-.2a.614.614,0,0,1,.445.975Z" transform="translate(-563.535 -2497.616)" fill="#fff"/>
      <path id="Path_56915" data-name="Path 56915" d="M674.7,2517.583l-.1-2.805-.011-4.808c.293-.983-.181-2.264,1.112-2.857a2.61,2.61,0,0,1,.172.249c-1.142,2.143-.4,4.454-.58,6.682-.105,1.322-.051,2.656-.069,3.984Z" transform="translate(-549.046 -2497.614)" fill="#fff"/>
      <path id="Path_56756" data-name="Path 56756" d="M580.881,2709.42c0-10.661.083-21.324-.04-31.984-.04-3.428.521-6.792.556-10.2.023-2.251,1.9-3.005,3.62-3.056q8.7-.256,17.42-.028c2.732.073,3.773,1.53,3.775,4.467q.016,20.408.008,40.816C597.775,2709.646,589.328,2709.667,580.881,2709.42Z" transform="translate(-500.103 -2579.539)" fill="#fff"/>
      <path id="Path_56894" data-name="Path 56894" d="M660.49,2639.818c3.017-.237,6.748.314,10.471-.248a2.746,2.746,0,0,1,2.907,1.645,6.226,6.226,0,0,1,.739,2.486c.065,5.086.189,10.181-.026,15.259-.151,3.547-1.323,4.622-4.941,4.708-6.2.148-12.4.114-18.6.012-2.923-.049-4.107-1.449-4.109-4.32q-.009-7.988,0-15.977c.008-2.7.861-3.547,3.554-3.562C653.589,2639.8,656.689,2639.818,660.49,2639.818Z" transform="translate(-534.602 -2566.748)" fill="#fff"/>
      <path id="Path_56895" data-name="Path 56895" d="M532.542,2693.075q3.7,0,7.392,0c2.036,0,3.062.905,3.012,3.059q-.116,5.005.007,10.014c.055,2.112-.852,3.13-2.93,3.133-5.087.007-10.174.018-15.261-.006-1.893-.009-2.94-.86-2.9-2.92q.1-5.125,0-10.253c-.046-2.174,1.048-3.021,3.055-3.026C527.454,2693.072,530,2693.076,532.542,2693.075Zm-.1,14.538c1.987,0,3.974.009,5.961,0,1.479-.009,2.452-.593,2.451-2.239q-.006-4.173,0-8.345c0-1.613-.911-2.289-2.414-2.294-4.054-.013-8.107-.024-12.16,0a2.112,2.112,0,0,0-2.352,2.372q.011,4.053,0,8.106c-.008,1.734.946,2.4,2.559,2.4C528.47,2707.608,530.458,2707.613,532.445,2707.614Z" transform="translate(-469.309 -2594.695)" fill="#fff"/>
      <path id="Path_56755" data-name="Path 56755" d="M590.076,2545.074c-.715-.041-1.429-.116-2.144-.117q-54.364-.009-108.729,0c-.635,0-1.269.069-1.9.106l-.51.029a2.565,2.565,0,0,0-.434.048l-.463-.077h-1.445l-3.238-.634a5.922,5.922,0,0,1-2.644-4.653l-.044-1.425V2536.4l0-.453.014-.987a21.492,21.492,0,0,0,.008-5.7l.017-1.479a8.3,8.3,0,0,1,1.593-3.311,10.225,10.225,0,0,0,2.873-1.919,16.252,16.252,0,0,0,4.373-2.81l.884-.54a70.078,70.078,0,0,0,9.053-5.793,38.658,38.658,0,0,0,6.7-4.245l9.075-5.785a73.231,73.231,0,0,0,8.959-5.745l.6-.42.012-.008.585-.4.01.078a17.155,17.155,0,0,0,4.651-3.025,35.609,35.609,0,0,0,6.732-4.264l-.013.007.7-.429a.192.192,0,0,0,.253-.142l.545-.381.878-.537.624-.4a.305.305,0,0,0,.344-.141l.559-.329-.018.031,3.326,0,.125-.036a4.935,4.935,0,0,0,2.213,1.305.251.251,0,0,0,.3.144l.645.377a.174.174,0,0,0,.242.118l.713.4,0,0a47.762,47.762,0,0,0,7.181,4.148.376.376,0,0,0,.4.165l.535.372a.23.23,0,0,0,.3.133,13.153,13.153,0,0,0,4.024,2.318l.028.012.92.5a2.442,2.442,0,0,0,1.534.92,7.5,7.5,0,0,0,2.676,1.575,24.247,24.247,0,0,0,4.869,2.749,3.376,3.376,0,0,0,1.818,1l.588.365.082.04a24.688,24.688,0,0,0,6.066,3.329l.525.444a149.883,149.883,0,0,0,13.324,7.632l.5.107a32.107,32.107,0,0,0,7.211,4.292l0,0a5.435,5.435,0,0,0,2.395,1.4c1.62.987,3.232,1.987,4.864,2.956a5.07,5.07,0,0,1,2.744,4.443c.058,3.811.109,7.624.011,11.433a5.03,5.03,0,0,1-5.027,5.012c-.868.056-1.738.094-2.607.14l-.495-.009Z" transform="translate(-441.467 -2487.241)" fill="#fff"/>
      <path id="Path_56909" data-name="Path 56909" d="M704.493,2525.846q-.1.485-.19.969l-.5-.107q.034-8.793.066-17.587l-.03.017c.962.387.28,1.326.642,1.913q0,2.375,0,4.748l0,5.292Q704.486,2523.468,704.493,2525.846Z" transform="translate(-564.295 -2498.662)" fill="#fff"/>
      <path id="Path_57036" data-name="Path 57036" d="M689.073,2506.276a41.926,41.926,0,0,0-11.983.043,2.489,2.489,0,0,0-.169-.245l.631-.649,4.634-.3,5.257,0c.612.372,1.5.186,1.917.952Z" transform="translate(-550.262 -2496.576)" fill="#fff"/>
      <path id="Path_57130" data-name="Path 57130" d="M538.229,2716.45c-1.188,0-2.38-.058-3.563.016-1.341.084-1.811-.454-1.8-1.791.014-1.31.624-1.6,1.766-1.581,2.375.045,4.753.057,7.127,0,1.238-.032,1.676.454,1.67,1.673,0,1.186-.373,1.77-1.641,1.7C540.608,2716.4,539.417,2716.449,538.229,2716.45Z" transform="translate(-475.058 -2605.145)" fill="#fff"/>
      <path id="Path_57131" data-name="Path 57131" d="M538.254,2701.115c1.109,0,2.222.053,3.326-.014,1.279-.079,1.857.332,1.862,1.728,0,1.487-.758,1.667-1.947,1.642q-3.444-.072-6.891,0c-1.172.025-1.721-.329-1.741-1.61-.021-1.369.518-1.84,1.827-1.761C535.874,2701.172,537.066,2701.115,538.254,2701.115Z" transform="translate(-475.056 -2598.88)" fill="#fff"/>
      <path id="Line_135" data-name="Line 135" d="M.627,72.171H-.75V0H.627Z" transform="translate(148.955 57.735)" fill="#fff" stroke="#fff" stroke-width="2"/>
      <path id="Line_137" data-name="Line 137" d="M.627,72.171H-.75V0H.627Z" transform="translate(37.593 57.735)" fill="#fff" stroke="#fff" stroke-width="2"/>
      <path id="Line_136" data-name="Line 136" d="M111.363.627H0V-.75H111.363Z" transform="translate(37.532 129.49)" fill="#fff" stroke="#fff" stroke-width="2"/>
      <path id="Path_56758" data-name="Path 56758" d="M423.4,2743.13l.922,0,.509-.009c1.293.022,2.5.73,3.829.478,0,.87.106,1.7,1.3,1.238a11.288,11.288,0,0,1,3.481-.293c1.471.98,3.487,1.486,3.363,3.857l.006,2.726-23.27.2c-1.322-.56-1.255-1.877-1.614-2.962.113-1.7,1.728-2.947,1.453-4.768l-.01.008,5.258,0-.01-.01c.042.841-.215,1.85.835,2.246,1.071.4,1.154-.831,1.756-1.226.261-.171.511-.359.766-.54Z" transform="translate(-411.917 -2620.824)" fill="#fff"/>
      <path id="Subtraction_23" data-name="Subtraction 23" d="M10.311,32.165h0l-.673-.092L7.58,31.555l-2.068-.937-.455-.258-.248-.2a.507.507,0,0,0-.411-.285L2.983,28.556l-.226-.24-.222-.236A25.814,25.814,0,0,1,.5,24.292l-.158-.745-.007-.031L.181,22.8l-.017-.23L.02,21.655A3.121,3.121,0,0,0,0,20.249l.13-.91q.033-.449.066-.9.019-.176.039-.351v-.01l0-.016q.017-.154.034-.308a60.49,60.49,0,0,1,2.979-9.6L4.787,5.34,5.521,4l.066-.079A17.219,17.219,0,0,1,8.986.538L9.459.323,9.932.109A8.259,8.259,0,0,1,11.308,0a11.871,11.871,0,0,1,1.311.078L12.612.069a1.638,1.638,0,0,0,.94.441l.006,0a1.158,1.158,0,0,0,.687.457l.138.109.138.109.787.79.787.79.223.271.218.252-.015-.01a1.114,1.114,0,0,0,.484.667l.008.011.09.139.147.227a45.09,45.09,0,0,1,3.781,8.4q.111.423.224.847c.148.555.3,1.129.443,1.694a21.329,21.329,0,0,1,.8,5.954,11.149,11.149,0,0,1-1.725,5.755l-.1.2-.473.679-.208.244L18.13,29.9a1.179,1.179,0,0,0-.673.477.436.436,0,0,0-.427.243l-1.883.892c-.3.059-.594.131-.883.2a9.9,9.9,0,0,1-2.283.359c-.141,0-.281-.006-.416-.018h-.151V22.269l6.032-6.656-.17-.155-5.862,6.468V7.356h-.46v4.821L8.043,9.453l-.158.168,3.067,2.873V32.061l-.641.1Z" transform="translate(0 83.134)" fill="#fff"/>
    </g>
    <path id="Line_138" data-name="Line 138" d="M.209,9.181H-.25V0H.209Z" transform="translate(11.162 114.456)" fill="#fff"/>
  </g>
  <rect id="Rectangle_18700" data-name="Rectangle 18700" width="16" height="26" rx="4" transform="translate(125.402 8.377)" fill="#fff"/>
</svg>
