<svg id="pdA1Sq" xmlns="http://www.w3.org/2000/svg" width="166.636" height="132.815" viewBox="0 0 166.636 132.815">
  <g id="Group_55014" data-name="Group 55014" transform="translate(0)">
    <path id="Path_57197" data-name="Path 57197" d="M953.776,3358.487c2.019,6.268,3.771,12.564,3.074,19.285-.2,1.978-.366,3.862-1.868,5.391-3.789-4.466-4.052-5.588-5.461-22.9-5.5,6.411-11.787,25.576-11.481,35.477a36.65,36.65,0,0,1,4.641.578,58.317,58.317,0,0,1,15.959,6.332c5.564,3.327,11.31,5.97,18.033,5.472a15.05,15.05,0,0,1,2.368.191,7.573,7.573,0,0,1,.433,1.625c.03,7.1.075,14.2.015,21.307-.026,2.96-.52,3.355-3.479,3.509-.824.043-1.651.006-2.477.006q-77.052,0-154.106.022c-7.253.006-6.467-.382-6.462-6.527,0-5.285-.017-10.571,0-15.857.006-1.276.141-2.552.237-4.185h13.329V3402.5c-1.563-1.194-4.769.636-5.717-2.886l5.724-.775v-10.23c-1.744-.825-4.593.754-5.517-2.672,6.927-5.937,14.785-10.939,22.627-16.651,3.93,2.806,8.018,5.5,11.852,8.525,3.641,2.871,7.98,4.966,10.845,8.516-1.35,2.738-3.493,1.672-5.415,2.256-.849,3.238-.319,6.612-.294,10.272,1.5.109,2.772.28,4.042.282,15.031.02,30.062-.034,45.091.041,4.746.024,8.7-2.381,13.364-3.144-3.226-20.481-6.349-40.329-9.5-60.174-.04-.245-.459-.429-.7-.636l-9.669,18.89c-2.257-2.865-2.4-4.212-1.6-8.493.608-3.257,1.22-6.49,3.355-9.135,1.911-2.367,3.97-4.615,6.344-7.353a10.163,10.163,0,0,0-2.805.035,86.153,86.153,0,0,0-9.6,3.792,47.8,47.8,0,0,1-11.981,4.342,40.018,40.018,0,0,1-4.954.343c2.966-5.809,7.774-7.881,12.8-9.1,5.048-1.22,10.3-1.611,15.46-2.365.043.144.038-.241-.1-.3-4.636-1.913-8.873-4.847-13.976-5.567a15.123,15.123,0,0,0-3.38-.172c-1.459.127-2.891.6-4.35.7-1.793.128-3.6.031-5.893.031a8.074,8.074,0,0,1,3.734-3.985,16.518,16.518,0,0,1,20.019,2.511,34.68,34.68,0,0,0,4.4,3.8c-1.064-2.729-3.084-4.718-5.2-6.6-1.707-1.521-3.7-2.745-5.293-4.364-2.668-2.7-4.094-5.9-2.565-10.288.988.327,2.161.4,2.875,1,5.21,4.434,9.459,9.59,11.565,16.252a15.254,15.254,0,0,0,.741,1.79c.055.122.258.176.786.511a33.188,33.188,0,0,1,4.2-12.225,14.463,14.463,0,0,1,10.159-7.124,3.338,3.338,0,0,1,3.92,1.474c-.294,1.836-1.7,2.587-3.186,3.393a21.568,21.568,0,0,0-10.7,12.594c-.538,1.633-1.732,3.05-2.955,5.127,2.155-.273,2.969-1.557,3.936-2.5a27.09,27.09,0,0,1,13.318-7.08c4.235-.939,7.634.449,10.868,3.922-4.142,1.792-7.445,4.185-11.753,4.965-3.679.667-7.232,1.895-11.06,1.907-1.329,0-2.657.791-4.394,1.353,2.6,2.222,5.381,2.676,8.036,3.348,5.5,1.395,10.687,3.333,14.373,7.971,1.436,1.807,2.851,3.644,2.2,6.785-4.971-2.781-9.729-5.428-14.468-8.11a9.9,9.9,0,0,1-2.391-1.688,10.057,10.057,0,0,0-7.411-3.3c-1.056,3.869.371,7.737,1.053,11.488,2.019,11.1,4.691,22.079,6.924,33.143,1.193,5.908,2.01,11.891,3.029,18.041h6.215a113.61,113.61,0,0,1,13.163-35.7c-2.682-.962-4.956-.347-7.533.338-4.3,1.145-8.883,1.27-13.351,1.778-.208.024-.468-.394-.97-.847,3.627-6.04,10.151-5.444,15.845-7.222a51.55,51.55,0,0,1-7.138-2.048,54.411,54.411,0,0,1-6.557-4.062c2.557-2.91,5.569-3.074,8.82-2.1a27.681,27.681,0,0,1,12.884,7.587c0-2.063.078-3.44-.014-4.806-.27-3.984-.395-8-1.009-11.93a15.314,15.314,0,0,0-2.448-5.216c-.683-1.115-1.783-1.977-1.065-3.751,2.385-1.024,4.319.353,6.04,1.782a12.452,12.452,0,0,1,4.478,10.042c-.035,3.588-.6,7.172-.929,10.759l-.4.652.338-.711c2.188-2.395,4.363-4.8,6.569-7.18a8.579,8.579,0,0,1,8.1-2.548,7.7,7.7,0,0,1,2.159,1.2l-1.486,4.685c-5.311,1.459-10.132,3.449-13.99,7.518,5.127-1.892,10.158-2.394,15.075.32,4.9,2.7,7.276,7.286,9.411,12.454-3.135.861-4.99-.871-6.569-2.624a27.234,27.234,0,0,0-7.885-5.75c-.413-.216-.99-.742-1.2-.62-2.525,1.435-4.779-.846-7.2-.454-.62-1.14-1.371-1.352-2.593-.049h2.636c1.24.677,2.438,1.45,3.728,2.015,6.3,2.761,11.945,6.238,14.654,13.027a3.5,3.5,0,0,1,.211.934c.013.129-.123.274-.374.786a14.007,14.007,0,0,1-2-.656,37.558,37.558,0,0,1-12.511-9.786c-1.683-2.031-3.306-4.729-6.722-4.3l-.66-.4Zm-93.012,49.455c6.237.084,12.28,1.11,17.971-1.964a9.491,9.491,0,0,1,2.783-.888c6.071-1.116,12.15-2.184,18.226-3.267a8.407,8.407,0,0,0-3.819-.517c-3.589.214-7.172.641-10.762.7-7.081.114-14.165.016-21.248.057a23,23,0,0,0-3.151.431Zm-24.262-5.635h-6.436v5.452H836.5Zm2.681-.059v5.9l5.311-.233v-5.663Zm8.8-.014v5.812l3.441-.269v-5.543Zm7.149-.078c-.774,5.568-.774,5.568,2.055,5.444C857.837,3402.931,857.837,3402.931,855.128,3402.156Z" transform="translate(-812.939 -3301.962)" fill="#fff"/>
    <path id="Path_57198" data-name="Path 57198" d="M889.982,3363.83a7.782,7.782,0,0,1-7.957,8.022,8.461,8.461,0,0,1-8.6-8.248c-.017-4.123,4.491-8.623,8.569-8.554C886.734,3355.128,890,3358.723,889.982,3363.83Z" transform="translate(-813.467 -3302.426)" fill="#fff"/>
    <path id="Path_57199" data-name="Path 57199" d="M897.611,3352.263a11.147,11.147,0,0,1-5.327,5.424,2.3,2.3,0,0,1-1.774-.2c-.3-.143-.606-1.01-.456-1.2a20.107,20.107,0,0,1,3.4-3.916C894.449,3351.6,895.824,3350.33,897.611,3352.263Z" transform="translate(-813.612 -3302.393)" fill="#fff"/>
    <path id="Path_57200" data-name="Path 57200" d="M884.578,3382.762c-3.3-1.991-2.692-4.86-2.449-7.552.039-.429.778-.94,1.3-1.125a1.538,1.538,0,0,1,1.238.526C886.389,3376.552,886.378,3379.582,884.578,3382.762Z" transform="translate(-813.542 -3302.592)" fill="#fff"/>
    <path id="Path_57201" data-name="Path 57201" d="M880.543,3353.894a7.7,7.7,0,0,1-2.5-7.141,2.775,2.775,0,0,1,1.321-1.711c.261-.155,1.272.39,1.5.843C882.18,3348.436,882.838,3351.035,880.543,3353.894Z" transform="translate(-813.507 -3302.339)" fill="#fff"/>
    <path id="Path_57202" data-name="Path 57202" d="M872.68,3359.549a2.787,2.787,0,0,1-3.761.943c-1.927-.75-4.109-1.105-4.783-3.539C867.637,3355.265,869.1,3355.7,872.68,3359.549Z" transform="translate(-813.386 -3302.435)" fill="#fff"/>
    <path id="Path_57203" data-name="Path 57203" d="M891.121,3367.642c3.6-1.753,6.064.4,9.1,2.243-.753.743-1.228,1.634-1.808,1.709C896.068,3371.9,893.2,3370.279,891.121,3367.642Z" transform="translate(-813.622 -3302.531)" fill="#fff"/>
    <path id="Path_57204" data-name="Path 57204" d="M866.914,3375.93c.412-4.517,3.3-5.668,6.338-6.861C873.894,3372.633,872.679,3373.99,866.914,3375.93Z" transform="translate(-813.41 -3302.549)" fill="#fff"/>
  </g>
</svg>
