<svg id="Group_55095" data-name="Group 55095" xmlns="http://www.w3.org/2000/svg" width="205.912" height="145.343" viewBox="0 0 205.912 145.343">
  <path id="Path_57205" data-name="Path 57205" d="M928.33,2408.36c-1.939.166-3.858-.01-5.606,1.416-1.665,1.359-4.57.494-5.812,2.906l-5.787-.858c1.839-1.056.612-3.562,3.166-2.8.124.108.247.215.373.321l.333,1.851,4.665-7.194h.865c.577.8,1.152,1.167,1.729,0H930.9a31.923,31.923,0,0,0,4.755,2.606,5.44,5.44,0,0,0,3.55-.125c3.208-1.283,6.084-1.4,8.588,1.493l-1.568.878,4,.353c-2.149,2.3-4.214,4.486-6.25,6.7-1.021,1.111-1.528,2.8-3.435,2.9-.16.009-.469.635-.4.9.593,2.344-1.383.9-2.1,1.459l.66,1.929c-5.979,1.6-12.225,2.879-15.969,8.935l-3.166-2.6c.815-3.161,1.729-6.02,4.141-8.051,2.115-1.782,2.014-4.438,2.663-6.719.564-1.979-2.076-1.438-2.915-2.45.423-2.794,2.831-3.086,4.815-3.906l.254-.312Zm-4.307-2.005.094-.409-2.023.106.011.3Zm-4.868,1.683c-.092-.085-.219-.252-.263-.232a6.319,6.319,0,0,0-.685.393l.367.448Z" transform="translate(-848.56 -2404)" fill="#fff"/>
  <path id="Path_57206" data-name="Path 57206" d="M1024.971,2473.741l-2.92.523c.743,1.295,1.2,2.262,1.809,3.122,2.78,3.93,2.733,4.354-1.113,7.6l-3.534-3.1c-1.515,2.278-.526,4.014.8,5.518,1.255,1.427,2.248,2.838,2.1,4.958l-1.4-.33-.2-.159-1.684-1.706.055.073c-.2-.829-.14-1.91-.651-2.437-1.445-1.492-1.4-3.24-1.643-5.093-.188-1.418.365-3.712-2.338-3.931-.415-.034-.944-1.054-1.081-1.69-.442-2.055-1.882-3.078-3.856-4.08a25.093,25.093,0,0,0-5.59,7.29c-.891,1.924-1.263,4.293.789,6.162.309.28.043,1.19.043,2.127-6.133-2.926-6.558-8.794-8.385-13.873-.707-.125-1.976-.043-2.139-.43-1.226-2.9-3.693-3.3-6.336-3.523-1.144-.1-2.282-.277-3.423-.418l-5.977-3.507c.217,2.052,1.956,3.233,3.057,4.747l2.974-1.3,2.506,3.48a14.081,14.081,0,0,1-12.086,8.7l-.874-.878c-.446-5.209-3.706-9.111-6.222-13.367a125.656,125.656,0,0,0,4.974,12.225c.211.462.857.726,1.3,1.082l.878.883c.046.946.3,1.778,1.461,1.676,1.275-.113,2.538-.361,4.112-.6.146,3.493-1.711,6.14-3.6,8.731-.756,1.036-1.862,1.81-2.668,2.816-1.663,2.077-2.822,4.326-1.952,7.136.253.818.235,1.72.5,2.534.743,2.314.36,4.216-1.7,5.71-1.456,1.058-1.735,2.563-2.176,4.327a31.83,31.83,0,0,1-4.177,9.135c-1.253,1.97-3.762,2.534-6.121,2.74a8.63,8.63,0,0,1-1.591-.135c-1.324-3.305-2.589-6.451-3.843-9.6-.581-1.458-1.032-2.98-1.734-4.377a7.152,7.152,0,0,1-.5-6.249c1.256-2.773.406-5.3-.958-7.348a11.438,11.438,0,0,1-2.07-7.65c-3.2-3.7-6.838-2.352-10.136-1.38a4.286,4.286,0,0,1-4.929-1.345,12.582,12.582,0,0,1-3.952-10.069c.349-4.828,1.251-9.124,5.746-12.171,1.976-1.339,3.043-4.021,4.634-6.25-.315-1.134-2.284-1.678-1.61-3.4.518-1.326.934-2.692,1.5-4.337l4.744-.441c1.462-1.874-.577-3-.665-4.463l3.784-1.9a2.181,2.181,0,0,1,.527-.432c2.286-1.578,4.74-2.98,5.877-6.24l2.281,2.841c2.766.15,5.038-.7,6.323-3.3a4.091,4.091,0,0,1,3.578-2.385c-.415-.048-.831-.083-1.243-.144-2.568-.383-2.884-.834-2.251-3.286.176-.684.43-1.347.648-2.021l.225-.263-.167.32a4.3,4.3,0,0,0-2.665,4.038c-.208,2.374-1.559,4.2-3.525,6.206l-1.5-3.036-2.476-.463c-.1-.516-.357-.985-.231-1.3a11.888,11.888,0,0,1,1.61-3.3c1.36-1.619,3.2-2.855,4.441-4.548,3.268-4.469,9.13-5.336,13.761-.2-.2,1.479-1.225,1.749-2.486,1.671l-.469-.38.4.451c.286.375.718,1.115.834,1.068.926-.373,2.313-.7,2.584-1.4,1.1-2.889,3.78-2.447,5.893-3.081a46.046,46.046,0,0,1,5.457-.981,1.137,1.137,0,0,0,.07.341c.034.062.154.078.235.114l-.365-.4c.1-1.216.2-2.432.289-3.512h5.815l.292.262-.352-.2a6.885,6.885,0,0,1,5.988-5.135l.085-1.786.032-.029a21.766,21.766,0,0,0,4.189.616c1.9-.078,1.941,1.29,2.42,2.75,2.067-.255,4.031.919,6.381-.141.992-.448,2.8.9,4.566,1.562.377-.981,3.5.522,2.654-2.7,4.315.637,8.607,1.316,12.916,1.871a5.348,5.348,0,0,0,2.87-.371c2.907-1.411,5.8-1.233,8.8-.44,2.192.579,4.437.953,6.981,1.486.223.692.511,1.591.895,2.784h-5.046l2.533,2.576c-.219,2.781-2.77,3.555-4.408,5.339,1.924,2.672,3.678,5.4,1.964,9.16-4.271-3.331-5.889-7.332-4.658-12.552-.665,1.352-1,2.824-3,1.153v3.349l-5.866,1.271c-.375,1.39-.771,2.86-1.149,4.259,1.481,1.863,3.323.68,5.082,1.067,1.681,2.131,4.673,3.678,3.984,7.781l-2.4-2.234-.2-1.262-.359.171.617,1.036c.085,2.711.54,5.409-2.458,7.249-1.442.885-1.294,2.688-.354,4.18a12.288,12.288,0,0,1,1.344,2.152c.436,1.2-.163,1.9-1.4,2.068-2.432-3.02-4.166-4.318-6.541-4.736-.213-.037-.539.562-1.043,1.121,1.356.886,2.874,1.236,3.082,3.435.181,1.905,2.058,3.65,3.014,5.187-.467,4.824-2.475,8.149-6.936,9.628Zm-70.02-15.462-.107-.122c.308-2.668-1.92-3.638-3.418-5.1l-.835-.005c-4.492,0-5.692,4.03-8.319,6.744,3.185.23,6.043-1.96,9.3-.334-.54,3.463,3.079,3.5,4.657,5.648,2.279-2.171,4.619-1.684,6.921-.6,1.674.792,3.2-.01,4.435-.7.785-.438.892-2.089,1.21-2.947-2.067-.518-3.893-.574-5.164-1.444-.78-.533-.708-2.312-1.175-4.146a24.019,24.019,0,0,0-1.664,2.32,16.639,16.639,0,0,0-.828,2.333l-2.4-3.532Zm10.8-8.155-1.335,4.863.5.752c2.369-2.939,5.172-.023,8.061-1.014l-3.092-3.791-1.329,1.432Zm-8.359,5.865c-1.11-2.776-1.11-2.776-3.367-3.74Zm30.9-30.172c-.089.081-.261.172-.252.24a4.228,4.228,0,0,0,.2.681c.089-.087.262-.185.252-.26A3.49,3.49,0,0,0,988.3,2425.818Z" transform="translate(-850.947 -2405.489)" fill="#fff"/>
  <path id="Path_57207" data-name="Path 57207" d="M897.732,2412.929l2.02-1c-.308-.668-.883-1.342-.8-1.925.065-.468.923-.828,2.005-1.7l.463,5.186,5.188.436.8,9.574c-.856.819-1.809,2.122-3.243.241-.814,3.191-.814,3.191-3.951,3.4l-3.026-3.7c1.976-.335,4.087-.477,4.914-2.729l-.054.053c.8-.312.857-.624,0-.935l.061.056.6-1.574c-.978.163-2.074.027-2.363.446-1.744,2.534-4.146,3.366-7.209,3.054l2.163,1.87-3.047,2.047-1.286-2.449c-2.287,1.3-4.513,2.546-6.718,3.828a2.009,2.009,0,0,0-.826,2.95c.758,1.354,1.727,2.589,2.625,3.906l-1.253,3.321c2.283-1.243,2.821-3.786,5.356-5.023,1.933-.944,2.827-4.016,4.132-6.062,4.095.648,4.373,1.058,3.275,4.962l3.1-1.672c.764,1.77-.356,2.989-.487,4.319-.128,1.306.365,2.674.676,4.563-1.346,1.456-1.777,3.673-.17,6.031-2.457,1.013-3.495-.152-4.749-1.209l1.322-2.268c-1.972.267-3.819-1.247-5.507.581l-1.01.5.962-.551,1.2.215-1.038,2.889,2.252.184c0,.313.1.726-.014.791-1.544.907-2.9,2.744-5.012,1.117l.213-.328-.15.386a8.477,8.477,0,0,0-2.8.777,62.676,62.676,0,0,0-6.58,5.32c-2.12,2.021-3.692,4.559-6.373,6.082-.756.429-.885,2.028-1.217,3.116-.36,1.177-.62,2.385-.958,3.714-2.741-1.057-1.475-2.974-1.642-4.489-1.042-.36-1.75-2.308-3.164-.467-.843,1.1-1.807.222-2.745.056-1.913-.338-3.341.233-4.081,2.222-.5,1.333-1.42,2.529-1.781,3.884a23.289,23.289,0,0,0-.414,4.179c3.437,2.062,4.37-3.165,7.685-1.465l-2.294,4.468c.612,1.422,3.39.633,3.173,2.88-.135,1.389-.482,2.758-.78,4.382l4.734,1.324c1.689-3.036,3.854-3.34,7.33-2.065,2.758,1.01,5.213,1.891,7.126,4.15a4.651,4.651,0,0,0,2.134,1.381c3.115.909,4.11,3.142,4.089,6.3,2.6.412,4.5,2.613,7.415,2.731,1.223.05,2.529,1.324,3.549,2.3a3.622,3.622,0,0,1,.533,4.736,12.011,12.011,0,0,0-1.546,7.44c.151,2.348-.337,4.48-2.739,5.854a5.15,5.15,0,0,0-2.538,5.094,10.509,10.509,0,0,1-2.292,7.509c-.716.855-.145,2.738-.815,3.695s-2.4,1.466-2.246,2.842c.234,2.075.218,4.238,1.091,6.21.222.5.822.982.781,1.429-.328,3.49,2.089,5.077,4.809,6.8-1.6.991-2.733.492-3.919-.337-1.153-.806-2.587-1.291-3.558-2.259-1.5-1.492-3.746-3.217-3.841-4.945-.287-5.176-5.813-8.2-5.076-13.579-2.172-3.463-1.336-7.558-2.35-11.282-.863-3.166-1.988-5.842-5.093-7.564-1.375-.763-2.334-2.44-3.234-3.86a58.252,58.252,0,0,1-3.227-5.986,4.1,4.1,0,0,1-.428-2.45c.645-2.908.673-5.955,2.505-8.6,1.545-2.228,1.019-2.55-1.693-3.739a10.054,10.054,0,0,1-4-3.628c-1.763-2.673-3.624-4.821-6.929-5.76-1.815-.516-3.339-2.14-4.914-3.368a1.847,1.847,0,0,1-.6-1.517c.756-3.232-.862-6.06-1.491-9.069l-.5,5.586c-1.9-2.49-1.734-4.7-1.657-6.937.082-2.4.273-4.722-.575-7.189-1.026-2.985.454-6.074,2-8.569,1.763-2.857,4.333-5.217,6.553-7.792h.833l.6-1.839-.258-.077-.29,1.975-.941.005a3.148,3.148,0,0,1,.569-4.141c1.084-1.14,1.409-3,2.07-4.543l-.008.008,1.687-3.429-3.15-4.932c-1.316.366-2.541,1.141-3.453.868a3.563,3.563,0,0,0-4.142,1.359c-.274.315-.634.728-.992.769-2.589.294-5.188.5-8.317.79,1.969-2.536,5.136-.819,6.492-3.194-.092-.813-.577-2.082-.25-3.086a5.238,5.238,0,0,1,2.289-2.374c1.825-1.113,4.382-.955,5.336-3.664.188-.531,2.55-.3,4.278-.446a3.56,3.56,0,0,1,3.142-2.816c8.215-1.529,6-2.664,12.471,3.134a4.493,4.493,0,0,0,3.463,1.2c3.414-.095,6.169.8,7.363,4.49.345,1.066,1.314,1.95,2.842.614l-3.283-1.569,3.53-2.795-3.139-.654c0-.386-.11-.74.017-.883,1.492-1.675,3.215-2.956,5.617-2.383.883.21,2.159.54.981,1.987-.063.078.68,1.167,1.11,1.214.8.086,1.646-.37,2.472-.366a5.364,5.364,0,0,1,1.7.619l-.881.874c-1.948.028-2.066,1.514-2.426,3.039l2.376,1.224v-4.307l.875-.885c.953.1,2.274-.863,2.644.917l-.237.263Zm-9.522,4.384a1.426,1.426,0,0,0-.087-.365c-.035-.068-.149-.094-.226-.138l.377.446,3.786,1.643C891.373,2416.148,889.648,2417.185,888.21,2417.313Zm8.653,1.652,3.506-5.164c-3.785,1.635-4.17,2.351-3.448,5.223l-.272.3Zm-48.044,38.473c.076-.067.194-.123.218-.2a1.142,1.142,0,0,0-.018-.372c-.115.081-.272.14-.33.25C848.653,2457.179,848.771,2457.327,848.819,2457.438Z" transform="translate(-838.749 -2404.307)" fill="#fff"/>
  <path id="Path_57208" data-name="Path 57208" d="M1061.563,2547.451a5.454,5.454,0,0,1-4.708-3.774c-.5-1.4-1.732-2.53-2.713-3.89-4.105-.688-7.616,2.025-11.591,2.312-.218-.17-.639-.35-.635-.52.083-3.673.107-7.354.422-11.01.066-.757,1.122-1.668,1.937-2.077a21.116,21.116,0,0,0,7.226-5.277c.784-.951,1.8-2.393,3.657-1.584.243.105.95-.862,1.445-1.329,1.563-1.474,3.2-1.743,4.942-.3-.591,3.023-.591,3.023,2.008,4.625.673-1.852,1.335-3.669,2.357-6.484,1.085,2.615,1.875,4.293,2.48,6.034.7,2.021,1.125,4.141,1.88,6.139a10.405,10.405,0,0,1-1.3,10.168C1067,2543.356,1065.052,2546.2,1061.563,2547.451Z" transform="translate(-866.289 -2419.473)" fill="#fff"/>
  <path id="Path_57209" data-name="Path 57209" d="M1061.571,2506.037l2.616,1.919c1.95-.928,4.04-.455,6.047.927,2.452,1.688,3.251,2.986,4.549,8.108a23.218,23.218,0,0,1-7.641-2.293c-.247-.112-.574-.329-.625-.552-.526-2.321-1.916-3.524-4.236-4.244C1060.894,2509.472,1060.5,2507.848,1061.571,2506.037Z" transform="translate(-868.871 -2417.832)" fill="#fff"/>
  <path id="Path_57210" data-name="Path 57210" d="M1048.8,2504.053l-3.091,5.013c-3.68.266-4.271-2.241-4.824-5.066l6.19-5.738c.892.255,2.081.836,1.366,2.216-.733,1.415-.143,2.459.3,3.637Z" transform="translate(-866.149 -2416.778)" fill="#fff"/>
  <path id="Path_57211" data-name="Path 57211" d="M987.03,2520.322c.645,3.672-1.145,7.011-2,10.452-.16.643-1.412,1.014-2.138,1.5-2.542-2.758.783-5.5-.706-7.968l3.811-4.339Z" transform="translate(-858.153 -2419.719)" fill="#fff"/>
  <path id="Path_57212" data-name="Path 57212" d="M948.823,2448.912c-2.2.208-4.384.387-5.919-1.828.312-2.028.864-3.848,3.56-3.627l.591,1.526.54-.331-1.17-1.16,1.191-3.352.939.113c.383,2.725,2.266,5.22.794,8.228A2.178,2.178,0,0,0,948.823,2448.912Z" transform="translate(-852.868 -2408.899)" fill="#fff"/>
  <path id="Path_57213" data-name="Path 57213" d="M1054.816,2465.832c-.353-.734-.705-1.468-1.28-2.666l3.543-3.541c-.371-2.395-.75-4.844-1.208-7.8l3.408,1.37-1.3,2.566,2.092,6.11-5.285,3.918Z" transform="translate(-867.864 -2410.483)" fill="#fff"/>
  <path id="Path_57214" data-name="Path 57214" d="M1034.2,2503.649a32.553,32.553,0,0,0,1.82,3.209,3.158,3.158,0,0,1-.253,4.511l.055-.07c-1.16-1.6-2.311-3.2-3.483-4.788-1.325-1.795-2.67-3.576-4.107-5.5,1.3-.746,2.745-.236,4.142.844l-.055-.073,1.684,1.706Z" transform="translate(-864.435 -2417.103)" fill="#fff"/>
  <path id="Path_57215" data-name="Path 57215" d="M905.915,2407.674c-.288.723-.388,1.836-.905,2.086a12.318,12.318,0,0,1-3.341.618l-2.528-4.025,4.37-.657v2.347l2.448-.331Z" transform="translate(-846.936 -2404.23)" fill="#fff"/>
  <path id="Path_57216" data-name="Path 57216" d="M1049.912,2504.982l4.185-.32c-.3,2-2.172,3.236-1.931,5.278.019.159-1.155.459-1.741.681-1.843-1.858-.134-3.848-.452-5.7Z" transform="translate(-867.325 -2417.645)" fill="#fff"/>
  <path id="Path_57217" data-name="Path 57217" d="M940.057,2430.141h5.249c-.135.874-.016,1.717-.382,2.1a3.732,3.732,0,0,1-2.17,1.161C940.77,2433.569,939.909,2432.437,940.057,2430.141Z" transform="translate(-852.48 -2407.543)" fill="#fff"/>
  <path id="Path_57218" data-name="Path 57218" d="M991.008,2417.424c-.383,2.624-2.776,2.726-4.048,4.432.1.779.23,1.811.493,3.885-1.244-1.362-2.347-2.029-2.3-2.613C985.385,2419.856,987.59,2418.271,991.008,2417.424Z" transform="translate(-858.594 -2405.82)" fill="#fff"/>
  <path id="Path_57219" data-name="Path 57219" d="M969.366,2415.623l-2.692,1.809-.852-3.082c1.891-1.253,3.715-2.119,6.006-1.144-.078,1.81-1.346,1.505-2.412,1.523l-.329-.211.383.155a1.78,1.78,0,0,0,.018.842Z" transform="translate(-855.974 -2405.191)" fill="#fff"/>
  <path id="Path_57220" data-name="Path 57220" d="M1036.951,2513.028c1.285-.042,2.569-.081,3.855-.125,1.748-.061,2.8.834,4,2.878-3.243-.606-6.028-.186-7.8-2.823Z" transform="translate(-865.616 -2418.762)" fill="#fff"/>
  <path id="Path_57221" data-name="Path 57221" d="M1050.6,2485.211l1.509,5.042c-2-.445-3.563-1.887-3.536-3.372C1048.591,2486.144,1049.3,2485.591,1050.6,2485.211Z" transform="translate(-867.192 -2415.009)" fill="#fff"/>
  <path id="Path_57222" data-name="Path 57222" d="M877.94,2481.364a12.488,12.488,0,0,1-2.64-.711c-1.318-.678-2.527-1.568-3.987-2.5a1.393,1.393,0,0,1,2.015-.786c1.952.828,3.831,1.784,4.647,3.962Z" transform="translate(-843.163 -2413.923)" fill="#fff"/>
  <path id="Path_57223" data-name="Path 57223" d="M878.962,2481.954c1.376-.042,2.883-.67,4.006.969-.863,1.523-2.018,2.126-3.705,1.281-1.133-.568-.525-1.431-.336-2.217Z" transform="translate(-844.15 -2414.546)" fill="#fff"/>
  <path id="Path_57224" data-name="Path 57224" d="M914.421,2409.255l-2.333-2.668c1.808-2.231,2.624.52,4.171.454l-1.465,2.535C914.668,2409.47,914.545,2409.363,914.421,2409.255Z" transform="translate(-848.69 -2404.232)" fill="#fff"/>
  <path id="Path_57225" data-name="Path 57225" d="M1055.653,2494.627c-.17,1.852-.251,2.719-.362,3.931l-3.267-1.387Z" transform="translate(-867.659 -2416.285)" fill="#fff"/>
  <path id="Path_57226" data-name="Path 57226" d="M1004.485,2413.612c-2.231-.346-2.231-.346-3.286-2.48,1.749.3,3.113.509,3.287,2.478Z" transform="translate(-860.77 -2404.967)" fill="#fff"/>
  <path id="Path_57227" data-name="Path 57227" d="M1025.714,2414.21h3.475C1028.048,2416.416,1026.954,2416.3,1025.714,2414.21Z" transform="translate(-864.093 -2405.384)" fill="#fff"/>
  <path id="Path_57228" data-name="Path 57228" d="M907.021,2407.733c-.164-2.363,1.327-2.061,3.006-1.445l-3.051,1.407Z" transform="translate(-847.998 -2404.25)" fill="#fff"/>
  <path id="Path_57229" data-name="Path 57229" d="M1047.92,2495.627c.357-.676.715-1.352,1.171-2.212C1049.449,2494.865,1049.449,2494.865,1047.92,2495.627Z" transform="translate(-867.103 -2416.121)" fill="#fff"/>
  <path id="Path_57230" data-name="Path 57230" d="M1054.666,2467.84l-.293,1.117c-.573-.426-1.151-.847-1.711-1.29-.049-.039.022-.229.09-.741l1.943.952Z" transform="translate(-867.744 -2412.53)" fill="#fff"/>
  <path id="Path_57231" data-name="Path 57231" d="M1039.851,2483.006c.252.308.769.7.7.906a3.275,3.275,0,0,1-.929,1.16c-.042.04-.577-.267-.56-.353a4.308,4.308,0,0,1,.412-1.076,6.45,6.45,0,0,1,.45-.689Z" transform="translate(-865.903 -2414.703)" fill="#fff"/>
  <path id="Path_57232" data-name="Path 57232" d="M1054.52,2416.037l-.574.446-.449-.841c.233-.1.514-.315.689-.25S1054.413,2415.81,1054.52,2416.037Z" transform="translate(-867.859 -2405.542)" fill="#fff"/>
  <path id="Path_57233" data-name="Path 57233" d="M1053.91,2516.774l1.766-.973.3.685-1.929.427Z" transform="translate(-867.915 -2419.155)" fill="#fff"/>
  <path id="Path_57234" data-name="Path 57234" d="M1049.291,2515.478c-.14.229-.235.531-.438.659-.123.077-.415-.117-.63-.188.109-.233.165-.588.342-.666S1049.043,2515.4,1049.291,2515.478Z" transform="translate(-867.144 -2419.083)" fill="#fff"/>
  <path id="Path_57235" data-name="Path 57235" d="M1032,2413.975a5.8,5.8,0,0,1,.6.779c.022.037-.423.445-.482.408a5.954,5.954,0,0,1-.829-.718Z" transform="translate(-864.849 -2405.352)" fill="#fff"/>
  <path id="Path_57236" data-name="Path 57236" d="M1005,2413.892c1.712-1.017,1.712-1.017,1.748.849l-.032.03-1.717-.877Z" transform="translate(-861.285 -2405.249)" fill="#fff"/>
  <path id="Path_57237" data-name="Path 57237" d="M885.717,2484.049l-.169.355-.35-.521c.1-.059.254-.19.305-.159C885.6,2483.784,885.649,2483.935,885.717,2484.049Z" transform="translate(-845.045 -2414.806)" fill="#fff"/>
  <path id="Path_57238" data-name="Path 57238" d="M1048.843,2479.16l-.507.419c-.094-.236-.276-.482-.253-.706.016-.161.307-.294.474-.439C1048.652,2478.677,1048.747,2478.918,1048.843,2479.16Z" transform="translate(-867.125 -2414.09)" fill="#fff"/>
  <path id="Path_57239" data-name="Path 57239" d="M987.541,2413.4c-.144-.192-.374-.372-.4-.578-.015-.126.284-.29.443-.437.087.1.262.223.245.3A4.3,4.3,0,0,1,987.541,2413.4Z" transform="translate(-858.864 -2405.136)" fill="#fff"/>
  <path id="Path_57240" data-name="Path 57240" d="M1052.728,2494.182l-.277.265a4.29,4.29,0,0,1-.274-.67c-.015-.057.172-.164.266-.249Z" transform="translate(-867.68 -2416.136)" fill="#fff"/>
  <path id="Path_57241" data-name="Path 57241" d="M1052.364,2515.448a4.451,4.451,0,0,1-.731.286c-.071.015-.186-.178-.281-.276a4.31,4.31,0,0,1,.707-.272C1052.136,2515.169,1052.254,2515.349,1052.364,2515.448Z" transform="translate(-867.568 -2419.072)" fill="#fff"/>
  <path id="Path_57242" data-name="Path 57242" d="M970.044,2415.943c.259.34.52.679.762,1.031a3.182,3.182,0,0,1-.283.24l-.6-1.163Z" transform="translate(-856.53 -2405.619)" fill="#fff"/>
  <path id="Path_57243" data-name="Path 57243" d="M911.934,2422.841l-.591-.263.6-.563-.061-.056v.935Z" transform="translate(-848.589 -2406.434)" fill="#fff"/>
  <path id="Path_57244" data-name="Path 57244" d="M1054,2517.066l-.45.312.309-.451Z" transform="translate(-867.867 -2419.308)" fill="#fff"/>
  <path id="Path_57245" data-name="Path 57245" d="M981.973,2413.027l.423.359c-.081-.025-.2-.026-.237-.081a1.3,1.3,0,0,1-.132-.331Z" transform="translate(-858.164 -2405.217)" fill="#fff"/>
  <path id="Path_57246" data-name="Path 57246" d="M859.638,2428.49l-.23.079.032-.218Z" transform="translate(-841.549 -2407.301)" fill="#fff"/>
  <path id="Path_57247" data-name="Path 57247" d="M1054.689,2492.473l-.244.22c-.068-.085-.195-.177-.187-.257s.146-.149.228-.224Z" transform="translate(-867.962 -2415.958)" fill="#fff"/>
  <path id="Path_57248" data-name="Path 57248" d="M981.964,2412.91l-.45-.408c.1.026.234.022.277.085a1.236,1.236,0,0,1,.119.376Z" transform="translate(-858.101 -2405.153)" fill="#fff"/>
  <path id="Path_57249" data-name="Path 57249" d="M875.278,2483.469l.307-.108-.032.28Z" transform="translate(-843.701 -2414.758)" fill="#fff"/>
  <path id="Path_57250" data-name="Path 57250" d="M856.48,2434.652l-.089-.253.24.032Z" transform="translate(-841.141 -2408.121)" fill="#fff"/>
  <path id="Path_57251" data-name="Path 57251" d="M953.857,2458.965l.928,0v4.128l-.779.186c-.3-.485-.87-.986-.84-1.45A15.667,15.667,0,0,1,953.857,2458.965Z" transform="translate(-854.259 -2411.45)" fill="#fff"/>
  <path id="Path_57252" data-name="Path 57252" d="M958.825,2465.05a13.248,13.248,0,0,1-1.075.809,3.594,3.594,0,0,1-.44-.49l1.407-.441Z" transform="translate(-854.821 -2412.259)" fill="#fff"/>
  <path id="Path_57253" data-name="Path 57253" d="M966.7,2468.5l-.3.1.028-.258Z" transform="translate(-856.052 -2412.721)" fill="#fff"/>
</svg>
