<svg xmlns="http://www.w3.org/2000/svg" width="46.088" height="32.051" viewBox="0 0 46.088 32.051">
  <g id="Group_52736" data-name="Group 52736" transform="translate(0)">
    <path id="Path_54991" data-name="Path 54991" d="M496.455,644.312c4.2,2.757,6.524,2.756,10.715-.022,3.009,1.875,5.064,4.528,5.114,8.182.081,5.942,1.52,5.735-5.386,6.286-4.494.359-9.066-.223-13.6-.428-1.6-.073-2.043-.95-2.109-2.584C491,651.032,492.054,647.017,496.455,644.312Z" transform="translate(-478.781 -626.822)" fill="#fff"/>
    <path id="Path_54992" data-name="Path 54992" d="M475.307,650.338c-.6-7.816.664-11.078,5.027-13.719,4.69,2.536,5.719,2.575,10.3.4l1.239,4.593c-3.22,2.168-5.163,5.373-5.642,9.923Z" transform="translate(-475.167 -625.089)" fill="#fff"/>
    <path id="Path_54993" data-name="Path 54993" d="M529.61,650.374l-10.827,1.243c-.579-4.35-2.241-7.705-5.716-9.879l1.186-4.426c1.614.413,3.351,1.237,5.065,1.19,1.744-.047,3.466-.952,5.746-1.65C529.666,639.63,530.223,644.483,529.61,650.374Z" transform="translate(-483.727 -625.142)" fill="#fff"/>
    <path id="Path_54994" data-name="Path 54994" d="M503.074,641.841a6.129,6.129,0,1,1,6.189-6.191A6.239,6.239,0,0,1,503.074,641.841Z" transform="translate(-480.096 -623.5)" fill="#fff"/>
    <path id="Path_54995" data-name="Path 54995" d="M525.25,627.932a6,6,0,0,1-6.013,6.036,6.162,6.162,0,0,1-6.172-6.178,6.228,6.228,0,0,1,6.082-6.052A6.019,6.019,0,0,1,525.25,627.932Z" transform="translate(-483.727 -621.728)" fill="#fff"/>
    <path id="Path_54996" data-name="Path 54996" d="M487.113,633.961a6.118,6.118,0,0,1-.149-12.235,6.25,6.25,0,0,1,6.2,5.941A6.163,6.163,0,0,1,487.113,633.961Z" transform="translate(-476.476 -621.725)" fill="#fff"/>
  </g>
</svg>
