<svg xmlns="http://www.w3.org/2000/svg" width="33.183" height="40.805" viewBox="0 0 33.183 40.805">
  <g id="Group_52739" data-name="Group 52739" transform="translate(0 0)">
    <path id="Path_54997" data-name="Path 54997" d="M426.816,430.26c-.181.01-.323.024-.466.024-1.78,0-3.56,0-5.339.01-.3,0-.422-.072-.419-.4.016-1.487,0-2.975.013-4.463a1.266,1.266,0,0,1,.14-.526,5.967,5.967,0,0,0,.033-5.451,5.747,5.747,0,0,0-2.268-2.447,6,6,0,0,0-8.489,7.758,2.282,2.282,0,0,1,.206.909c.021,1.368.009,2.736.008,4.1v.475c-.173.013-.314.032-.454.032q-3.447,0-6.894,0c-.467,0-.468,0-.468-.46,0-1.634.007-3.268,0-4.9a.881.881,0,0,1,.295-.7c.771-.75,1.526-1.516,2.285-2.278a4.85,4.85,0,0,0-2.241-8.225c-.29-.074-.338-.216-.337-.475q.01-3.566,0-7.133c0-.528,0-.528-.514-.528H395.93a1.7,1.7,0,0,1-1.9-1.893q0-3.208,0-6.416a4.95,4.95,0,0,1,4.99-5.029q11.058-.021,22.115,0a5.52,5.52,0,0,1,5.533,4.329,5.719,5.719,0,0,1,.134,1.224q.013,9.165.007,18.33,0,6.771,0,13.541Zm-24.5-26.6a2.8,2.8,0,0,0,.032-.283q0-4.1,0-8.208a.9.9,0,0,0-.966-.985c-.743-.018-1.487-.01-2.231-.006a3.03,3.03,0,0,0-3.2,3.2q-.006,2.789,0,5.578c0,.6.127.725.726.725q2.61,0,5.22,0C402.025,403.677,402.155,403.664,402.319,403.655Zm12.575,4.773h-5.976c-.81,0-1.62,0-2.43,0-.535,0-.632.1-.636.622,0,.279,0,.558,0,.837,0,.7.049.749.745.749h16.613c.573,0,.653-.081.655-.639,0-.292,0-.584,0-.877,0-.617-.073-.692-.682-.692Zm-.054-9.516h5.7c.93,0,1.859,0,2.789,0,.413,0,.528-.116.534-.515s.005-.823,0-1.235a.409.409,0,0,0-.44-.454c-.133,0-.265,0-.4,0H406.648c-.066,0-.133,0-.2,0-.482.009-.591.113-.6.582,0,.305,0,.611,0,.916,0,.648.058.709.7.71Q410.7,398.913,414.84,398.911Zm.042,5.869h5.258q1.534,0,3.068,0c.585,0,.653-.076.654-.678,0-.265,0-.531,0-.8,0-.67-.059-.731-.722-.731H410.432c-1.341,0-2.682,0-4.024,0-.435,0-.543.109-.554.538-.008.305,0,.611,0,.916,0,.693.059.755.743.755Q410.739,404.781,414.882,404.78Z" transform="translate(-393.633 -392.239)" fill="#fff"/>
    <path id="Path_54998" data-name="Path 54998" d="M453.462,484.922c-.2-.122-.318-.192-.433-.272-.852-.589-1.709-1.171-2.551-1.774a.432.432,0,0,0-.593.008c-.867.61-1.75,1.2-2.629,1.792-.085.057-.178.1-.319.182-.013-.24-.031-.433-.032-.626q0-3.646,0-7.292a1.421,1.421,0,0,0-.212-.785,4.1,4.1,0,0,1,6.217-5.2,4.131,4.131,0,0,1,.76,5.232,1.437,1.437,0,0,0-.2.7c-.014,2.5-.009,4.994-.009,7.491Zm-3.268-8.521a2.389,2.389,0,1,0-.037-4.779,2.389,2.389,0,0,0,.037,4.779Z" transform="translate(-428.4 -444.116)" fill="#fff"/>
    <path id="Path_54999" data-name="Path 54999" d="M398.355,462.967c.118-.108.177-.156.229-.212a3.094,3.094,0,0,1,4.554,4.188c-1.008,1.074-2.076,2.091-3.113,3.137-.522.526-1.034,1.063-1.578,1.622-.161-.149-.278-.25-.387-.359-1.437-1.435-2.886-2.858-4.3-4.312a2.877,2.877,0,0,1-.7-3.23,3.077,3.077,0,0,1,5.143-1.081A1.555,1.555,0,0,1,398.355,462.967Z" transform="translate(-392.829 -438.667)" fill="#fff"/>
  </g>
</svg>
