<svg xmlns="http://www.w3.org/2000/svg" width="37.54" height="32.247" viewBox="0 0 37.54 32.247">
  <g id="Group_52735" data-name="Group 52735" transform="translate(0)">
    <path id="Path_54987" data-name="Path 54987" d="M889.306,472.248q0,6.111,0,12.222a3.559,3.559,0,0,1-3.8,3.833q-6.922.022-13.845,0a3.541,3.541,0,0,1-3.784-3.754q-.017-12.366,0-24.731a3.531,3.531,0,0,1,3.705-3.735q7.018-.032,14.036,0a3.537,3.537,0,0,1,3.686,3.751C889.313,463.973,889.306,468.111,889.306,472.248Zm-10.7,12.453a7.155,7.155,0,1,0-7.2-7.19A7.173,7.173,0,0,0,878.609,484.7Zm.014-25.018a3.572,3.572,0,0,0-3.644,3.5,3.605,3.605,0,1,0,7.21.072A3.561,3.561,0,0,0,878.623,459.683Z" transform="translate(-867.867 -456.067)" fill="#fff"/>
    <path id="Path_54988" data-name="Path 54988" d="M1026.8,499.981l-2.422-2.487a14.187,14.187,0,0,0,4.113-10.066,14.032,14.032,0,0,0-4.085-10.068l2.382-2.491C1033.457,481,1034.078,492.937,1026.8,499.981Z" transform="translate(-994.487 -471.278)" fill="#fff"/>
    <path id="Path_54989" data-name="Path 54989" d="M1000.137,516.958l-2.471-2.441a7.383,7.383,0,0,0,2.048-5.069,7.249,7.249,0,0,0-2.035-5.043l2.576-2.3C1003.921,505.217,1004.7,512.534,1000.137,516.958Z" transform="translate(-972.877 -493.317)" fill="#fff"/>
    <path id="Path_54990" data-name="Path 54990" d="M908.857,557.059a3.556,3.556,0,0,1,0-7.112,3.556,3.556,0,1,1,0,7.112Z" transform="translate(-898.163 -532.017)" fill="#fff"/>
  </g>
</svg>
