<svg xmlns="http://www.w3.org/2000/svg" width="38.35" height="43.799" viewBox="0 0 38.35 43.799">
  <g id="Group_52738" data-name="Group 52738" transform="translate(0)">
    <path id="Path_54777" data-name="Path 54777" d="M1531.474,333.039c-1.075,0-2.042.007-3.011,0-.881-.008-1.045-.168-1.045-1.056q0-18.1,0-36.2c0-.933.154-1.081,1.089-1.081q9.854,0,19.708,0c.928,0,1.063.139,1.063,1.1q0,9.665,0,19.331,0,8.319,0,16.638c0,1.078-.005,1.087-1.019,1.426q-7.715,2.578-15.43,5.151c-1.021.34-1.307.13-1.31-.963,0-1.144,0-2.289,0-3.433C1531.513,333.684,1531.491,333.417,1531.474,333.039Zm.04-1.344V314.551q0-6.57,0-13.14c0-1.034.011-1.056.982-1.38q5.489-1.831,10.979-3.656a3.235,3.235,0,0,0,.408-.2,1.516,1.516,0,0,0-.684-.138q-6.795,0-13.591,0c-.124,0-.249.008-.373,0-.35-.014-.5.162-.486.5.006.2,0,.4,0,.6q0,11.64,0,23.28,0,5.114,0,10.228a2.333,2.333,0,0,0,.024.667c.046.15.225.361.354.367C1529.886,331.713,1530.651,331.7,1531.514,331.7Z" transform="translate(-1510.928 -294.698)" fill="#fff"/>
    <path id="Path_54778" data-name="Path 54778" d="M1431.216,301.6a6.828,6.828,0,1,1-6.773-6.886A6.864,6.864,0,0,1,1431.216,301.6Zm-6.673-1.031c-.616-.81-1.1-1.459-1.6-2.1a.694.694,0,1,0-1.123.807c.645.881,1.293,1.761,1.969,2.617a.688.688,0,0,0,1.15.08c.544-.507,1.057-1.049,1.581-1.578a.7.7,0,1,0-1-.951C1425.2,299.779,1424.908,300.142,1424.543,300.566Z" transform="translate(-1417.515 -294.709)" fill="#fff"/>
    <path id="Path_54779" data-name="Path 54779" d="M1428.254,402.42c-1.3,0-2.463,0-3.626,0-1.041-.005-2.081-.025-3.122-.034-1.166-.01-2.333-.032-3.5-.012a.643.643,0,0,1-.746-.641c-.041-.43.273-.642.645-.675.59-.052,1.186-.045,1.778-.052q1.818-.021,3.635-.029c1.791-.01,3.583-.03,5.373-.016.526,0,.876.311.96.965.386-.5.722-.888,1.006-1.315a.605.605,0,0,0,.016-.528c-.282-.487-.614-.946-.962-1.467-.3.954-.339.991-1.281.992q-4.988,0-9.976,0h-.224c-.459,0-.869-.077-.906-.646-.029-.449.289-.688.941-.689q4.443-.009,8.885,0h.915c.32-.441.139-.925.185-1.372.049-.472-.175-1.077.46-1.289.687-.229.879.409,1.16.816.72,1.044,1.394,2.121,2.13,3.153a1.191,1.191,0,0,1,.039,1.507q-1.1,1.638-2.193,3.278a.791.791,0,0,1-.243.277c-.311.161-.657.44-.953.4-.467-.062-.385-.563-.394-.926C1428.244,403.573,1428.254,403.031,1428.254,402.42Z" transform="translate(-1417.257 -380.464)" fill="#329a56"/>
    <path id="Path_54780" data-name="Path 54780" d="M1420.573,475.058c.336-.942.383-.981,1.258-.982q5.04,0,10.08,0c.2,0,.453-.048.582.053a1.116,1.116,0,0,1,.455.662c.011.186-.256.459-.465.567a1.725,1.725,0,0,1-.734.052q-4.368,0-8.736,0h-.964c0,.465,0,.873,0,1.282a2.7,2.7,0,0,1-.032.814.934.934,0,0,1-.477.57.8.8,0,0,1-.7-.239c-.941-1.345-1.859-2.708-2.729-4.1a1.027,1.027,0,0,1,.092-.883c.808-1.285,1.665-2.538,2.507-3.8.2-.3.488-.62.844-.4a1.376,1.376,0,0,1,.473.822,5.517,5.517,0,0,1,.023,1.116c.01.746.011.755.746.756q4.331.006,8.661,0l.747,0c.422,0,.756.153.772.621.017.506-.33.681-.78.7-.149.008-.3,0-.448,0q-4.891,0-9.781,0c-1,0-1.024-.021-1.413-.969-.327.5-.649.932-.9,1.4a.735.735,0,0,0,.045.6C1419.932,474.149,1420.231,474.547,1420.573,475.058Z" transform="translate(-1417.924 -442.557)" fill="#d94f4f"/>
  </g>
</svg>
