<svg xmlns="http://www.w3.org/2000/svg" width="356.579" height="62.53" viewBox="0 0 356.579 62.53">
  <g id="Logo_FabricaDev" data-name="Logo FabricaDev" transform="translate(-95.71 -240.35)">
    <g id="Group_54747" data-name="Group 54747" transform="translate(95.71 240.635)">
      <path id="Path_56321" data-name="Path 56321" d="M114.862,303.115v-38.3H95.71v-4.788h19.152V240.87H138.8v4.794H119.65v14.359H138.8v4.788H119.65v38.3Z" transform="translate(-95.71 -240.87)" fill="#6169b1"/>
      <path id="Path_56322" data-name="Path 56322" d="M95.71,255.234v-4.783h9.576V240.87h4.788v14.364Z" transform="translate(-95.71 -240.87)" fill="#9698cb"/>
      <rect id="Rectangle_18591" data-name="Rectangle 18591" width="4.788" height="4.788" transform="translate(0 0.005)" fill="#d6d6ec"/>
      <path id="Path_56323" data-name="Path 56323" d="M105.291,326.767V298.038H95.72V293.25h14.359v33.517Z" transform="translate(-95.715 -264.521)" fill="#9698cb"/>
      <rect id="Rectangle_18592" data-name="Rectangle 18592" width="4.788" height="23.94" transform="translate(0 38.305)" fill="#d6d6ec"/>
      <path id="Path_56324" data-name="Path 56324" d="M148.09,303.115V269.6h19.152V255.234H148.09v-4.783h19.152V240.87h4.788v33.517H152.878v28.729Z" transform="translate(-119.361 -240.87)" fill="#7b7fbd"/>
      <path id="Path_56325" data-name="Path 56325" d="M165.55,303.115v-23.94H184.7v-38.3h4.788v43.093H170.338v19.152Z" transform="translate(-127.245 -240.87)" fill="#9698cb"/>
      <path id="Path_56326" data-name="Path 56326" d="M183.01,342.534V328.17h14.364v4.788H187.8v9.576Z" transform="translate(-135.129 -280.289)" fill="#b5b5db"/>
      <rect id="Rectangle_18593" data-name="Rectangle 18593" width="4.788" height="4.788" transform="translate(57.457 57.457)" fill="#d6d6ec"/>
    </g>
    <g id="Group_54748" data-name="Group 54748" transform="translate(170.323 287.172)">
      <path id="Path_56327" data-name="Path 56327" d="M241.5,327.519h-7.942v4.92h7.317v1.8h-7.317v4.892H241.5v1.8H231.75V325.72H241.5Z" transform="translate(-231.75 -325.72)" fill="#60c3ad"/>
      <path id="Path_56328" data-name="Path 56328" d="M256.314,342.761h.132l.45-2.21,2.572-7.36h1.826L257.367,344.3h-2.04L251.4,333.19h1.826l2.594,7.382Z" transform="translate(-240.623 -329.093)" fill="#60c3ad"/>
      <path id="Path_56329" data-name="Path 56329" d="M273.308,340.7c-.022,1.349,1.267,1.991,2.578,1.991a2.707,2.707,0,0,0,2.534-1.525l1.547.773a4.465,4.465,0,0,1-4.075,2.446c-2.145,0-4.311-1.223-4.311-3.686v-4.207c0-2.49,2.166-3.691,4.311-3.691,2.106,0,4.251,1.2,4.251,3.691v2.978h-6.823V340.7Zm2.578-6.2c-1.311,0-2.594.647-2.578,2v1.541H278.5v-1.585c0-1.311-1.355-1.953-2.616-1.953" transform="translate(-249.735 -328.917)" fill="#60c3ad"/>
      <path id="Path_56330" data-name="Path 56330" d="M291.56,334.111a13.76,13.76,0,0,1,4.333-.921c2.106.044,4.185,1.179,4.185,3.647V344.3h-1.695v-7.465c0-1.355-1.289-2-2.49-2a7.874,7.874,0,0,0-2.616.494V344.3H291.56Z" transform="translate(-258.756 -329.093)" fill="#60c3ad"/>
      <path id="Path_56331" data-name="Path 56331" d="M326.917,340.929c-2.594.346-4.547-1.113-4.547-3.6V325.72h1.695v4.1h2.276v1.717h-2.276v5.792a2.221,2.221,0,0,0,2.852,2.123Z" transform="translate(-272.668 -325.72)" fill="#60c3ad"/>
      <path id="Path_56332" data-name="Path 56332" d="M335.822,326.145v4.5a5.45,5.45,0,0,1,2.556-.642c2.145-.044,4.267,1.289,4.267,3.691v7.426H340.95v-7.448c0-1.311-1.289-1.931-2.556-1.953a6.741,6.741,0,0,0-2.578.472v8.924H334.1V326.14h1.722Z" transform="translate(-277.965 -325.91)" fill="#60c3ad"/>
      <path id="Path_56333" data-name="Path 56333" d="M356.018,340.7c-.022,1.349,1.267,1.991,2.578,1.991a2.712,2.712,0,0,0,2.534-1.525l1.547.773a4.465,4.465,0,0,1-4.075,2.446c-2.144,0-4.311-1.223-4.311-3.686v-4.207c0-2.49,2.166-3.691,4.311-3.691,2.1,0,4.245,1.2,4.245,3.691v2.978h-6.823V340.7Zm2.578-6.2c-1.311,0-2.594.647-2.578,2v1.541h5.194v-1.585c0-1.311-1.355-1.953-2.616-1.953" transform="translate(-287.081 -328.917)" fill="#60c3ad"/>
      <path id="Path_56334" data-name="Path 56334" d="M383.854,341.2a3.653,3.653,0,0,0,3.176,1.541c1-.022,2.079-.516,2.057-1.651,0-1.207-1.2-1.5-2.21-1.7h.022c-1.826-.324-3.905-.878-3.905-3.258,0-2.342,2.21-3.219,4.037-3.219a4.83,4.83,0,0,1,3.346,1.333l-1.113,1.305a3,3,0,0,0-2.232-.965c-.965,0-2.342.3-2.342,1.547.022,1.135,1.547,1.437,2.507,1.607,1.739.324,3.565,1.1,3.581,3.351,0,2.21-1.843,3.176-3.752,3.219a4.869,4.869,0,0,1-4.464-2.315Z" transform="translate(-299.846 -328.967)" fill="#60c3ad"/>
      <path id="Path_56335" data-name="Path 56335" d="M401.32,334.279a8.357,8.357,0,0,1,3.779-1.009,4.642,4.642,0,0,1,3.346,1.267,4.514,4.514,0,0,1,3.049-1.223c2.276-.088,4.245,1.119,4.245,3.669v7.4h-1.717v-7.36c.022-1.563-1.2-2.04-2.468-2.018-1.009.022-2.254.559-2.254,1.613v7.766h-1.673v-7.766c0-1.953-3.411-2.062-4.591-1.223v8.989H401.32Z" transform="translate(-308.317 -329.129)" fill="#60c3ad"/>
      <path id="Path_56336" data-name="Path 56336" d="M435.8,334.593a3.361,3.361,0,0,0-2.638,1.2l-1.179-1.135a5.436,5.436,0,0,1,3.949-1.739c2.123,0,4.207,1.179,4.207,3.581v7.185a13.434,13.434,0,0,1-4.591.751,3.741,3.741,0,0,1-3.971-3.839c.022-2.66,2.172-3.581,4.421-3.581a4.952,4.952,0,0,1,2.424.642V336.5c0-1.289-1.289-1.909-2.622-1.909m2.622,4.525a7.9,7.9,0,0,0-2.49-.45c-1.393,0-2.638.346-2.66,1.931a2.223,2.223,0,0,0,2.315,2.315,12.527,12.527,0,0,0,2.83-.214v-3.581Z" transform="translate(-321.98 -328.971)" fill="#60c3ad"/>
      <path id="Path_56337" data-name="Path 56337" d="M455.629,341.193c-2.424,0-3.779-1.355-3.779-3.625V326.11h1.717v11.457c0,1.223.642,1.909,2.062,1.909Z" transform="translate(-331.133 -325.896)" fill="#60c3ad"/>
      <path id="Path_56338" data-name="Path 56338" d="M465.1,341.193c-2.424,0-3.779-1.355-3.779-3.625V326.11h1.717v11.457c0,1.223.647,1.909,2.062,1.909Z" transform="translate(-335.409 -325.896)" fill="#60c3ad"/>
      <path id="Path_56339" data-name="Path 56339" d="M472.459,340.7c-.022,1.349,1.267,1.991,2.572,1.991a2.707,2.707,0,0,0,2.534-1.525l1.547.773a4.468,4.468,0,0,1-4.081,2.446c-2.145,0-4.311-1.223-4.311-3.686v-4.207c0-2.49,2.166-3.691,4.311-3.691,2.106,0,4.251,1.2,4.251,3.691v2.978h-6.823Zm2.572-6.2c-1.311,0-2.594.647-2.572,2v1.541h5.194v-1.585c0-1.311-1.349-1.953-2.622-1.953" transform="translate(-339.654 -328.917)" fill="#60c3ad"/>
      <path id="Path_56340" data-name="Path 56340" d="M490.129,341.2a3.653,3.653,0,0,0,3.176,1.541c1.009-.022,2.079-.516,2.057-1.651,0-1.207-1.2-1.5-2.21-1.7h.022c-1.821-.324-3.905-.878-3.905-3.258,0-2.342,2.21-3.219,4.037-3.219a4.83,4.83,0,0,1,3.346,1.333l-1.113,1.305a3,3,0,0,0-2.232-.965c-.965,0-2.336.3-2.336,1.547.022,1.135,1.547,1.437,2.507,1.607,1.739.324,3.565,1.1,3.581,3.351,0,2.21-1.843,3.176-3.751,3.219a4.869,4.869,0,0,1-4.465-2.315Z" transform="translate(-347.835 -328.967)" fill="#60c3ad"/>
      <path id="Path_56341" data-name="Path 56341" d="M511.747,340.929c-2.594.346-4.547-1.113-4.547-3.6V325.72h1.695v4.1h2.276v1.717h-2.276v5.792a2.219,2.219,0,0,0,2.852,2.123Z" transform="translate(-356.126 -325.72)" fill="#60c3ad"/>
      <path id="Path_56342" data-name="Path 56342" d="M536.435,340.559a13.758,13.758,0,0,1-4.355.8c-2.123-.044-4.251-1.223-4.251-3.686v-4.163c0-2.4,2.144-3.713,4.289-3.713a4.028,4.028,0,0,1,2.6.686v-4.4h1.717Zm-1.717-1.053V332.02a7.562,7.562,0,0,0-2.6-.516c-1.289.022-2.572.669-2.55,2v4.2a2.309,2.309,0,0,0,2.512,2.123,8.988,8.988,0,0,0,2.638-.318" transform="translate(-365.441 -325.883)" fill="#60c3ad"/>
      <path id="Path_56343" data-name="Path 56343" d="M549.529,340.7c-.022,1.349,1.267,1.991,2.572,1.991a2.707,2.707,0,0,0,2.534-1.525l1.547.773a4.468,4.468,0,0,1-4.081,2.446c-2.144,0-4.311-1.223-4.311-3.686v-4.207c0-2.49,2.166-3.691,4.311-3.691,2.106,0,4.251,1.2,4.251,3.691v2.978h-6.823Zm2.572-6.2c-1.311,0-2.594.647-2.572,2v1.541h5.194v-1.585c0-1.311-1.349-1.953-2.622-1.953" transform="translate(-374.453 -328.917)" fill="#60c3ad"/>
      <path id="Path_56344" data-name="Path 56344" d="M572.147,340.929c-2.594.346-4.547-1.113-4.547-3.6V325.72h1.695v4.1h2.276v1.717h-2.276v5.792a2.219,2.219,0,0,0,2.852,2.123Z" transform="translate(-383.398 -325.72)" fill="#60c3ad"/>
      <path id="Path_56345" data-name="Path 56345" d="M582.243,334.593a3.361,3.361,0,0,0-2.638,1.2l-1.179-1.135a5.436,5.436,0,0,1,3.949-1.739c2.123,0,4.207,1.179,4.207,3.581v7.185a13.434,13.434,0,0,1-4.591.751,3.74,3.74,0,0,1-3.971-3.839c.022-2.66,2.172-3.581,4.421-3.581a4.952,4.952,0,0,1,2.424.642V336.5c-.005-1.289-1.294-1.909-2.622-1.909m2.616,4.525a7.9,7.9,0,0,0-2.49-.45c-1.393,0-2.638.346-2.66,1.931a2.223,2.223,0,0,0,2.315,2.315,12.527,12.527,0,0,0,2.83-.214v-3.581Z" transform="translate(-388.103 -328.971)" fill="#60c3ad"/>
      <path id="Path_56346" data-name="Path 56346" d="M599.411,325.88a1.174,1.174,0,0,1,1.2,1.2,1.187,1.187,0,0,1-1.2,1.2,1.2,1.2,0,0,1-1.2-1.2,1.184,1.184,0,0,1,1.2-1.2M598.594,341h1.717V329.823h-1.717Z" transform="translate(-397.22 -325.792)" fill="#60c3ad"/>
      <path id="Path_56347" data-name="Path 56347" d="M611.3,341.193c-2.424,0-3.779-1.355-3.779-3.625V326.11h1.717v11.457c0,1.223.642,1.909,2.062,1.909Z" transform="translate(-401.424 -325.896)" fill="#60c3ad"/>
      <path id="Path_56348" data-name="Path 56348" d="M616.874,341.2a3.653,3.653,0,0,0,3.176,1.541c1-.022,2.079-.516,2.057-1.651,0-1.207-1.2-1.5-2.21-1.7h.022c-1.821-.324-3.905-.878-3.905-3.258,0-2.342,2.21-3.219,4.031-3.219a4.83,4.83,0,0,1,3.346,1.333l-1.113,1.305a3,3,0,0,0-2.232-.965c-.965,0-2.336.3-2.336,1.547.022,1.135,1.541,1.437,2.506,1.607,1.739.324,3.565,1.1,3.581,3.351,0,2.21-1.843,3.176-3.751,3.219a4.869,4.869,0,0,1-4.464-2.315Z" transform="translate(-405.063 -328.967)" fill="#60c3ad"/>
      <path id="Path_56349" data-name="Path 56349" d="M644.52,334.279a8.358,8.358,0,0,1,3.779-1.009,4.642,4.642,0,0,1,3.346,1.267,4.514,4.514,0,0,1,3.049-1.223c2.276-.088,4.245,1.119,4.245,3.669v7.4h-1.717v-7.36c.022-1.563-1.2-2.04-2.468-2.018-1.009.022-2.254.559-2.254,1.613v7.766h-1.673v-7.766c0-1.953-3.411-2.062-4.591-1.223v8.989H644.52Z" transform="translate(-418.13 -329.129)" fill="#60c3ad"/>
      <path id="Path_56350" data-name="Path 56350" d="M679,334.593a3.362,3.362,0,0,0-2.638,1.2l-1.179-1.135a5.435,5.435,0,0,1,3.949-1.739c2.122,0,4.207,1.179,4.207,3.581v7.185a13.434,13.434,0,0,1-4.591.751,3.74,3.74,0,0,1-3.971-3.839c.022-2.66,2.166-3.581,4.421-3.581a4.936,4.936,0,0,1,2.424.642V336.5c-.005-1.289-1.289-1.909-2.622-1.909m2.616,4.525a7.9,7.9,0,0,0-2.49-.45c-1.393,0-2.638.346-2.66,1.931a2.223,2.223,0,0,0,2.315,2.315,12.527,12.527,0,0,0,2.83-.214v-3.581Z" transform="translate(-431.794 -328.971)" fill="#60c3ad"/>
      <path id="Path_56351" data-name="Path 56351" d="M699.837,340.929c-2.594.346-4.547-1.113-4.547-3.6V325.72h1.695v4.1h2.276v1.717h-2.276v5.792a2.219,2.219,0,0,0,2.852,2.123Z" transform="translate(-441.055 -325.72)" fill="#60c3ad"/>
      <path id="Path_56352" data-name="Path 56352" d="M711.027,340.929c-2.594.346-4.547-1.113-4.547-3.6V325.72h1.695v4.1h2.276v1.717h-2.276v5.792a2.218,2.218,0,0,0,2.852,2.123v1.481Z" transform="translate(-446.108 -325.72)" fill="#60c3ad"/>
      <path id="Path_56353" data-name="Path 56353" d="M718.629,340.7c-.022,1.349,1.267,1.991,2.572,1.991a2.707,2.707,0,0,0,2.534-1.525l1.547.773a4.468,4.468,0,0,1-4.081,2.446c-2.145,0-4.311-1.223-4.311-3.686v-4.207c0-2.49,2.166-3.691,4.311-3.691,2.106,0,4.251,1.2,4.251,3.691v2.978h-6.823Zm2.572-6.2c-1.311,0-2.594.647-2.572,2v1.541h5.194v-1.585c0-1.311-1.355-1.953-2.622-1.953" transform="translate(-450.808 -328.917)" fill="#60c3ad"/>
      <path id="Path_56354" data-name="Path 56354" d="M741.628,333.074v1.761a3.31,3.31,0,0,0-1.695-.044,2.082,2.082,0,0,0-1.717,1.909v7.508H736.5V336.7a3.64,3.64,0,0,1,3.176-3.6,4.678,4.678,0,0,1,1.953-.022" transform="translate(-459.663 -328.999)" fill="#60c3ad"/>
    </g>
    <g id="Group_54749" data-name="Group 54749" transform="translate(170.4 240.35)">
      <path id="Path_56355" data-name="Path 56355" d="M254.8,247.8H238.971v7.459h13.871V262.2H238.971v12.631H231.89V240.96H254.8Z" transform="translate(-231.89 -240.625)" fill="#6169b1"/>
      <path id="Path_56356" data-name="Path 56356" d="M278.9,240.96h6.746L297.8,274.828h-7.366l-2.967-7.75h-10.1c-1.053,2.868-1.722,4.739-2.825,7.75H267.04Zm3.11,7.465-.954,4.881-1.914,7.317h6.5l-2.15-7.366-.954-4.832Z" transform="translate(-247.761 -240.625)" fill="#6169b1"/>
      <path id="Path_56357" data-name="Path 56357" d="M348.469,256.754c4.212,2.057,5.024,6.028,4.547,9.423-.62,4.547-3.921,8.611-11.721,8.611H327.66V240.87h13.393c5.836,0,10.618,3.395,10.618,9.949a6.957,6.957,0,0,1-3.2,5.934m-7.415-2.578c4.783,0,5.358-6.412,0-6.412h-6.362v6.412Zm-6.362,6.022v7.75h6.362c6.6,0,6.7-7.75,0-7.75Z" transform="translate(-275.134 -240.585)" fill="#6169b1"/>
      <path id="Path_56358" data-name="Path 56358" d="M409.566,274.838h-8.66l-9.615-12.39H388.8v12.39H381.72V240.97h13.35c6.8,0,11.913,3.11,12.1,10.81,0,6.22-2.819,9.231-7.7,10.19Zm-14.5-18.8c3.11,0,5.073-1.245,5.073-4.212,0-2.868-2.106-3.872-5.073-3.779H388.8v7.991Z" transform="translate(-299.544 -240.63)" fill="#6169b1"/>
      <rect id="Rectangle_18594" data-name="Rectangle 18594" width="7.031" height="33.868" transform="translate(111.459 0.335)" fill="#6169b1"/>
      <path id="Path_56359" data-name="Path 56359" d="M481.826,267.812a14.439,14.439,0,0,1-12.2,7.081c-6.554,0-13.158-3.779-13.158-11.244V251.594c0-7.415,6.6-11.243,13.3-11.243a12.837,12.837,0,0,1,11.77,7.273l-5.644,3.06c-2.918-5.55-12.439-4.355-12.439.91v12.055c0,5.216,9.423,6.313,12.291.762Z" transform="translate(-333.296 -240.35)" fill="#6169b1"/>
      <path id="Path_56360" data-name="Path 56360" d="M515.008,240.96h6.746l12.154,33.868h-7.366l-2.967-7.75H513.483c-1.053,2.868-1.722,4.739-2.825,7.75H503.15Zm3.11,7.465-.96,4.881-1.914,7.317h6.5l-2.15-7.366-.954-4.832Z" transform="translate(-354.374 -240.625)" fill="#6169b1"/>
      <path id="Path_56361" data-name="Path 56361" d="M584.25,274.845v-34.3h12.6c6.779,0,13.075,3.39,13.075,11.139V263.9c0,7.7-6.3,10.947-13.075,10.947Zm12.6-7.168c3.1,0,5.907-1.015,5.907-3.779V251.689c0-2.808-2.808-3.971-5.907-3.971h-5.474v19.953h5.474Z" transform="translate(-390.993 -240.44)" fill="#6169b1"/>
      <path id="Path_56362" data-name="Path 56362" d="M663.079,247.436H647v6.73h14.776v6.927H647v6.785h16.081V274.8H639.83V240.46h23.249Z" transform="translate(-416.09 -240.4)" fill="#6169b1"/>
      <path id="Path_56363" data-name="Path 56363" d="M703.992,266.567l1.305-7.07,6.735-19.037h7.6l-12.4,34.3h-6.883l-12.4-34.3h7.6l6.494,19.037,1.4,7.07Z" transform="translate(-437.822 -240.4)" fill="#6169b1"/>
    </g>
  </g>
</svg>
