<svg xmlns="http://www.w3.org/2000/svg" width="383.957" height="88.266" viewBox="0 0 383.957 88.266">
  <g id="Logo_FabricaCS" data-name="Logo FabricaCS" transform="translate(-2.72 -0.51)">
    <g id="XMLID_232_" transform="translate(2.72 0.51)">
      <g id="XMLID_104_">
        <g id="XMLID_105_">
          <g id="XMLID_106_">
            <path id="XMLID_115_" d="M29.875,88.776V34.465H2.72v-6.8H29.875V.51H63.831v6.8H36.675V27.665H63.831v6.8H36.675V88.776Z" transform="translate(-2.72 -0.51)" fill="#886a48"/>
            <path id="XMLID_114_" d="M2.72,20.887v-6.8H16.3V.51h6.8V20.887Z" transform="translate(-2.72 -0.51)" fill="#c7ac7f"/>
            <rect id="XMLID_113_" width="6.8" height="6.8" fill="#e7d8bb"/>
            <path id="XMLID_112_" d="M16.3,66.793V26.06H2.72v-6.8H23.1V66.793Z" transform="translate(-2.72 21.473)" fill="#c7ac7f"/>
            <rect id="XMLID_111_" width="6.8" height="33.955" transform="translate(0 54.311)" fill="#e7d8bb"/>
            <path id="XMLID_110_" d="M21.48,88.776V41.243H48.635V20.887H21.48v-6.8H48.635V.51h6.778V48.043H28.258V88.776Z" transform="translate(19.275 -0.51)" fill="#b29769"/>
            <path id="XMLID_109_" d="M27.73,88.776V54.821H54.885V.51h6.778V61.621H34.508V88.776Z" transform="translate(26.603 -0.51)" fill="#bda56c"/>
            <path id="XMLID_108_" d="M33.98,52.137V31.76H54.336v6.8H40.758V52.137Z" transform="translate(33.93 36.129)" fill="#c8b06e"/>
            <rect id="XMLID_107_" width="6.8" height="6.8" transform="translate(81.488 81.466)" fill="#e7d8bb"/>
          </g>
        </g>
      </g>
    </g>
    <g id="XMLID_1_" transform="translate(109.213 12.35)">
      <g id="XMLID_127_">
        <path id="XMLID_149_" d="M70.879,11.864H57.649V18.1h11.6v5.8h-11.6V34.457H51.74V6.15H70.879Z" transform="translate(-51.74 -5.737)" fill="#886a48"/>
        <path id="XMLID_146_" d="M69.078,6.15H74.7L84.85,34.457H78.7l-2.477-6.474H67.8c-.869,2.39-1.434,3.954-2.368,6.474H59.15Zm2.585,6.235-.8,4.084L69.252,22.6h5.431l-1.8-6.148-.8-4.041h-.413Z" transform="translate(-43.052 -5.737)" fill="#886a48"/>
        <path id="XMLID_142_" d="M89.329,19.392c3.519,1.716,4.193,5.04,3.8,7.864-.521,3.8-3.28,7.191-9.8,7.191H71.95V6.14H83.138C88,6.14,92,8.986,92,14.46A5.78,5.78,0,0,1,89.329,19.392Zm-6.213-2.151c4,0,4.475-5.366,0-5.366H77.794v5.366Zm-5.3,5.04v6.474h5.322c5.518,0,5.6-6.474,0-6.474Z" transform="translate(-28.045 -5.749)" fill="#886a48"/>
        <path id="XMLID_139_" d="M106.617,34.457H99.383L91.345,24.094H89.259V34.457H83.35V6.15H94.495c5.67,0,9.95,2.607,10.124,9.037,0,5.192-2.368,7.712-6.43,8.516ZM94.495,18.75c2.607,0,4.236-1.043,4.236-3.519,0-2.39-1.76-3.237-4.236-3.15H89.259V18.75Z" transform="translate(-14.679 -5.737)" fill="#886a48"/>
        <path id="XMLID_137_" d="M94.61,6.15h5.866V34.457H94.61Z" transform="translate(-1.478 -5.737)" fill="#886a48"/>
        <path id="XMLID_135_" d="M120.3,28.971a12.058,12.058,0,0,1-10.189,5.909c-5.475,0-10.993-3.15-10.993-9.385V15.415c0-6.191,5.518-9.385,11.123-9.385a10.729,10.729,0,0,1,9.841,6.083l-4.736,2.542c-2.433-4.627-10.384-3.628-10.384.76V25.5c0,4.367,7.864,5.279,10.276.63Z" transform="translate(3.81 -5.878)" fill="#886a48"/>
        <path id="XMLID_132_" d="M118.878,6.15H124.5L134.65,34.457H128.5l-2.477-6.474H117.6c-.891,2.39-1.434,3.954-2.368,6.474H108.95Zm2.607,6.235-.8,4.084L119.074,22.6H124.5l-1.8-6.148-.8-4.041h-.413Z" transform="translate(15.335 -5.737)" fill="#886a48"/>
        <path id="XMLID_130_" d="M146.741,28.971a12.058,12.058,0,0,1-10.189,5.909c-5.475,0-10.993-3.15-10.993-9.385V15.415c0-6.191,5.518-9.385,11.1-9.385a10.729,10.729,0,0,1,9.841,6.083l-4.714,2.542c-2.433-4.627-10.384-3.628-10.384.76V25.5c0,4.367,7.886,5.279,10.276.63Z" transform="translate(34.809 -5.878)" fill="#886a48"/>
        <path id="XMLID_128_" d="M140.433,26.294c2.563,4.084,9.993,4.149,10.232.2.13-2.433-2.52-3-5.431-3.389-4.432-.673-9.037-2.759-8.95-8.994C136.61,8.741,141.52,5.96,146.6,5.96a11,11,0,0,1,9.559,5l-4.845,3.237a5.429,5.429,0,0,0-4.714-2.672c-2.238,0-4.193.847-4.323,2.8v.043c.043,2.325,2.39,2.629,4.866,3.15,4.91.912,9.711,2.716,9.428,9.385-.478,5.322-5.6,8.19-10.754,8.19A11.877,11.877,0,0,1,135.98,29.7Z" transform="translate(47.026 -5.96)" fill="#886a48"/>
      </g>
    </g>
    <g id="Group_54746" data-name="Group 54746" transform="translate(109.191 53.431)">
      <path id="Path_56293" data-name="Path 56293" d="M61.31,26.628H53.49v4.845H60.68v1.781H53.49v4.823H61.31v1.781H51.73V24.89h9.58Z" transform="translate(-51.73 -24.847)" fill="#b29769"/>
      <path id="Path_56294" data-name="Path 56294" d="M61.433,36.137h.13L62,33.964l2.542-7.234h1.8L62.476,37.679h-2L56.61,26.73h1.8l2.563,7.256Z" transform="translate(-46.008 -22.689)" fill="#b29769"/>
      <path id="Path_56295" data-name="Path 56295" d="M63.314,34.407c-.022,1.325,1.238,1.955,2.542,1.955a2.666,2.666,0,0,0,2.5-1.5l1.521.76a4.4,4.4,0,0,1-4.019,2.411c-2.107,0-4.236-1.195-4.236-3.628V30.258c0-2.455,2.129-3.628,4.236-3.628,2.064,0,4.171,1.173,4.171,3.628v2.933H63.314Zm2.542-6.1c-1.282,0-2.563.63-2.542,1.955v1.521H68.42V30.215C68.42,28.933,67.095,28.3,65.856,28.3Z" transform="translate(-40.135 -22.807)" fill="#b29769"/>
      <path id="Path_56296" data-name="Path 56296" d="M66.592,27.642a13.74,13.74,0,0,1,4.258-.912c2.064.043,4.128,1.173,4.128,3.585v7.343H73.3V30.315c0-1.325-1.26-1.955-2.455-1.955a8.314,8.314,0,0,0-2.585.478v8.82H66.57V27.642Z" transform="translate(-34.331 -22.689)" fill="#b29769"/>
      <path id="Path_56297" data-name="Path 56297" d="M78.715,39.838c-2.563.348-4.475-1.108-4.475-3.541V24.87h1.651v4.041h2.238v1.694H75.891V36.3a2.184,2.184,0,0,0,2.8,2.086v1.456Z" transform="translate(-25.338 -24.87)" fill="#b29769"/>
      <path id="Path_56298" data-name="Path 56298" d="M78.856,24.98v4.432a5.48,5.48,0,0,1,2.52-.63c2.107-.043,4.193,1.26,4.193,3.628v7.3H83.9V32.388c0-1.282-1.26-1.912-2.52-1.912a6.908,6.908,0,0,0-2.542.456v8.777H77.14V24.98h1.716Z" transform="translate(-21.938 -24.741)" fill="#b29769"/>
      <path id="Path_56299" data-name="Path 56299" d="M83.864,34.407c-.022,1.325,1.238,1.955,2.542,1.955a2.666,2.666,0,0,0,2.5-1.5l1.521.76a4.4,4.4,0,0,1-4.019,2.411c-2.107,0-4.236-1.195-4.236-3.628V30.258c0-2.455,2.129-3.628,4.236-3.628,2.064,0,4.171,1.173,4.171,3.628v2.933H83.864Zm2.542-6.1c-1.282,0-2.563.63-2.542,1.955v1.521H88.97V30.215C88.97,28.933,87.645,28.3,86.406,28.3Z" transform="translate(-16.041 -22.807)" fill="#b29769"/>
      <path id="Path_56300" data-name="Path 56300" d="M90.448,34.818a3.618,3.618,0,0,0,3.128,1.521c1-.022,2.042-.5,2.02-1.629,0-1.173-1.173-1.477-2.172-1.673h.022c-1.8-.326-3.845-.869-3.845-3.215,0-2.3,2.172-3.172,3.976-3.172a4.793,4.793,0,0,1,3.3,1.3l-1.086,1.282a2.957,2.957,0,0,0-2.194-.956c-.956,0-2.3.3-2.3,1.521.022,1.108,1.521,1.412,2.477,1.586,1.716.326,3.5,1.086,3.519,3.3,0,2.172-1.8,3.128-3.693,3.172a4.745,4.745,0,0,1-4.388-2.281Z" transform="translate(-7.787 -22.783)" fill="#b29769"/>
      <path id="Path_56301" data-name="Path 56301" d="M93.862,27.749a8.358,8.358,0,0,1,3.715-1,4.606,4.606,0,0,1,3.3,1.238,4.389,4.389,0,0,1,3-1.195c2.238-.087,4.171,1.108,4.171,3.606v7.278h-1.695V30.443c.022-1.542-1.173-2-2.433-1.977-1,.022-2.216.543-2.216,1.586V37.7h-1.651V30.052c0-1.912-3.346-2.02-4.519-1.195V37.7H93.84v-9.95Z" transform="translate(-2.359 -22.666)" fill="#b29769"/>
      <path id="Path_56302" data-name="Path 56302" d="M105.541,28.311a3.343,3.343,0,0,0-2.607,1.173l-1.173-1.108a5.348,5.348,0,0,1,3.889-1.716c2.086,0,4.149,1.151,4.149,3.519v7.082A13.388,13.388,0,0,1,105.28,38a3.684,3.684,0,0,1-3.91-3.78c.022-2.629,2.129-3.519,4.345-3.519a4.961,4.961,0,0,1,2.39.63V30.2C108.1,28.919,106.845,28.311,105.541,28.311Zm2.563,4.453a7.615,7.615,0,0,0-2.455-.434c-1.369,0-2.607.348-2.629,1.912a2.2,2.2,0,0,0,2.281,2.281,11.921,11.921,0,0,0,2.781-.217V32.765Z" transform="translate(6.47 -22.771)" fill="#b29769"/>
      <path id="Path_56303" data-name="Path 56303" d="M110.125,39.808c-2.39,0-3.715-1.325-3.715-3.563V24.97H108.1V36.245c0,1.195.63,1.89,2.02,1.89Z" transform="translate(12.379 -24.753)" fill="#b29769"/>
      <path id="Path_56304" data-name="Path 56304" d="M112.475,39.808c-2.39,0-3.715-1.325-3.715-3.563V24.97h1.694V36.245c0,1.195.63,1.89,2.02,1.89Z" transform="translate(15.134 -24.753)" fill="#b29769"/>
      <path id="Path_56305" data-name="Path 56305" d="M112.795,34.407c-.022,1.325,1.238,1.955,2.542,1.955a2.666,2.666,0,0,0,2.5-1.5l1.521.76a4.4,4.4,0,0,1-4.019,2.411c-2.107,0-4.236-1.195-4.236-3.628V30.258c0-2.455,2.129-3.628,4.236-3.628,2.064,0,4.171,1.173,4.171,3.628v2.933h-6.713Zm2.542-6.1c-1.282,0-2.563.63-2.542,1.955v1.521H117.9V30.215C117.921,28.933,116.575,28.3,115.336,28.3Z" transform="translate(17.878 -22.807)" fill="#b29769"/>
      <path id="Path_56306" data-name="Path 56306" d="M116.848,34.818a3.618,3.618,0,0,0,3.128,1.521c1-.022,2.042-.5,2.02-1.629,0-1.173-1.173-1.477-2.172-1.673h.022c-1.8-.326-3.845-.869-3.845-3.215,0-2.3,2.172-3.172,3.976-3.172a4.793,4.793,0,0,1,3.3,1.3l-1.086,1.282A2.957,2.957,0,0,0,120,28.279c-.956,0-2.3.3-2.3,1.521.022,1.108,1.521,1.412,2.477,1.586,1.716.326,3.5,1.086,3.519,3.3,0,2.172-1.8,3.128-3.693,3.172a4.745,4.745,0,0,1-4.388-2.281Z" transform="translate(23.165 -22.783)" fill="#b29769"/>
      <path id="Path_56307" data-name="Path 56307" d="M124.635,39.838c-2.563.348-4.475-1.108-4.475-3.541V24.87h1.673v4.041h2.238v1.694h-2.238V36.3a2.184,2.184,0,0,0,2.8,2.086Z" transform="translate(28.5 -24.87)" fill="#b29769"/>
      <path id="Path_56308" data-name="Path 56308" d="M133.741,39.211a13.727,13.727,0,0,1-4.28.782c-2.086-.043-4.171-1.195-4.171-3.628V32.259c0-2.368,2.107-3.65,4.215-3.65a3.978,3.978,0,0,1,2.563.673V24.96h1.694V39.211Zm-1.673-1.043V30.8a7.167,7.167,0,0,0-2.563-.5c-1.26.022-2.542.652-2.52,1.955v4.128a2.272,2.272,0,0,0,2.477,2.086A8.166,8.166,0,0,0,132.068,38.168Z" transform="translate(34.514 -24.764)" fill="#b29769"/>
      <path id="Path_56309" data-name="Path 56309" d="M131.945,34.407c-.022,1.325,1.238,1.955,2.542,1.955a2.666,2.666,0,0,0,2.5-1.5l1.521.76a4.4,4.4,0,0,1-4.019,2.411c-2.107,0-4.236-1.195-4.236-3.628V30.258c0-2.455,2.129-3.628,4.236-3.628,2.064,0,4.171,1.173,4.171,3.628v2.933h-6.713v1.217Zm2.542-6.1c-1.282,0-2.563.63-2.542,1.955v1.521h5.105V30.215C137.071,28.933,135.725,28.3,134.486,28.3Z" transform="translate(40.33 -22.807)" fill="#b29769"/>
      <path id="Path_56310" data-name="Path 56310" d="M139.645,39.838c-2.563.348-4.475-1.108-4.475-3.541V24.87h1.673v4.041h2.238v1.694h-2.238V36.3a2.184,2.184,0,0,0,2.8,2.086Z" transform="translate(46.098 -24.87)" fill="#b29769"/>
      <path id="Path_56311" data-name="Path 56311" d="M141.921,28.311a3.343,3.343,0,0,0-2.607,1.173l-1.173-1.108a5.348,5.348,0,0,1,3.889-1.716c2.086,0,4.149,1.151,4.149,3.519v7.082A13.389,13.389,0,0,1,141.66,38a3.684,3.684,0,0,1-3.91-3.78c.022-2.629,2.129-3.519,4.345-3.519a4.961,4.961,0,0,1,2.39.63V30.2C144.506,28.919,143.225,28.311,141.921,28.311Zm2.585,4.453a7.615,7.615,0,0,0-2.455-.434c-1.369,0-2.607.348-2.629,1.912a2.2,2.2,0,0,0,2.281,2.281,11.922,11.922,0,0,0,2.781-.217V32.765Z" transform="translate(49.123 -22.771)" fill="#b29769"/>
      <path id="Path_56312" data-name="Path 56312" d="M143.953,24.91a1.142,1.142,0,0,1,1.173,1.173,1.155,1.155,0,0,1-1.173,1.173,1.168,1.168,0,0,1-1.173-1.173A1.155,1.155,0,0,1,143.953,24.91Zm-.8,3.889V39.791h1.695V28.8Z" transform="translate(55.02 -24.823)" fill="#b29769"/>
      <path id="Path_56313" data-name="Path 56313" d="M148.8,39.808c-2.39,0-3.715-1.325-3.715-3.563V24.97h1.695V36.245c0,1.195.63,1.89,2.02,1.89v1.673Z" transform="translate(57.729 -24.753)" fill="#b29769"/>
      <path id="Path_56314" data-name="Path 56314" d="M148.338,34.818a3.618,3.618,0,0,0,3.128,1.521c1-.022,2.042-.5,2.02-1.629,0-1.173-1.173-1.477-2.172-1.673h.022c-1.8-.326-3.845-.869-3.845-3.215,0-2.3,2.172-3.172,3.976-3.172a4.793,4.793,0,0,1,3.3,1.3l-1.086,1.282a2.957,2.957,0,0,0-2.194-.956c-.956,0-2.3.3-2.3,1.521.022,1.108,1.521,1.412,2.477,1.586,1.716.326,3.5,1.086,3.519,3.3,0,2.172-1.8,3.128-3.693,3.172a4.745,4.745,0,0,1-4.388-2.281Z" transform="translate(60.085 -22.783)" fill="#b29769"/>
      <path id="Path_56315" data-name="Path 56315" d="M154.292,27.749a8.358,8.358,0,0,1,3.715-1,4.606,4.606,0,0,1,3.3,1.238,4.389,4.389,0,0,1,3-1.195c2.238-.087,4.171,1.108,4.171,3.606v7.278h-1.695V30.443c.022-1.542-1.173-2-2.433-1.977-1,.022-2.216.543-2.216,1.586V37.7h-1.651V30.052c0-1.912-3.346-2.02-4.519-1.195V37.7H154.27v-9.95Z" transform="translate(68.492 -22.666)" fill="#b29769"/>
      <path id="Path_56316" data-name="Path 56316" d="M165.961,28.311a3.343,3.343,0,0,0-2.607,1.173l-1.173-1.108a5.348,5.348,0,0,1,3.889-1.716c2.086,0,4.149,1.151,4.149,3.519v7.082A13.389,13.389,0,0,1,165.7,38a3.684,3.684,0,0,1-3.91-3.78c.022-2.629,2.129-3.519,4.345-3.519a4.961,4.961,0,0,1,2.39.63V30.2C168.546,28.919,167.265,28.311,165.961,28.311Zm2.585,4.453a7.615,7.615,0,0,0-2.455-.434c-1.369,0-2.607.348-2.629,1.912a2.2,2.2,0,0,0,2.281,2.281,11.921,11.921,0,0,0,2.781-.217V32.765Z" transform="translate(77.308 -22.771)" fill="#b29769"/>
      <path id="Path_56317" data-name="Path 56317" d="M171.365,39.838c-2.563.348-4.475-1.108-4.475-3.541V24.87h1.673v4.041H170.8v1.694h-2.238V36.3a2.184,2.184,0,0,0,2.8,2.086Z" transform="translate(83.288 -24.87)" fill="#b29769"/>
      <path id="Path_56318" data-name="Path 56318" d="M174.145,39.838c-2.563.348-4.475-1.108-4.475-3.541V24.87h1.673v4.041h2.238v1.694h-2.238V36.3a2.184,2.184,0,0,0,2.8,2.086Z" transform="translate(86.547 -24.87)" fill="#b29769"/>
      <path id="Path_56319" data-name="Path 56319" d="M173.965,34.407c-.022,1.325,1.238,1.955,2.542,1.955a2.666,2.666,0,0,0,2.5-1.5l1.521.76a4.4,4.4,0,0,1-4.019,2.411c-2.107,0-4.236-1.195-4.236-3.628V30.258c0-2.455,2.129-3.628,4.236-3.628,2.064,0,4.171,1.173,4.171,3.628v2.933h-6.713v1.217Zm2.52-6.1c-1.282,0-2.563.63-2.542,1.955v1.521h5.105V30.215C179.07,28.933,177.745,28.3,176.485,28.3Z" transform="translate(89.596 -22.807)" fill="#b29769"/>
      <path id="Path_56320" data-name="Path 56320" d="M182.192,26.771v1.738a3.144,3.144,0,0,0-1.673-.043,2.053,2.053,0,0,0-1.695,1.868V37.72H177.13V30.334a3.571,3.571,0,0,1,3.128-3.541A4.452,4.452,0,0,1,182.192,26.771Z" transform="translate(95.294 -22.752)" fill="#b29769"/>
    </g>
  </g>
</svg>
