<svg id="mc_symbol" xmlns="http://www.w3.org/2000/svg" width="206.338" height="146.217" viewBox="0 0 206.338 146.217">
  <rect id="Rectangle_18589" data-name="Rectangle 18589" width="206.338" height="146.217" fill="none"/>
  <g id="Group_54744" data-name="Group 54744" transform="translate(24.254 24.369)">
    <rect id="Rectangle_18590" data-name="Rectangle 18590" width="42.647" height="76.637" transform="translate(57.535 10.421)" fill="#ff5f00"/>
    <path id="Path_56290" data-name="Path 56290" d="M397.954,318.739a48.655,48.655,0,0,1,18.615-38.319,48.739,48.739,0,1,0,0,76.637,48.655,48.655,0,0,1-18.615-38.319Z" transform="translate(-337.711 -269.999)" fill="#eb001b"/>
    <path id="Path_56291" data-name="Path 56291" d="M474.814,318.739a48.737,48.737,0,0,1-78.856,38.319,48.746,48.746,0,0,0,0-76.637,48.737,48.737,0,0,1,78.856,38.319Z" transform="translate(-317.1 -269.999)" fill="#f79e1b"/>
    <path id="Path_56292" data-name="Path 56292" d="M451.025,328.8v-1.569h.633v-.32h-1.611v.32h.633V328.8Zm3.128,0V326.91h-.494l-.568,1.3-.568-1.3h-.494V328.8h.349v-1.427l.533,1.23h.362l.533-1.233v1.43Z" transform="translate(-297.96 -249.861)" fill="#f79e1b"/>
  </g>
</svg>
