<svg xmlns="http://www.w3.org/2000/svg" width="28.716" height="28.721" viewBox="0 0 28.716 28.721">
  <g id="Group_54700" data-name="Group 54700" transform="translate(0.125 0.13)">
    <path id="Path_54668" data-name="Path 54668" d="M27.043,13.283h-.949v-.475a1.425,1.425,0,0,0-1.423-1.423H18.028a1.425,1.425,0,0,0-1.423,1.423v.475H3.321V3.794a2.845,2.845,0,0,1,5.658-.426,2.849,2.849,0,0,0-2.337,2.8v.474a.475.475,0,0,0,.475.475h4.744a.474.474,0,0,0,.475-.475V6.167a2.848,2.848,0,0,0-2.4-2.808,3.794,3.794,0,0,0-7.564.436v9.489H1.423a1.42,1.42,0,0,0-.475,2.76v3.882a6.646,6.646,0,0,0,6.168,6.618v.5a1.423,1.423,0,1,0,2.847,0v-.474H18.5v.474a1.423,1.423,0,1,0,2.847,0v-.5a6.646,6.646,0,0,0,6.168-6.618V16.042a1.42,1.42,0,0,0-.475-2.759ZM11.386,6.167h-3.8a1.9,1.9,0,0,1,3.8,0ZM24.2,13.283v-.475a.474.474,0,0,1,.949,0v.475Zm-6.642-.475a.475.475,0,0,1,.474-.474h5.306a1.4,1.4,0,0,0-.088.474v5.219h-4.27a.474.474,0,0,0,0,.949h4.27v.949H17.554ZM9.014,27.042a.474.474,0,1,1-.949,0v-.474h.949Zm11.386,0a.474.474,0,1,1-.949,0v-.474H20.4Zm.474-1.423H7.591A5.7,5.7,0,0,1,1.9,19.925v-3.8H14.233a.474.474,0,1,0,0-.949H1.423a.463.463,0,0,1-.338-.145.456.456,0,0,1-.137-.329.475.475,0,0,1,.475-.474H16.605v5.693a.946.946,0,0,0,.474.817v1.081a.474.474,0,1,0,.949,0v-.949h.949v.949a.474.474,0,1,0,.949,0v-.949h.949v.949a.475.475,0,1,0,.949,0v-.949h.949v.949a.474.474,0,1,0,.949,0V20.742a.945.945,0,0,0,.474-.817v-3.8h2.372v3.8A5.7,5.7,0,0,1,20.875,25.618Zm6.168-10.438H24.2v-.949h2.847a.465.465,0,0,1,.338.145.456.456,0,0,1,.136.329A.475.475,0,0,1,27.043,15.181Zm0,0" transform="translate(0 0.001)" fill="#636363" stroke="#636363" stroke-width="0.25"/>
    <path id="Path_54669" data-name="Path 54669" d="M163.082,145.541a.474.474,0,0,0-.949,0v.475a.474.474,0,0,0,.949,0Zm0,0" transform="translate(-153.118 -137.001)" fill="#636363" stroke="#636363" stroke-width="0.25"/>
    <path id="Path_54670" data-name="Path 54670" d="M162.607,187.73a.475.475,0,0,0-.475.475v.475a.474.474,0,0,0,.949,0v-.475A.475.475,0,0,0,162.607,187.73Zm0,0" transform="translate(-153.118 -177.293)" fill="#636363" stroke="#636363" stroke-width="0.25"/>
    <path id="Path_54671" data-name="Path 54671" d="M132.734,135.446l-.332.339a.474.474,0,1,0,.678.664l.332-.339a.475.475,0,0,0-.678-.664Zm0,0" transform="translate(-124.913 -127.781)" fill="#636363" stroke="#636363" stroke-width="0.25"/>
    <path id="Path_54672" data-name="Path 54672" d="M102.867,165.917l-.332.339a.474.474,0,1,0,.678.664l.332-.339a.474.474,0,0,0-.678-.664Zm0,0" transform="translate(-96.707 -156.558)" fill="#636363" stroke="#636363" stroke-width="0.25"/>
    <path id="Path_54673" data-name="Path 54673" d="M186.171,135.44a.475.475,0,0,0-.007.671l.332.339a.475.475,0,1,0,.678-.664l-.332-.339a.474.474,0,0,0-.671-.007Zm0,0" transform="translate(-175.686 -127.782)" fill="#636363" stroke="#636363" stroke-width="0.25"/>
    <path id="Path_54674" data-name="Path 54674" d="M216.027,166.585l.332.339a.475.475,0,1,0,.678-.664l-.332-.339a.474.474,0,0,0-.678.664Zm0,0" transform="translate(-203.888 -156.562)" fill="#636363" stroke="#636363" stroke-width="0.25"/>
    <path id="Path_54675" data-name="Path 54675" d="M57.367,354.137H55.944a3.8,3.8,0,0,1-3.8-3.8.474.474,0,0,0-.949,0,4.75,4.75,0,0,0,4.744,4.744h1.423a.474.474,0,1,0,0-.949Zm0,0" transform="translate(-48.353 -330.415)" fill="#636363" stroke="#636363" stroke-width="0.25"/>
    <path id="Path_54676" data-name="Path 54676" d="M51.674,308.623a.475.475,0,0,0,.474-.474v-.475a.474.474,0,0,0-.949,0v.475A.475.475,0,0,0,51.674,308.623Zm0,0" transform="translate(-48.353 -290.119)" fill="#636363" stroke="#636363" stroke-width="0.25"/>
  </g>
</svg>
