<svg xmlns="http://www.w3.org/2000/svg" width="32.612" height="24.823" viewBox="0 0 32.612 24.823">
  <path id="Path_54667" data-name="Path 54667" d="M315.529,323.554v-2.038H288.971v2.035h-2.99c0-.164,0-.337,0-.51-.008-2.434-.026-4.868-.01-7.3a1.593,1.593,0,0,1,.3-.841q2.835-4.046,5.707-8.065a1.708,1.708,0,0,0,.348-1.06c-.014-2.1,0-4.209,0-6.314v-.689h1.636l.059.925h16.291l.063-.964h1.687v.7c0,2.068.007,4.136-.009,6.2a1.548,1.548,0,0,0,.313.96c1.94,2.729,3.864,5.469,5.809,8.194a2.009,2.009,0,0,1,.4,1.265c-.03,2.25-.027,4.5-.036,6.753,0,.236,0,.471,0,.751Zm-28.351-8.513h30.145l-5.866-8.288a.912.912,0,0,0-.074.511c.074.714-.009.815-.706.816q-3.652,0-7.3,0c-.683,0-.739-.071-.726-.767.01-.542,0-1.085,0-1.644h-.77c0,.632,0,1.232,0,1.831,0,.378-.148.58-.55.58-2.563,0-5.126,0-7.689,0-.463,0-.567-.137-.54-.614.014-.237.041-.472.062-.709l-.107-.019Zm30.531.925H286.784v2.187h30.925Zm-7.158-8.745-.28-3.251h-6.692v3.251Zm-9.54-3.232h-6.637l-.406,3.213h7.043Zm3.949-.871v-1.662h-4.582v1.631c.212.012.39.028.569.031.872.013.872.012.955.855,0,.03.039.057.072.1h.741a1.922,1.922,0,0,0,.06-.234c.081-.7.1-.722.8-.724C304.025,303.118,304.478,303.119,304.959,303.119Zm-6.344-1.639h-4.583v1.6h4.583Zm11.714-.02h-3.611v1.606h3.611Z" transform="translate(-285.965 -298.731)" fill="#636363"/>
</svg>
