<svg id="fi-rr-calendar" xmlns="http://www.w3.org/2000/svg" width="36" height="36" viewBox="0 0 36 36">
  <path id="Path_53552" data-name="Path 53552" d="M28.5,3H27V1.5a1.5,1.5,0,0,0-3,0V3H12V1.5a1.5,1.5,0,0,0-3,0V3H7.5A7.509,7.509,0,0,0,0,10.5v18A7.509,7.509,0,0,0,7.5,36h21A7.509,7.509,0,0,0,36,28.5v-18A7.509,7.509,0,0,0,28.5,3ZM3,10.5A4.5,4.5,0,0,1,7.5,6h21A4.5,4.5,0,0,1,33,10.5V12H3ZM28.5,33H7.5A4.5,4.5,0,0,1,3,28.5V15H33V28.5A4.5,4.5,0,0,1,28.5,33Z" fill="#1a1a1a"/>
  <circle id="Ellipse_850" data-name="Ellipse 850" cx="2.25" cy="2.25" r="2.25" transform="translate(15.75 20.25)" fill="#1a1a1a"/>
  <circle id="Ellipse_851" data-name="Ellipse 851" cx="2.25" cy="2.25" r="2.25" transform="translate(8.25 20.25)" fill="#1a1a1a"/>
  <circle id="Ellipse_852" data-name="Ellipse 852" cx="2.25" cy="2.25" r="2.25" transform="translate(23.25 20.25)" fill="#1a1a1a"/>
</svg>
