<svg xmlns="http://www.w3.org/2000/svg" width="391.481" height="263.492" viewBox="0 0 391.481 263.492">
  <g id="Group_55359" data-name="Group 55359" transform="translate(-85 -191.407)">
    <g id="Group_55171" data-name="Group 55171" transform="translate(85 191.407)">
      <g id="Group_55157" data-name="Group 55157" transform="translate(0 0)">
        <g id="Group_55156" data-name="Group 55156" transform="translate(0 0)">
          <path id="Path_55126" data-name="Path 55126" d="M1195.613,611.232c-2.6.976-3.478,1.515-4.4,1.619-22.577,2.528-23.2,1.975-23.2-20.313,0-30.3-.158-60.61.131-90.912.063-6.491-1.881-11.282-6.865-15.221q-33.666-26.615-67.253-53.336a16.616,16.616,0,0,0-2.479-1.2c-1.812.946-4.329,1.781-6.255,3.341-15.382,12.474-30.63,25.113-45.969,37.638-6.507,5.314-12.832,10.938-19.81,15.56-5.215,3.455-6.016,7.813-6,13.323.115,31.935.053,63.869.051,95.8,0,2.282.1,4.567-.014,6.843-.373,7.162-1.558,8.57-8.736,8.707-20.252.385-18.708.581-18.7-17.337.01-35.843.012-71.688-.284-107.529-.061-7.412,1.5-12.433,8.564-16.776,9.309-5.721,17.214-13.7,25.817-20.6,18.266-14.637,36.617-29.166,54.881-43.809,5.013-4.018,9.835-8.276,15.743-13.266,9.846,8.011,19.073,15.577,28.366,23.062q26.971,21.723,53.994,43.386c3.036,2.444,5.629,5.662,9,7.428,12.179,6.376,14,16.5,13.694,29.258-.808,34.195-.276,68.423-.276,102.637Z" transform="translate(-985.828 -350.388)" fill="#fbd4a3"/>
          <path id="Path_55127" data-name="Path 55127" d="M1070.162,448.748l96.732-77.167c34.429,27.4,67.666,54.58,101.693,80.731l2.117-1.152V424.335h26.047V606.483h-25.066c-.276-3.748-.78-7.49-.788-11.233-.056-31.911-.174-63.822.108-95.729.061-6.859-2.229-11.106-7.735-15.425-30.67-24.063-60.95-48.622-91.256-73.145-3.561-2.88-6.282-3.693-10.2-.52-19.2,15.534-38.575,30.855-57.9,46.237-2.288,1.82-4.716,3.467-6.97,5.326-3.248,2.681-6.55,2.718-9.788.229C1082.046,458.3,1077.056,454.232,1070.162,448.748Z" transform="translate(-905.271 -371.581)" fill="#fbd4a3"/>
          <path id="Path_55135" data-name="Path 55135" d="M1054.563,518.753c-8.114,0-16.234.172-24.341-.055-6.245-.174-7.1-1.578-7.062-7.684q.144-23.243-.08-46.487c-.062-7.115.835-8.423,8.312-8.493q23.856-.226,47.711-.021c7.52.07,8.21.827,8.277,8.576q.193,22.882-.014,45.766c-.074,7.625-.759,8.232-8.46,8.386-8.11.164-16.228.037-24.342.037Zm-19.371-35.278c6.052,3.076,11.828,2.348,17.984.706V467.043h-17.984ZM1035.7,490v17.644h17.6V490Zm22.137-5.385h16.909V467.319C1058.469,464.186,1053.462,465.538,1057.841,484.611Zm-.481,5.189c-1.066,6.507-3.248,12.826.87,16.788,4.354,4.19,10.789,2.571,16.416.717V489.8Z" transform="translate(-950.248 -291.029)" fill="#fbd4a3"/>
          <path id="Path_55235" data-name="Path 55235" d="M1029.273,478.036V461.6h17.984v17.137C1041.1,480.384,1035.324,481.111,1029.273,478.036Z" transform="translate(-944.329 -285.59)" fill="#fff"/>
          <path id="Path_55236" data-name="Path 55236" d="M1029.535,473.343h17.6v17.644h-17.6Z" transform="translate(-944.078 -274.376)" fill="#fff"/>
          <path id="Path_55237" data-name="Path 55237" d="M1041.594,479.673c-4.38-19.073.628-20.424,16.909-17.292v17.292Z" transform="translate(-934.001 -286.091)" fill="#fff"/>
          <path id="Path_55238" data-name="Path 55238" d="M1041.363,473.243h17.286v16.373c-5.627,1.734-12.062,3.248-16.416-.671C1038.115,485.24,1040.3,479.329,1041.363,473.243Z" transform="translate(-934.25 -274.472)" fill="#fff"/>
          <path id="Path_57338" data-name="Path 57338" d="M1029.273,463.726v16.432h17.984V463.02C1041.1,461.378,1035.324,460.651,1029.273,463.726Z" transform="translate(-944.329 -285.59)" fill="#fff"/>
        </g>
        <path id="Path_57332" data-name="Path 57332" d="M1056.993,479.673c4.38-19.073-.628-20.424-16.909-17.292v17.292Z" transform="translate(-934.001 -286.091)" fill="#fff"/>
        <path id="Path_57333" data-name="Path 57333" d="M1041.363,491.272h17.286V475.025c-5.627-1.72-12.062-3.223-16.416.666C1038.115,479.368,1040.3,485.233,1041.363,491.272Z" transform="translate(-934.25 -274.472)" fill="#fff"/>
        <path id="Path_57334" data-name="Path 57334" d="M1057.111,491.272h-17.287V475.025c5.627-1.72,12.062-3.223,16.416.666C1060.359,479.368,1058.176,485.233,1057.111,491.272Z" transform="translate(-934.25 -274.472)" fill="#fff"/>
        <path id="Path_57335" data-name="Path 57335" d="M1057.111,473.243h-17.287V489.49c5.627,1.72,12.062,3.223,16.416-.666C1060.359,485.148,1058.176,479.282,1057.111,473.243Z" transform="translate(-934.25 -274.472)" fill="#fff"/>
        <path id="Path_57336" data-name="Path 57336" d="M1056.993,461.079c4.38,19.073-.628,20.424-16.909,17.292V461.079Z" transform="translate(-934.001 -286.091)" fill="#fff"/>
        <path id="Path_57337" data-name="Path 57337" d="M1041.594,461.079c-4.38,19.073.628,20.424,16.908,17.292V461.079Z" transform="translate(-934.001 -286.091)" fill="#fff"/>
        <line id="Line_168" data-name="Line 168" x2="19.552" transform="translate(104.94 217.031)" fill="none" stroke="#fbd4a3" stroke-width="0.5"/>
        <line id="Line_169" data-name="Line 169" x2="19.552" transform="translate(104.94 218.986)" fill="none" stroke="#fbd4a3" stroke-width="2"/>
      </g>
      <g id="Group_55170" data-name="Group 55170" transform="translate(186.234 82.32)">
        <g id="Group_55169" data-name="Group 55169" transform="translate(0 0)">
          <path id="Path_57345" data-name="Path 57345" d="M69.179,0a69.185,69.185,0,1,0,38.286,126.8l38.392,37.818,17.755-17.742L125.47,109.313A69.11,69.11,0,0,0,69.179,0Zm.946,117.834a48.646,48.646,0,1,1,48.648-48.645A48.647,48.647,0,0,1,70.125,117.834Z" transform="matrix(0.998, -0.07, 0.07, 0.998, 0, 11.413)" fill="#f7942c" stroke="#fff" stroke-width="3"/>
          <path id="Path_57276" data-name="Path 57276" d="M12.431.5,11.938,0,0,12.139l.291.293,3.165,3.215C5.485,17.713,9.8,16.669,13.1,13.319s4.322-7.746,2.294-9.808L12.436.5Z" transform="matrix(0.998, -0.07, 0.07, 0.998, 157.135, 149.384)" fill="#f7942c"/>
        </g>
        <path id="Path_57350" data-name="Path 57350" d="M972.446,3463.758c-.939-21.672,17.741-43.406,43.142-43.443,25.416-.041,43.607,21.737,43.477,43.71-.114,19.214-15.472,43-43.36,43.025C987.278,3507.082,971.285,3482.644,972.446,3463.758Zm43.468-7.862c-3.737-3.728-6.877-6.868-10.027-10-3.62-3.6-7.047-4.131-9.614-1.5-2.663,2.714-2.143,5.752,1.647,9.558,3.131,3.145,6.268,6.283,9.574,9.593-1.151,1.258-1.964,2.206-2.841,3.094-2.6,2.635-5.28,5.2-7.838,7.877-2.764,2.895-2.906,6.033-.52,8.472,2.506,2.558,5.384,2.45,8.4-.378,1.49-1.4,2.9-2.881,4.346-4.322,2.13-2.121,4.261-4.235,6.545-6.5,1.468,1.4,2.491,2.347,3.476,3.322,2.632,2.606,5.181,5.3,7.89,7.823,2.681,2.5,5.424,2.511,7.838.264s2.506-5.455.151-8.189c-.914-1.062-1.964-2.01-2.955-3-2.672-2.684-5.347-5.367-8.306-8.333,3.753-3.759,7.305-7.048,10.5-10.654,1.228-1.393,2.4-3.6,2.2-5.274a7.156,7.156,0,0,0-3.411-4.509c-2.1-1.192-4.482-.468-6.264,1.388C1023.256,3448.2,1019.827,3451.8,1015.914,3455.9Z" transform="translate(-941.219 -3387.884)" fill="#fbd4a3"/>
      </g>
    </g>
  </g>
</svg>
