<svg xmlns="http://www.w3.org/2000/svg" width="418.148" height="341.487" viewBox="0 0 418.148 341.487">
  <g id="Group_55360" data-name="Group 55360" transform="translate(-66.233 -159.241)">
    <path id="Path_57259" data-name="Path 57259" d="M1070.52,2655.661v11.766c-8.593,9.738-21.084,13.423-31.366,20.538-5.53-3.628-11.279-5.959-16.382-9.941-4.421-3.45-10.6-4.99-15.9-7.61-2.156-1.067-4.524-.2-5.889,2.122a13.963,13.963,0,0,0-1.815,3.593c-1.572,6.572-7.681,8.11-12.492,9.4-5.12,1.371-10.983,1.161-16.153-2.574-4.543-3.281-8.159-7.848-8.176-13.1-.028-8.971-.007-17.94-.007-26.886-3.351-1.058-5.544-2.444-5.331-6.513.364-6.949.317-13.941.007-20.9-.15-3.335,1.231-5.413,3.76-7.268-2.559-1.842-3.884-3.942-3.76-7.27.293-7.827.094-15.674.094-23.48,4.85-8.656,12.923-8.53,21.416-8.619,10-.106,13.368,7.137,17.064,13.532,8.268,2.656,13.49-2.817,19.445-5.963,6.44-3.4,12.682-7.2,19.248-10.325,2.691-1.281,5.749-1.01,8.816.707,8.216,4.6,16.715,8.684,25.053,13.064.982.516,1.52,1.967,2.51,2.359,3.858,1.527,5.071,4.462,5,8.288-.047,2.557-.009,5.116-.009,7.4l3.644-3.877c9.459-1.747,14.832,1.825,20.822,5.1,5.915,3.234,11.718,6.683,17.627,9.934,2.183,1.2,3.347,2.6,3.29,5.282-.161,7.545-.2,15.1.03,22.64a5.219,5.219,0,0,1-2.575,5.038c-8.56,5.223-17.142,10.418-25.86,15.371-3.005,1.708-6.365,3.49-9.675,3.734-2.432.182-5.036-1.7-7.97-1.668C1073.746,2659.556,1072.483,2657.452,1070.52,2655.661Zm-70.318-15.587c3.83.511,7.828.178,10.993,1.644,6.844,3.171,13.871,6,19.977,10.807,6.241,4.911,6.567,4.51,14.395.227,1.19-.652,2.291-1.472,3.476-2.132,4.7-2.624,9.417-5.215,14.757-8.164-2.156-.663-4.243-1.972-6.159-1.757-4.144.465-7.624-1.446-11.236-2.547a10.371,10.371,0,0,1-7.36-10.626c.413-4.829,3.471-7.395,8.689-9.78,5.308-2.427,10.723-1.929,15.866-1.295,3.413.421,7.646,1.663,9.89,5.374,1.665,2.756,3.361,5.491,5,8.159a15.63,15.63,0,0,0,11.128-2.468c3.434-2.162,6.842-4.507,10.564-6.035,5-2.053,9.322-5.031,13.873-7.8-7.134-4.161-14.293-7.608-20.517-12.3a13.223,13.223,0,0,0-8.558-2.676c-4.356-.1-4.66,4.132-5.58,6.415a11.209,11.209,0,0,1-9.288,7.265c-5.762.622-11.751,1.1-17.621-1.292-3.13-1.276-5.926-2.537-6.334-5.791-.483-3.849-1.182-8.288,3.23-10.757a25.692,25.692,0,0,1,6.691-2.737c4.7-1.075,9.486-1.764,15.179-2.78-3.483-2.326-6.116-4.4-9.021-5.954-5.452-2.92-11.312-5.152-16.483-8.476a10.544,10.544,0,0,0-6.173-2.052,16.959,16.959,0,0,0-10.143,3.056c-7.557,5.04-16.146,8.532-24.319,12.648-1.2.6-2.4,1.614-3.636,1.67-6.044.28-10.652-1.71-13.242-7.829-1.186-2.8-2.606-5.8-6.494-6.883-4.252-1.186-8.352-1.491-12.322-.03-6.644,2.446-7.041,4.967-2.12,10.181.389.413.839.77,1.264,1.15,2.9,0,5.811.057,8.713-.014,3.921-.1,6.911,1.762,9.5,4.423s2.481,6.215-.3,8.89a20.879,20.879,0,0,1-3.357,2.384c-5.764,3.658-11.543,7.291-18.045,11.393,2.788,1.812,4.977,3.375,7.3,4.712,4.916,2.833,10.054,5.31,14.8,8.4,2.749,1.79,5.457,3.914,6.623,7.425.729,2.192.418,5.43-1.459,6.4a15.437,15.437,0,0,1-7.981,1.871c-4.995-.218-10.205-1.041-14.726,2.21-.825,3.257-.587,6.166,2.446,8.332,1.274.91,9.121,3.947,9.9,3.239,3.3-3,8.387-.589,11.926-4.548C991.6,2646.294,996.7,2644.145,1000.2,2640.074Zm75.2-37.249-.619-.621a5.429,5.429,0,0,0-.546,1.17c-.031.145.352.38.546.573Z" transform="translate(-749.085 -2199.31)" fill="#f7942c"/>
    <path id="Path_57266" data-name="Path 57266" d="M1084.205,2470.661c6.776-.115,8.485.762,8.462,4.151-.024,3.3-1.808,4.154-8.462,3.923Z" transform="translate(-654.526 -2269.718)" fill="#ded0b0"/>
    <path id="Path_57267" data-name="Path 57267" d="M1144.2,2546.929c-6.379,6.93-6.379,6.93-20.669,6.93-3.584-5.05-7.409-10.437-11.042-15.557-7.238-.465-13.4.084-18.561,5.016a16.354,16.354,0,0,1-6.45,3.234,20.4,20.4,0,0,0-10.781,7.688c-8.4-.92-13.91-7.733-21.687-9.952,9.527-1.4,19.328-1.893,26.387-11.092-.35-1.982-.173-5.06-1.45-7.31-2.232-3.935-8.445-8.065-12-8.59-6.839-1.009-13.326.727-19.26,3.875a8.554,8.554,0,0,0-4.369,5.949c-1.09,5.106-6.942,7.262-11.912,4.99a71.044,71.044,0,0,1-10.625-5.742c-4.195-2.887-8.875-3.579-14.813-6.872,1.266,2.932,1.426,4.487,2.259,5.052,6.546,4.444,12.948,9.247,19.98,12.764,3.267,1.634,7.983,1.377,11.778.635,3.182-.623,6.637-2.118,7.672-6.425,1.654-6.893,8.429-7.137,13.521-8.835,4.289-1.431,7.929,1.668,10.917,4.827.8.843,1.639,1.645,2.707,2.716-6.175,7.795-14.907,5.915-24.385,6.272-.228.335-1,1.55-1.851,2.709-2.413,3.292-2.47,6.454.631,8.846,2.976,2.294,6.459,3.949,9.773,5.784,2.362,1.306,4.815,2.447,8.157,4.132-10.849,7.365-19.78,16.129-32.7,17.253-2.85-3.678-3.164-8.282-8.11-10.265-2.566-1.028-4.752-2.6-7.721-2.416-2.315.146-4.646.03-6.968.03-8.814,0-8.814,0-16.821,5.978v10.874c2.925,2.325,5.833,5.968,9.55,7.228,3.84,1.3,8.464.29,13.511.29-5.636,3.2-10.409,5.906-15.174,8.628-.242.14-.385.448-.624.6-5.6,3.593-10.908,6.236-17.6,1.417-5.193-3.741-11.378-6.093-17.051-9.192a7.594,7.594,0,0,1-3.886-4.9c3.122,0,6.245-.038,9.365.007,7.23.108,12.1-4.146,16.066-9.347,1.156-1.514.483-4.425.736-7.913-1.436-1.193-3.239-3.157-5.448-4.4-2.31-1.3-4.517-3.056-7.564-2.812a78.44,78.44,0,0,1-9.578.035,16.462,16.462,0,0,0-16.553,13.675c-7.155,1.567-12.73-1.59-18.476-5.38-2.808-1.854-5.047-5.061-9.3-5.022-1.59.015-3.2-2.653-5.024-4.3,5.563-3.307,10.706-6.345,15.827-9.418,1.867-1.119,3.727-2.26,5.519-3.5,2.1-1.443,3.915-4.276,3.041-5.917-1.161-2.174-1.337-5.68-4.864-6.3-2.4-.424-4.724-1.375-7.132-1.647a64.236,64.236,0,0,0-7.475-.066l-6.879-6.5c1.039-1.339,1.96-3.641,3.039-3.719,4.32-.311,8.119-3.408,12.97-1.478,4.583,1.822,8.357,3.912,10.218,8.668a18.256,18.256,0,0,0,1.858,3.579,23.151,23.151,0,0,0,2.054,2.479c10.08,2.049,17.132-2.266,24.108-7.037,1.97-1.346,4.454-1.917,6.513-3.159,10.224-6.164,20.643-11.992,30.762-18.346,6.356-3.992,13.319-7.017,20.548-10.754,1.527,2.186,3.375,4.97,5.366,7.648a25.47,25.47,0,0,0,13.568,9.209c6.278,1.758,12.822-.381,18.409-3.466,2.652-1.464,4.076-5.151,6.384-8.277-.973-1.754-2.134-3.875-3.323-5.981a11.893,11.893,0,0,0-10.24-6.529c-4.1-.281-8.148-1.29-13.321-2.162,2.655-1.876,4.6-3.424,6.717-4.694,2.3-1.385,4.85-2.369,7.125-3.793,2.338-1.463,4.35-3.462,6.733-4.826a77.383,77.383,0,0,1,8.084-3.469c9.179,5.063,19.141,10.461,29,16.04a12.789,12.789,0,0,0,12.168.385c3.642-1.933,8.666-4.416,7.315-10.415,1.525-.889,2.981-1.63,4.323-2.54,5.3-3.589,10.69-1.481,15.873.038,3.269.959,3.665,5.72.8,7.636a15.153,15.153,0,0,1-9.349,2.765,15.125,15.125,0,0,0-11.98,4.648c-1.881,2.055-1.96,4.179-.093,5.922a79.939,79.939,0,0,0,9.743,8c5.385,3.628,11.044,6.848,16.567,10.227-7.787,3.98-15.807,8.232-23.686,12.768-4.008,2.308-6.089,4.77-5.547,9.255.513,4.235,2.929,5.9,7.188,6.923,2.367.567,4.762,1.686,7.186,1.337C1138.444,2540.916,1141.613,2542.589,1144.2,2546.929Z" transform="translate(-778.968 -2271.254)" fill="#fff"/>
    <path id="Path_57268" data-name="Path 57268" d="M1057.319,2515.5c.171-2.455-1.276-3.975,1.606-5.543,8.584-4.676,16.751-10.117,25.271-15.376l33.308,19.686c-4.977,2.188-9.711-.422-13.211,2.831-7.643-.394-11.462,4.278-13.973,10.157,2.368,7.709,7.688,10.751,14.875,13.146,5.5,1.834,10.015.9,14.383-.861,4.269-1.721,8.118-4.779,9.142-10.227.64-3.406,6.605-5.309,9.87-2.932,6.787,4.938,14.611,8.085,21.962,13.256-3.46,2.393-6.448,5.2-9.989,6.72-4.317,1.85-7.716,5.236-11.992,6.78-4,1.443-5.341,3.676-4.756,7.594a9.538,9.538,0,0,1,.019,1.921c2.195,4.842,6.611,4.279,10.117,5.774,4,1.7,7.9.269,10.807,2.013l5.884,3.927a11.432,11.432,0,0,1-8.5,5.418,23.809,23.809,0,0,1-8.666-.072c-3.206-.832-6.176-1.749-8.138-5.758-4.1-8.378-11.753-10.305-19.968-6.335-6.574,3.178-13.23,6-19.274,10.353-7,5.037-12.21,4.66-19.4-.453a85.109,85.109,0,0,0-18.545-9.97c-7.9-3.091-14.339-1.317-16.436,6.4-.764,2.81-1.71,4.027-3.926,5.265-6.687,3.74-15.006,3.952-20.568-3.659,3.884-6.245,10.805-6.506,16.776-7.606,4.336-.8,7.643-1.268,8.464-7.21-.9-3.638-4.454-6.28-8.6-8.552-6.876-3.775-13.622-7.781-20.445-11.653a33.114,33.114,0,0,0-3.359-1.41c3.715-5.216,10.042-6.388,14.909-9.332,4.529-2.741,9.391-7.082,15.482-5.605,2.432,4.151,4.055,8.84,7.24,11.906,4.667,4.492,10.805,6.8,17.562,5.055,2.566-.662,4.887-2.229,7.42-3.091,4.975-1.691,7.519-4.9,7.135-10.268-.1-1.445-.016-2.9-.016-4.162C1074.466,2515.513,1066.471,2514.8,1057.319,2515.5Z" transform="translate(-709.64 -2251.929)" fill="#fff"/>
    <path id="Path_57269" data-name="Path 57269" d="M962.082,2570.906v-17.085l22.3-13.312v18.56C977.08,2561.841,971.025,2568.069,962.082,2570.906Z" transform="translate(-745.302 -2217.792)" fill="#fff"/>
    <ellipse id="Ellipse_1180" data-name="Ellipse 1180" cx="0.616" cy="6.164" rx="0.616" ry="6.164" transform="translate(178.642 317.41)" fill="#fff"/>
    <path id="Path_57270" data-name="Path 57270" d="M997.227,2637.014c-3.5,4.071-8.6,6.22-6.309,11.553-3.539,3.959-8.624,1.546-11.926,4.548-.778.708-8.624-2.329-9.9-3.239-3.033-2.166-3.271-5.075-2.446-8.332,4.521-3.251,9.731-2.428,14.726-2.211a15.431,15.431,0,0,0,7.981-1.871c1.878-.967,2.188-4.206,1.459-6.4-1.166-3.51-3.873-5.634-6.623-7.425-4.744-3.089-9.881-5.567-14.8-8.4-2.322-1.336-4.512-2.9-7.3-4.711,6.5-4.1,12.282-7.735,18.045-11.393a20.878,20.878,0,0,0,3.358-2.384c2.781-2.676,2.892-6.223.3-8.891s-5.575-4.519-9.5-4.422c-2.9.071-5.809.014-8.715.015-.424-.382-.873-.739-1.262-1.152-4.921-5.214-4.524-7.735,2.12-10.181,3.969-1.461,8.07-1.156,12.322.03,3.888,1.082,5.308,4.079,6.494,6.882,2.59,6.119,7.2,8.11,13.242,7.829,1.236-.056,2.437-1.065,3.637-1.67,8.173-4.117,16.762-7.608,24.319-12.648a16.955,16.955,0,0,1,10.142-3.056,10.543,10.543,0,0,1,6.173,2.052c5.171,3.325,11.032,5.556,16.483,8.476,2.906,1.557,5.539,3.628,9.022,5.954-5.694,1.016-10.481,1.7-15.179,2.78a25.692,25.692,0,0,0-6.691,2.737c-4.412,2.469-3.713,6.908-3.23,10.757.408,3.255,3.2,4.515,6.333,5.791,5.87,2.391,11.86,1.914,17.621,1.292a11.209,11.209,0,0,0,9.288-7.265c.921-2.284,1.224-6.513,5.581-6.416a13.225,13.225,0,0,1,8.558,2.676c6.224,4.688,13.383,8.134,20.517,12.3-4.552,2.768-8.874,5.747-13.873,7.8-3.722,1.529-7.13,3.874-10.564,6.036a15.633,15.633,0,0,1-11.128,2.468c-1.635-2.667-3.331-5.4-5-8.159-2.244-3.711-6.476-4.953-9.89-5.374-5.143-.635-10.557-1.132-15.866,1.295-5.218,2.385-8.275,4.951-8.688,9.779a10.371,10.371,0,0,0,7.36,10.626c3.612,1.1,7.092,3.012,11.236,2.546,1.916-.214,4,1.095,6.159,1.758-5.34,2.949-10.057,5.54-14.757,8.164-1.185.66-2.286,1.48-3.476,2.132-7.827,4.283-8.153,4.684-14.394-.227-6.105-4.8-13.133-7.635-19.977-10.806C1005.054,2637.192,1001.057,2637.525,997.227,2637.014Z" transform="translate(-746.11 -2196.25)" fill="#fff"/>
    <path id="Path_57271" data-name="Path 57271" d="M1025.411,2587.121l-.619,1.123c-.193-.194-.577-.429-.546-.574a5.434,5.434,0,0,1,.546-1.17Z" transform="translate(-699.095 -2183.606)" fill="#fff"/>
    <path id="Path_57272" data-name="Path 57272" d="M926.438,2598.329l5.751-14.649c.291,2.737.1,4.169.622,5.251,1.539,3.182,4.409,6.067,3.321,9.876-.871,3.056-2.665,5.85-4.053,8.763Z" transform="translate(-771.797 -2185.702)" fill="#fff"/>
    <path id="Path_57273" data-name="Path 57273" d="M1117.459,2475.944c-1.238.932-1.9,1.722-2.7,1.917-.441.108-1.125-.793-1.7-1.24a8.342,8.342,0,0,1,1.816-2.058C1115.189,2474.378,1116.079,2475.173,1117.459,2475.944Z" transform="translate(-633.079 -2266.831)" fill="#fff"/>
    <path id="Path_57274" data-name="Path 57274" d="M879.862,2619.585l-.645-1.508c.479-.2,1.023-.642,1.421-.536a5.176,5.176,0,0,1,1.513,1.09Z" transform="translate(-806.897 -2160.544)" fill="#fff"/>
    <ellipse id="Ellipse_1181" data-name="Ellipse 1181" cx="7.093" cy="6.62" rx="7.093" ry="6.62" transform="translate(443.575 159.241)" fill="#f7942c" opacity="0.65"/>
    <g id="Ellipse_1182" data-name="Ellipse 1182" transform="translate(459.652 214.093)" fill="none" stroke="#1b1b1b" stroke-width="2" opacity="0.65">
      <ellipse cx="7.093" cy="6.62" rx="7.093" ry="6.62" stroke="none"/>
      <ellipse cx="7.093" cy="6.62" rx="6.093" ry="5.62" fill="none"/>
    </g>
    <g id="Ellipse_1183" data-name="Ellipse 1183" transform="translate(66.233 452.415)" fill="none" stroke="#f7942c" stroke-width="3" opacity="0.65">
      <ellipse cx="6.62" cy="7.093" rx="6.62" ry="7.093" stroke="none"/>
      <ellipse cx="6.62" cy="7.093" rx="5.12" ry="5.593" fill="none"/>
    </g>
    <path id="Path_57346" data-name="Path 57346" d="M-3554.471,789.193l-8.223,11.749-8.948-11.749,8.948-12.678Z" transform="translate(3722.665 -361.37)" fill="none" stroke="#000" stroke-linecap="round" stroke-linejoin="round" stroke-width="3" opacity="0.14"/>
    <path id="Path_57349" data-name="Path 57349" d="M-3557.784,791.051l-6.636,13.471-7.222-13.471,7.222-14.536Z" transform="translate(3682.403 -305.294)" fill="#f7942c" stroke="#f7942c" stroke-linecap="round" stroke-linejoin="round" stroke-width="3" opacity="0.47"/>
    <g id="Group_55166" data-name="Group 55166" transform="translate(98.917 415.106)" opacity="0.32">
      <path id="Path_57347" data-name="Path 57347" d="M-3583.9,811.177l6.773,11.464" transform="translate(3587.898 -811.177)" fill="none" stroke="#000" stroke-linecap="round" stroke-width="3"/>
      <path id="Path_57348" data-name="Path 57348" d="M-3571.43,813.17l-14.764,5.558" transform="translate(3586.194 -809.696)" fill="none" stroke="#000" stroke-linecap="round" stroke-width="3"/>
    </g>
    <path id="Path_57258" data-name="Path 57258" d="M1081.107,2626.168c0-9.909,2.559-19.477,2.8-28.768.072-2.71-1.157-4.2-2.8-5.866-2.225-2.249-4.043-2.12-6.647-.225-7.088,5.157-14.246,10.287-21.792,14.722-3.856,2.266-8.552,3.208-12.974,4.34-1.253.32-9.573-7.506-11.011-8.006-3.687-1.284-5.043-3.4-5.324-9.013,1.972.584,4.079.628,5.294,1.69,2.462,2.159,11.252,10.288,13.954,7.334,9.09-1.347,15.308-8,22.759-12.368,2.866-1.679,5.446-3.848,7.714-5.476V2565.74c-7.127,5.07-13.6,10.817-21.082,14.537-4.081,2.031-8.481,4.965-13.835,4.533-4.106-.331-7.456-2.573-7.7-5.792-.595-7.9-6.775-6.929-11.375-8.138-3.816-1-7.721.288-11.452,1.6-4.662,1.644-5.362,4.2-2.073,8.052.751.879,1.567,1.7,2.256,2.442,7.564-.113,15.026-.588,20.5,6.611a11.974,11.974,0,0,1-1.667,2.512,7.694,7.694,0,0,1-2,1.253c.711,3.714,1.21,6.1,1.619,8.506.459,2.7-.126,5.273,1.41,8.162,2.071,3.895-.15,8.762-3.908,11.105-3.656,2.278-7.583,4.121-11.356,6.218-5.437,3.026-10.842,6.111-16.619,9.37-10.019-5.621-20.29-11.375-30.548-17.156-1.415-.8-5.174-7.095-5.2-8.663-.044-2.247-.011-4.5-.011-7.071-2.826,1.119-3.685,4.052-6.879,3.649-4.412-.558-9.635,1.19-13.069-2.017-6.363-5.944-14.961-8.11-21.41-13.748a50.087,50.087,0,0,0-5.509-3.695v-29.2c8.648-5.344,17.477-10.8,26.3-16.251-10.033-.562-18.613-3-24.741-11.337v-8.408c6.836-7.548,15.922-6.621,24.507-5.871,4.36.38,7.777,4.205,10.286,8.019,1.013,1.539,1.457,3.452,2.238,5.388,5.678.921,11.062.606,15.319-4.128,9.224-2.688,16.188-9.609,25.032-13.209,6.457-2.627,12.212-7.043,18.156-10.854,5.485-3.514,11.872-5.24,17.015-9.637,2.882-2.461,10.354,1.685,13.007,5.727,1.923,2.926,2.911,6.694,6.875,8.028,6.257,2.106,12.386,4.042,18.063-1.414.7-.668,1.958-.746,3.781-1.388-1.766-2.033-2.892-4.337-4.7-5.178a23.018,23.018,0,0,0-9.409-2.362,15.26,15.26,0,0,1-11.87-5.174c-1.627-1.738-1.832-3.72-.227-5.286a30.9,30.9,0,0,1,7.137-5.788c7.913-4.186,15.44-9.137,22.937-14.065,2.268-1.491,3.743-1.156,6.046-.146,7.259,3.179,13.736,7.62,20.386,11.8.678.427,1.457.693,2.163,1.081,7.045,3.863,7.043,3.866,16.63,3.469,1.942-7.468,6.923-12.634,14.525-13.75,7.7-1.13,15.371-.117,20.914,8.4,0,2.2-.227,5.647.061,9.052.3,3.56,1.45,7.06,1.607,10.615.307,6.9-.1,7.266-6.281,10.615,15.1,9.436,31.929,16.614,47.13,27.953-1.546,2.7-2.329,5.793-4.3,7.069-2.6,1.686-6.074,2.244-9.257,2.731-3.269.5-6.64-.4-9.8,1.719-1.714,1.15-3.274,1.849-3.525,4.184-.272,2.518,1.289,3.82,3.075,4.559a24.8,24.8,0,0,0,7.094,1.754c3.169.291,6.384.072,9.62.072a26.221,26.221,0,0,0,8.206-10.324c1.87-3.961,8.4-5.936,12.393-4.273,9.531,3.968,18.035,9.8,26.922,14.917,4.379,2.518,5.624,7.412,5.915,12.268.206,3.473-.335,7.02.122,10.444.78,5.84-1.9,9.079-7.081,10.869.628.689,1.642,1.276,1.7,1.947.687,7.883.955,15.814,1.893,23.664.814,6.8-8.781,16.607-15.536,15.477-4.172-.7-8.39.75-12.677-.965-5.4-2.161-8.615-5.968-10.887-11.126-6.15-.328-23.784,5.026-28.777,10.314-1.1,1.168-4.134.517-7.516.812,3.391-3.379,5.638-5.964,8.23-8.133,6.119-5.118,30.766-13.075,35.824-2.859,3.455,6.977,12.145,8.938,19.579,4.883,3.025-1.649,5.317-4.091,4.791-8.284-.425-3.387-.085-6.87-.085-10.512-6.452,1.865-11.9,4.32-19.034,1.85-6.875-2.384-10.618-6.106-12.927-12.323a2.39,2.39,0,0,0-.75-.28c-3.778-.017-7.815-.845-11.255.231-3.185,1-6.389,3.281-9.025,5.278-4.679,3.542-10.024,5.495-14.9,8.43-1.179.71-2.319,1.482-3.408,2.182.549,2.845,1.269,5.461,1.51,8.12.255,2.82.057,5.683.057,7.975,3.586-.389,6.733-.729,11.307-1.222-1.247,2.031-1.6,3.241-2.406,3.8a35.7,35.7,0,0,1-6.985,4.136c-3.949,1.571-7.7,2.026-11.851-.729a157.446,157.446,0,0,0-23.326-13.044c-4.635-2.045-6.258-.822-8.72,4-1.456,2.846-4.121,5.184-6.576,7.381-2.362,2.111-6.02,1.044-8.527,2.443-3.262,1.821-5.786,1.723-8.441-.643C1090.163,2635.017,1085.38,2629.229,1081.107,2626.168Zm65.784-76.289c-2.59-4.341-5.76-6.012-10.331-5.355-2.423.349-4.819-.77-7.186-1.337-4.259-1.019-6.675-2.687-7.188-6.922-.542-4.485,1.539-6.947,5.547-9.255,7.88-4.536,15.9-8.789,23.686-12.768-5.523-3.378-11.182-6.6-16.567-10.227a79.984,79.984,0,0,1-9.743-8c-1.867-1.743-1.789-3.867.092-5.922a15.128,15.128,0,0,1,11.98-4.648,15.148,15.148,0,0,0,9.349-2.765c2.864-1.917,2.468-6.677-.8-7.636-5.183-1.519-10.571-3.627-15.873-.037-1.343.91-2.8,1.65-4.323,2.54,1.351,6-3.673,8.481-7.315,10.415a12.789,12.789,0,0,1-12.168-.385c-9.86-5.579-19.823-10.977-29-16.041a77.561,77.561,0,0,0-8.084,3.469c-2.383,1.364-4.395,3.364-6.733,4.826-2.275,1.424-4.822,2.408-7.125,3.793-2.115,1.271-4.062,2.819-6.717,4.694,5.173.872,9.221,1.882,13.321,2.162a11.9,11.9,0,0,1,10.24,6.529c1.189,2.106,2.35,4.227,3.323,5.981-2.308,3.126-3.733,6.813-6.384,8.278-5.587,3.083-12.132,5.223-18.409,3.466a25.472,25.472,0,0,1-13.568-9.21c-1.991-2.677-3.839-5.462-5.366-7.648-7.23,3.738-14.193,6.762-20.548,10.755-10.12,6.354-20.538,12.182-30.762,18.347-2.059,1.241-4.543,1.813-6.513,3.158-6.977,4.77-14.028,9.086-24.108,7.036a22.978,22.978,0,0,1-2.054-2.479,18.233,18.233,0,0,1-1.859-3.579c-1.86-4.755-5.634-6.846-10.217-8.668-4.852-1.93-8.65,1.168-12.97,1.479-1.079.078-2,2.379-3.039,3.718l6.879,6.5a64.342,64.342,0,0,1,7.475.066c2.408.272,4.731,1.224,7.132,1.648,3.527.621,3.7,4.127,4.864,6.3.875,1.641-.945,4.473-3.04,5.917-1.792,1.235-3.652,2.376-5.519,3.5-5.122,3.073-10.265,6.112-15.828,9.418,1.82,1.644,3.435,4.314,5.024,4.3,4.255-.038,6.494,3.17,9.3,5.022,5.746,3.79,11.321,6.947,18.476,5.38a16.462,16.462,0,0,1,16.553-13.674,78.443,78.443,0,0,0,9.578-.035c3.047-.244,5.254,1.513,7.564,2.812,2.209,1.241,4.011,3.205,5.448,4.4-.253,3.489.42,6.4-.736,7.913-3.971,5.2-8.837,9.456-16.066,9.348-3.121-.045-6.243-.007-9.365-.007a7.591,7.591,0,0,0,3.886,4.9c5.673,3.1,11.858,5.451,17.051,9.192,6.693,4.819,12,2.176,17.6-1.417.239-.153.382-.462.624-.6,4.765-2.721,9.538-5.427,15.174-8.627-5.047,0-9.67,1.012-13.511-.289-3.717-1.261-6.624-4.9-9.55-7.228V2571.5c8.007-5.978,8.007-5.978,16.821-5.978,2.322,0,4.653.117,6.968-.03,2.969-.187,5.155,1.388,7.721,2.417,4.946,1.982,5.26,6.586,8.11,10.265,12.923-1.125,21.854-9.888,32.7-17.254-3.342-1.684-5.795-2.825-8.157-4.132-3.314-1.836-6.8-3.49-9.773-5.784-3.1-2.392-3.044-5.554-.631-8.845.849-1.159,1.623-2.375,1.851-2.709,9.478-.357,18.211,1.521,24.386-6.272-1.069-1.07-1.911-1.873-2.708-2.717-2.988-3.159-6.628-6.258-10.917-4.827-5.092,1.7-11.867,1.942-13.521,8.836-1.036,4.306-4.491,5.8-7.672,6.424-3.8.743-8.511,1-11.778-.635-7.033-3.518-35.8-21.085-42.342-25.529-.833-.565,1.266,2.932,0,0,5.475,3.036,7.621-1.19,12.169,1.562-.272-.179.058.033.385.258,3.2,2.2,29.319,16.83,32.987,18.507,4.97,2.272,10.822.115,11.912-4.991a8.55,8.55,0,0,1,4.369-5.948c5.934-3.149,12.421-4.885,19.26-3.876,3.556.525,9.77,4.655,12,8.589,1.278,2.25,1.1,5.328,1.45,7.31-7.059,9.2-16.86,9.7-26.387,11.093,7.777,2.219,13.286,9.032,21.687,9.953a20.4,20.4,0,0,1,10.781-7.688,16.343,16.343,0,0,0,6.45-3.234c5.162-4.931,11.323-5.48,18.561-5.016,3.633,5.121,7.458,10.507,11.042,15.558C1140.512,2556.809,1140.512,2556.809,1146.891,2549.878Zm-17.557-12.1c9.152-.708,17.147.009,22.473,8.122,0,1.259-.089,2.717.016,4.162.384,5.366-2.16,8.577-7.135,10.268-2.533.862-4.853,2.429-7.419,3.091-6.757,1.741-12.9-.563-17.562-5.055-3.185-3.065-4.808-7.755-7.24-11.905-6.091-1.477-10.953,2.865-15.482,5.6-4.867,2.945-11.194,4.116-14.909,9.333a33.191,33.191,0,0,1,3.359,1.41c6.823,3.872,13.57,7.878,20.445,11.653,4.144,2.273,7.7,4.914,8.6,8.552-.821,5.943-4.128,6.412-8.463,7.21-5.971,1.1-12.892,1.361-16.776,7.606,5.561,7.611,13.88,7.4,20.567,3.658,2.216-1.237,3.162-2.454,3.926-5.264,2.1-7.714,8.537-9.488,16.436-6.4a85.088,85.088,0,0,1,18.545,9.97c7.186,5.113,12.395,5.49,19.4.453,6.044-4.349,12.7-7.176,19.274-10.354,8.214-3.969,15.869-2.043,19.968,6.336,1.961,4.009,4.932,4.926,8.138,5.757a23.782,23.782,0,0,0,8.666.072,11.429,11.429,0,0,0,8.5-5.418l-5.884-3.926c-2.9-1.744-6.811-.313-10.807-2.014-3.506-1.494-7.922-.93-10.117-5.773a9.535,9.535,0,0,0-.019-1.922c-.585-3.917.753-6.15,4.756-7.594,4.276-1.544,7.675-4.93,11.992-6.78,3.541-1.518,6.529-4.327,9.989-6.721-7.352-5.171-15.175-8.317-21.962-13.256-3.266-2.376-9.231-.474-9.871,2.933-1.023,5.448-4.872,8.506-9.142,10.226-4.367,1.759-8.885,2.7-14.383.861-7.187-2.4-12.508-5.437-14.875-13.146,2.51-5.878,6.33-10.551,13.973-10.156,3.5-3.254,8.234-.644,13.211-2.831-11.647-6.885-22.555-13.329-33.308-19.686-8.52,5.26-16.687,10.7-25.271,15.377C1128.058,2533.8,1129.5,2535.324,1129.334,2537.778Zm-130.9,89.538c8.943-2.836,15-9.065,22.3-11.837v-18.56c-7.657,4.572-14.984,8.943-22.3,13.312Zm-37.957-25.183h.872v-8.717h-.872Z" transform="translate(-781.655 -2274.203)" fill="#ded0b0"/>
  </g>
</svg>
