<svg xmlns="http://www.w3.org/2000/svg" width="29.811" height="29.811" viewBox="0 0 29.811 29.811">
  <g id="Icon_feather-eye-off" data-name="Icon feather-eye-off" transform="translate(-8.042 -8.042)">
    <path id="Path_150" data-name="Path 150" d="M21.188,22.2a11.7,11.7,0,0,1-6.9,2.394C6.149,24.6,1.5,15.3,1.5,15.3a21.443,21.443,0,0,1,5.881-6.9m4.463-2.115A10.6,10.6,0,0,1,14.284,6c8.135,0,12.784,9.3,12.784,9.3A21.5,21.5,0,0,1,24.558,19m-7.81-1.244a3.487,3.487,0,1,1-4.928-4.928" transform="translate(8.663 7.65)" fill="none" stroke="#bbb" stroke-linecap="round" stroke-linejoin="round" stroke-width="3"/>
    <path id="Path_151" data-name="Path 151" d="M1.5,1.5,27.068,27.068" transform="translate(8.663 8.663)" fill="none" stroke="#bbb" stroke-linecap="round" stroke-linejoin="round" stroke-width="3"/>
  </g>
</svg>
