<svg xmlns="http://www.w3.org/2000/svg" width="36" height="35.999" viewBox="0 0 36 35.999">
  <g id="Group_54976" data-name="Group 54976" transform="translate(-21255 10279.999)">
    <path id="Path_54909" data-name="Path 54909" d="M-11.852,114.141a18.006,18.006,0,0,1-18.009,18.006,18.006,18.006,0,0,1-17.991-18.024A18.007,18.007,0,0,1-29.843,96.147,18.007,18.007,0,0,1-11.852,114.141Zm-15.161-3.222a2.824,2.824,0,0,0,0,.284c.047.427.1.854.147,1.281q.314,2.831.626,5.663c.232,2.076.471,4.151.7,6.228.023.215.093.291.311.29q2.881-.01,5.762,0c.225,0,.292-.089.308-.3.035-.478.087-.956.137-1.433q.285-2.714.573-5.427.329-3.147.65-6.294c.01-.094,0-.19,0-.295ZM-41.2,120.073h14.513a1.342,1.342,0,0,0,.021-.146.876.876,0,0,0-.009-.149,5.443,5.443,0,0,0-2.71-4.07,7.781,7.781,0,0,0-3.4-.991,11.023,11.023,0,0,0-4.36.405,5.634,5.634,0,0,0-3.837,3.7A3.476,3.476,0,0,0-41.2,120.073ZM-26.76,122.7c.112-.076.237-.119.294-.207a2.256,2.256,0,0,0,.4-1.148.687.687,0,0,0-.761-.783H-41.083a.746.746,0,0,0-.781.731,1.684,1.684,0,0,0,.474,1.257.679.679,0,0,1,.176.437,11.793,11.793,0,0,0,.181,1.3c.07.314.2.374.526.376.55,0,1.1,0,1.651,0h11.614c.393,0,.4,0,.481-.394A2.922,2.922,0,0,0-26.76,122.7Zm3.136-14.321c-.015-.113-.026-.19-.035-.267-.062-.485-.1-.975-.193-1.454a3.03,3.03,0,0,0-.763-1.6,5.083,5.083,0,0,0-3.44-1.416c-.165-.012-.316-.021-.324.228-.014.424,0,.458.281.5a8.028,8.028,0,0,1,1.06.191,3.318,3.318,0,0,1,2.618,2.7,2.434,2.434,0,0,1,.018,1.137c-1.276-.225-1.965.59-2.643,1.423l.034.06h9.135a2,2,0,0,0-1.813-1.508c-1.189.038-2.38.01-3.571.01Z" transform="translate(21302.852 -10376.146)" fill="#ff8027"/>
  </g>
</svg>
