<svg id="Group_54177" data-name="Group 54177" xmlns="http://www.w3.org/2000/svg" width="35.867" height="22.916" viewBox="0 0 35.867 22.916">
  <path id="Path_55254" data-name="Path 55254" d="M980.351,548.1h1.855v-6.528H955.321v6.49h1.87c0,.628,0,1.183,0,1.738a1.3,1.3,0,0,0,.734,1.338,1.8,1.8,0,0,0,1.787-.12,1.425,1.425,0,0,0,.483-.868c.1-.636.1-1.289.145-2h16.842c.03.52.045,1.074.1,1.625a1.571,1.571,0,0,0,2.382,1.354,1.2,1.2,0,0,0,.691-1.189C980.351,549.357,980.351,548.768,980.351,548.1Z" transform="translate(-946.339 -528.425)" fill="#fff"/>
  <path id="Path_55255" data-name="Path 55255" d="M978.348,522.188l-.126.888H959.988l-.235-.946-.964-.08c-.019.358-.047.644-.048.931,0,2.68-.009,5.36.005,8.04a.93.93,0,0,1-.488.881,9.411,9.411,0,0,0-1.913,1.907h25.428a18.273,18.273,0,0,0-1.83-1.893.984.984,0,0,1-.475-.888q.013-4.061-.005-8.121C979.46,522,979.327,521.921,978.348,522.188Zm-18.148,9.58c.4-.79.744-1.4,1.028-2.039a.806.806,0,0,1,.872-.539c1.164.024,2.328-.006,3.493-.012.613,0,1.227,0,1.874,0l.425,2.592Zm17.754-.007h-7.7l.445-2.585c1.911,0,3.721-.008,5.532.013a.7.7,0,0,1,.514.283C977.15,530.17,977.5,530.894,977.954,531.761Z" transform="translate(-946.596 -522.05)" fill="#fff"/>
  <path id="Path_55256" data-name="Path 55256" d="M1005.051,530.534h-1.521c-1.158,0-1.492-.325-1.517-1.459,0-.213-.027-.426-.04-.628-.9-.268-1.014-.194-1.087.68-.1,1.172-.34,1.4-1.491,1.406-.506,0-1.012,0-1.618,0,0,1.513-.014,2.913.02,4.313a.621.621,0,0,0,.442.414c2.245.027,4.49.019,6.812.019Zm-5.771,1.75h4.406v1.25H999.28Z" transform="translate(-997.774 -524.094)" fill="#fff"/>
  <path id="Path_55257" data-name="Path 55257" d="M1005.035,539.887h-7.294c0,1.477-.009,2.9.016,4.331,0,.119.223.245.358.348.117.089.365.149.367.225.01.469.257.688.665.549.234-.079.391-.386.7-.715h3.331a1.61,1.61,0,0,0,.194.476.67.67,0,0,0,.437.245c.15,0,.435-.152.432-.227-.026-.556.382-.566.795-.6Zm-1.365,2.972H999.28V541.6h4.391Z" transform="translate(-997.734 -527.874)" fill="#fff"/>
  <path id="Path_55258" data-name="Path 55258" d="M999.548,525.8h4.778c-.375-1-.71-1.932-1.082-2.847a.576.576,0,0,0-.437-.263c-.593-.021-1.188-.007-1.781.027a.508.508,0,0,0-.381.228C1000.274,523.861,999.934,524.786,999.548,525.8Z" transform="translate(-998.243 -522.256)" fill="#fff"/>
</svg>
