<svg id="Group_55201" data-name="Group 55201" xmlns="http://www.w3.org/2000/svg" width="66.004" height="58.705" viewBox="0 0 66.004 58.705">
  <g id="Group_55194" data-name="Group 55194" transform="translate(0)">
    <g id="Group_55178" data-name="Group 55178" transform="translate(0)">
      <g id="Group_55177" data-name="Group 55177">
        <path id="Path_57359" data-name="Path 57359" d="M1327.012,2365.339c0-3.655.049-7.31-.03-10.962a3.077,3.077,0,0,1,1.149-2.573c6.1-5.532,12.17-11.108,18.283-16.63.478-.432.938-1.663,1.837-.761.756.758,2.19,1.025,1.777,2.793a17.832,17.832,0,0,0,.957,11.771c3.087,6.658,8.6,9.921,15.756,10.472,1.49.115,1.861.451,1.837,1.923-.079,5.013.013,10.029.027,15.044.006,2.312-.609,3.033-2.849,3.075-3.368.062-6.738-.008-10.107.027-1.424.015-2.047-.489-2-2.019.1-3.293,0-6.592.078-9.886.03-1.234-.392-1.6-1.6-1.568-2.865.073-5.736.089-8.6-.006-1.313-.044-1.753.327-1.715,1.672.089,3.222-.041,6.45.058,9.672.049,1.584-.5,2.177-2.078,2.146-3.152-.062-6.308.052-9.461-.006-2.89-.054-3.357-.607-3.347-3.437.012-3.583,0-7.165,0-10.748Z" transform="translate(-1317.512 -2320.835)" fill="#fff"/>
        <path id="Path_57360" data-name="Path 57360" d="M1417.607,2330.839c.449,8.01-7.03,15.447-15.175,15.29a15.309,15.309,0,1,1,.013-30.617C1411.684,2315.544,1418.12,2323.731,1417.607,2330.839Z" transform="translate(-1351.632 -2310.284)" fill="#f7942c"/>
        <path id="Path_57361" data-name="Path 57361" d="M1322.525,2313.877c3.193-2.94,6.2-5.668,9.163-8.448,2.821-2.65,4.267-2.69,7.14-.083,1.535,1.393,3.08,2.775,4.437,4-.822.958-1.615,1.852-2.374,2.773s-1.5,1.887-2.234,2.821c-.085-.009-.163.006-.205-.026-1.071-.818-1.9-2.479-3.092-2.45-1.3.031-2.206,1.645-3.252,2.6q-10.239,9.326-20.438,18.7c-1.844,1.686-3.6,1.867-5.187.589-1.86-1.5-1.91-3.98-.016-5.768,2.654-2.5,5.316-5.008,8.092-7.374a4.43,4.43,0,0,0,1.695-3.881c-.118-3.5-.1-7.013-.092-10.52.005-2.31.193-2.47,2.4-2.487,4.033-.03,3.85-.242,3.815,3.862-.014,1.718.005,3.436.013,5.154A4.932,4.932,0,0,0,1322.525,2313.877Z" transform="translate(-1305.067 -2303.415)" fill="#fff"/>
        <path id="Path_57362" data-name="Path 57362" d="M1414.529,2339.177a9.924,9.924,0,0,1,.005-1.073c.171-1.546-.025-2.594-1.988-2.93-1.693-.289-2.366-1.739-2.336-3.625.031-1.958.852-3.626,2.463-3.823,1.842-.224,1.97-1.155,1.876-2.563-.028-.427-.312-1.156.373-1.246.891-.117.765.678.71,1.211-.149,1.467.111,2.39,1.924,2.529,1.212.093,2.109,1.141,2.821,2.161.243.347.494.78-.031,1.093-.387.23-.658-.039-.864-.363a4.918,4.918,0,0,0-2.7-2c-.816-.28-1.228-.129-1.2.806.037,1.5.062,3.006.058,4.509,0,.581.147.894.794,1.017a13.329,13.329,0,0,1,2.232.711,3.69,3.69,0,0,1,2.693,3.719,4.169,4.169,0,0,1-2.835,3.921,2.912,2.912,0,0,1-1.026.278c-1.739.01-2.088,1.006-1.942,2.5.044.451.415,1.317-.562,1.286-.787-.026-.51-.8-.436-1.185.323-1.658-.36-2.363-1.961-2.719a5.012,5.012,0,0,1-3.263-2.9c-.129-.255-.585-.582-.093-.887a.635.635,0,0,1,1.039.275,4.866,4.866,0,0,0,2.191,2.276c1.724.865,2.039.682,2.057-1.256C1414.533,2340.323,1414.529,2339.75,1414.529,2339.177Z" transform="translate(-1364.1 -2315.052)" fill="#fafafa"/>
      </g>
      <circle id="Ellipse_1184" data-name="Ellipse 1184" cx="14.26" cy="14.26" r="14.26" transform="translate(36.459 6.512)" fill="#fff"/>
    </g>
    <path id="Path_57363" data-name="Path 57363" d="M995.09,2487.878h-.48c-1.294,0-2.589,0-3.883,0a1.088,1.088,0,0,1-.83-.277.993.993,0,0,1-.272-1.112.982.982,0,0,1,.962-.677c.889-.01,1.778,0,2.667,0h1.808c.01-.157.026-.294.026-.431,0-1.269,0-2.537,0-3.805a2.327,2.327,0,0,1,.047-.5,1,1,0,0,1,1.1-.789.956.956,0,0,1,.9,1c.005,1.373,0,2.746,0,4.119,0,.117,0,.233,0,.41h.434c1.334,0,2.667,0,4,0a1.044,1.044,0,0,1,.872.36.976.976,0,0,1,.179,1.06,1.011,1.011,0,0,1-.905.646c-.1.008-.209,0-.314,0h-4.268v.462c0,1.334-.01,2.667.005,4a.985.985,0,0,1-.62.993.972.972,0,0,1-1.091-.2,1.12,1.12,0,0,1-.346-.921q0-1.647,0-3.295Z" transform="translate(-945.108 -2465.782)" fill="#f7942c"/>
  </g>
</svg>
