<svg xmlns="http://www.w3.org/2000/svg" width="31.46" height="23.924" viewBox="0 0 31.46 23.924">
  <path id="Icon_ionic-ios-arrow-round-back" data-name="Icon ionic-ios-arrow-round-back" d="M20.877,11.71A1.628,1.628,0,0,1,20.89,14L13.327,21.59l24.408.012a1.62,1.62,0,0,1,0,3.239l-24.408-.012L20.9,32.417a1.64,1.64,0,0,1-.012,2.293,1.613,1.613,0,0,1-2.28-.012L8.343,24.356h0a1.819,1.819,0,0,1-.336-.511,1.546,1.546,0,0,1-.125-.623,1.624,1.624,0,0,1,.461-1.134L18.61,11.747A1.587,1.587,0,0,1,20.877,11.71Z" transform="translate(-7.882 -11.252)" fill="#1c1c1c"/>
</svg>
