<svg xmlns="http://www.w3.org/2000/svg" width="29.15" height="28.184" viewBox="0 0 29.15 28.184">
  <path id="Icon_ionic-ios-heart-empty" data-name="Icon ionic-ios-heart-empty" d="M23.946,3.938h-.068A7.7,7.7,0,0,0,17.45,7.456a7.7,7.7,0,0,0-6.429-3.519h-.068a7.651,7.651,0,0,0-7.579,7.647,16.472,16.472,0,0,0,3.235,8.98C10.683,26.133,17.45,31,17.45,31s6.767-4.872,10.84-10.441a16.472,16.472,0,0,0,3.235-8.98A7.651,7.651,0,0,0,23.946,3.938Zm2.815,15.51a51.9,51.9,0,0,1-9.311,9.176A51.979,51.979,0,0,1,8.139,19.44,14.6,14.6,0,0,1,5.27,11.584a5.741,5.741,0,0,1,5.7-5.745h.061a5.673,5.673,0,0,1,2.781.731A5.913,5.913,0,0,1,15.867,8.5a1.9,1.9,0,0,0,3.18,0A5.972,5.972,0,0,1,21.1,6.57a5.673,5.673,0,0,1,2.781-.731h.061a5.741,5.741,0,0,1,5.7,5.745A14.783,14.783,0,0,1,26.761,19.447Z" transform="translate(-2.875 -3.438)" fill="#e46e6e" stroke="#e46e6e" stroke-width="1"/>
</svg>
