<svg xmlns="http://www.w3.org/2000/svg" width="27.082" height="27.082" viewBox="0 0 27.082 27.082">
  <path id="Icon_awesome-phone-alt" data-name="Icon awesome-phone-alt" d="M26.31,19.138,20.386,16.6a1.27,1.27,0,0,0-1.481.365l-2.624,3.206A19.606,19.606,0,0,1,6.908,10.8l3.206-2.624a1.266,1.266,0,0,0,.365-1.481L7.94.768A1.278,1.278,0,0,0,6.485.032L.984,1.3A1.27,1.27,0,0,0,0,2.539,24.541,24.541,0,0,0,24.544,27.083a1.27,1.27,0,0,0,1.238-.984l1.27-5.5a1.285,1.285,0,0,0-.741-1.46Z" transform="translate(0 0)" fill="#fff"/>
</svg>
