<svg xmlns="http://www.w3.org/2000/svg" width="22.55" height="24.833" viewBox="0 0 22.55 24.833">
  <g id="Icon_feather-share-2" data-name="Icon feather-share-2" transform="translate(1 1)">
    <path id="Path_54341" data-name="Path 54341" d="M29.35,6.425A3.425,3.425,0,1,1,25.925,3,3.425,3.425,0,0,1,29.35,6.425Z" transform="translate(-8.8 -3)" fill="none" stroke="#6e6c5a" stroke-linecap="round" stroke-linejoin="round" stroke-width="2"/>
    <path id="Path_54342" data-name="Path 54342" d="M11.35,16.925A3.425,3.425,0,1,1,7.925,13.5,3.425,3.425,0,0,1,11.35,16.925Z" transform="translate(-4.5 -5.508)" fill="none" stroke="#6e6c5a" stroke-linecap="round" stroke-linejoin="round" stroke-width="2"/>
    <path id="Path_54343" data-name="Path 54343" d="M29.35,27.425A3.425,3.425,0,1,1,25.925,24,3.425,3.425,0,0,1,29.35,27.425Z" transform="translate(-8.8 -8.017)" fill="none" stroke="#6e6c5a" stroke-linecap="round" stroke-linejoin="round" stroke-width="2"/>
    <path id="Path_54344" data-name="Path 54344" d="M12.885,20.265l7.8,4.544" transform="translate(-6.503 -7.125)" fill="none" stroke="#6e6c5a" stroke-linecap="round" stroke-linejoin="round" stroke-width="2"/>
    <path id="Path_54345" data-name="Path 54345" d="M20.671,9.765l-7.786,4.544" transform="translate(-6.503 -4.616)" fill="none" stroke="#6e6c5a" stroke-linecap="round" stroke-linejoin="round" stroke-width="2"/>
  </g>
</svg>
