<svg xmlns="http://www.w3.org/2000/svg" width="28.647" height="20.912" viewBox="0 0 28.647 20.912">
  <g id="bed_icon" data-name="bed icon" transform="translate(-432.684 -287.428)">
    <path id="Path_48896" data-name="Path 48896" d="M447.029,308.414q-5.326,0-10.652,0c-1.6,0-1.693.092-1.7,1.672,0,.733.005,1.466,0,2.2-.006.544-.072.606-.624.618-.319.007-.638,0-.958-.007a.376.376,0,0,1-.412-.424c0-1.39,0-2.78.011-4.17a1.32,1.32,0,0,1,.113-.492c.576-1.344,1.149-2.69,1.75-4.023a3.143,3.143,0,0,1,1.78-1.631,18.125,18.125,0,0,1,4.248-1.067,43.763,43.763,0,0,1,9.945-.327,26.924,26.924,0,0,1,6.684,1.211,3.63,3.63,0,0,1,2.33,1.972q.855,1.959,1.673,3.934a1.8,1.8,0,0,1,.106.661c.01,1.24.008,2.48,0,3.72,0,.579-.055.638-.655.642-1.543.012-1.333.1-1.347-1.308-.008-.732.011-1.465,0-2.2-.009-.662-.25-.917-.915-.954-.524-.03-1.051-.026-1.577-.027Q451.932,308.412,447.029,308.414Z" transform="translate(0 -6.984)"/>
    <path id="Path_48897" data-name="Path 48897" d="M459.264,322.475H440.811c0,.25.012.486,0,.719-.032.515-.078,1.03-.119,1.544-.518.033-1.037.068-1.555.1-.094.006-.188,0-.282,0a.393.393,0,0,1-.443-.453c0-1.6-.011-3.194.016-4.791.011-.675.306-.933.982-.986.206-.016.413-.011.62-.011q9.978,0,19.955,0c1.528,0,1.678.152,1.68,1.668,0,1.316,0,2.631,0,3.946,0,.559-.067.62-.61.628q-.592.008-1.184,0c-.55-.009-.6-.057-.6-.628S459.264,323.091,459.264,322.475Z" transform="translate(-3.032 -16.502)"/>
    <path id="Path_48898" data-name="Path 48898" d="M461.576,294.929c-.665-.29-1.268-.536-1.851-.821a.539.539,0,0,1-.216-.393,9.256,9.256,0,0,1-.009-1.182A1.405,1.405,0,0,0,458.436,291a10.861,10.861,0,0,0-2.2-.43,13.118,13.118,0,0,0-3.812.179,5.013,5.013,0,0,0-.911.282,1.42,1.42,0,0,0-.961,1.388c0,.129-.022.259-.038.428h-1.426a2.659,2.659,0,0,1-.05-.444,1.277,1.277,0,0,0-.954-1.368,9.959,9.959,0,0,0-2.131-.457,13.48,13.48,0,0,0-4.035.181,4.258,4.258,0,0,0-.9.307,1.345,1.345,0,0,0-.876,1.373,9.426,9.426,0,0,1-.012,1.294.587.587,0,0,1-.281.4c-.568.278-1.157.516-1.775.785a2.193,2.193,0,0,1-.052-.344c0-1.8,0-3.605,0-5.408a1.658,1.658,0,0,1,.518-1.37,1.8,1.8,0,0,1,1.263-.368q5.69.006,11.38,0c2.911,0,5.821,0,8.732,0a1.506,1.506,0,0,1,1.644,1.265C461.592,290.756,461.576,292.819,461.576,294.929Z" transform="translate(-2.826)"/>
  </g>
</svg>
