<svg xmlns="http://www.w3.org/2000/svg" width="31.562" height="31.541" viewBox="0 0 31.562 31.541">
  <g id="space_icon" data-name="space icon" transform="translate(-800.21 -202.593)">
    <path id="Path_54317" data-name="Path 54317" d="M984.768,286.76c0,1.5,0,2.919,0,4.334q0,2.213,0,4.426a2.318,2.318,0,0,1-.016.357.7.7,0,0,1-.74.631.694.694,0,0,1-.688-.637c-.03-.325-.015-.655-.015-.983q0-3.889,0-7.779c0-.058-.01-.116-.022-.249-.172.13-.312.228-.444.335q-1.645,1.342-3.288,2.686a2.242,2.242,0,0,1-.323.238.7.7,0,0,1-.953-.194.694.694,0,0,1,.092-.968c.329-.3.684-.575,1.031-.856q2.048-1.662,4.1-3.321a.768.768,0,0,1,1.188-.01q2.461,2,4.917,4.012a1.519,1.519,0,0,1,.333.356.712.712,0,0,1-.147.9.683.683,0,0,1-.94.029c-.476-.358-.929-.747-1.389-1.125q-1.192-.978-2.383-1.957C985.008,286.918,984.922,286.866,984.768,286.76Z" transform="translate(-168.103 -81.168)" stroke="#000" stroke-width="1.5"/>
    <path id="Path_54318" data-name="Path 54318" d="M878.9,392.849c.361.452.653.821.951,1.187q1.044,1.282,2.091,2.562a2.82,2.82,0,0,1,.265.359.747.747,0,0,1-.154.969.7.7,0,0,1-.97-.084c-.335-.358-.639-.746-.95-1.127q-1.611-1.973-3.216-3.95a.822.822,0,0,1-.016-1.267q2-2.459,4.02-4.911a1.336,1.336,0,0,1,.436-.365.709.709,0,0,1,.834.256.749.749,0,0,1-.066.946c-.647.8-1.3,1.59-1.954,2.385-.4.494-.806.989-1.261,1.547.211.013.35.029.489.029q3.822,0,7.643,0c.179,0,.358,0,.536.009a.756.756,0,0,1,.807.768.734.734,0,0,1-.827.689q-2.883,0-5.766,0Z" transform="translate(-75.667 -173.745)" stroke="#000" stroke-width="1.5"/>
    <path id="Path_54319" data-name="Path 54319" d="M983.336,502.649c0-1.168,0-2.238,0-3.308q0-2.37,0-4.741c0-.089,0-.179,0-.268a.732.732,0,0,1,.705-.725.7.7,0,0,1,.735.734c.016,1.028.009,2.057.01,3.086,0,1.729,0,3.457,0,5.286.179-.13.3-.212.421-.306,1.169-.948,2.332-1.9,3.511-2.84a1.285,1.285,0,0,1,.671-.28.638.638,0,0,1,.634.479.69.69,0,0,1-.242.8q-.837.706-1.688,1.4-1.645,1.343-3.3,2.681c-.585.475-.821.473-1.408-.008q-2.369-1.941-4.737-3.885a2.325,2.325,0,0,1-.326-.3.676.676,0,0,1-.012-.9.716.716,0,0,1,.924-.18,2.452,2.452,0,0,1,.322.24l3.4,2.767C983.054,502.448,983.152,502.514,983.336,502.649Z" transform="translate(-168.123 -271.568)" stroke="#000" stroke-width="1.5"/>
    <path id="Path_54320" data-name="Path 54320" d="M1097.167,392.871H1092.4c-1.074,0-2.147,0-3.221,0-.56,0-.9-.282-.889-.721a.789.789,0,0,1,.889-.738q3.69,0,7.381,0h.579c-.3-.377-.534-.677-.774-.973q-1.2-1.475-2.4-2.947a.74.74,0,1,1,1.128-.931q2.036,2.494,4.062,5a.79.79,0,0,1,0,1.227l-3.964,4.847c-.019.023-.038.046-.057.069-.37.426-.784.517-1.129.25a.781.781,0,0,1-.012-1.184c.7-.868,1.416-1.73,2.124-2.6C1096.442,393.764,1096.768,393.362,1097.167,392.871Z" transform="translate(-268.406 -173.765)" stroke="#000" stroke-width="1.5"/>
  </g>
</svg>
