<svg xmlns="http://www.w3.org/2000/svg" width="30.461" height="27.186" viewBox="0 0 30.461 27.186">
  <g id="bathroom_icon" data-name="bathroom icon" transform="translate(-875.095 -476.036)">
    <path id="Path_48904" data-name="Path 48904" d="M909.416,574.123a1.729,1.729,0,0,1,.016.173c-.009,1.447-.014,2.893-.03,4.34a3.246,3.246,0,0,1-2.453,2.995,2.335,2.335,0,0,1-.548.046c-1.821.024-3.642.054-5.463.061q-4.892.02-9.785.015c-1.707,0-3.414-.021-5.121-.036-.628-.006-1.256-.035-1.884-.035a2.6,2.6,0,0,1-1.257-.323,3.135,3.135,0,0,1-1.645-2,3.809,3.809,0,0,1-.089-.906c-.023-1.389-.034-2.779-.048-4.169,0-.049.008-.1.013-.166Z" transform="translate(-4.949 -80.698)"/>
    <path id="Path_48905" data-name="Path 48905" d="M875.095,557.858v-2.173h30.461v2.173Z" transform="translate(0 -65.529)"/>
    <path id="Path_48906" data-name="Path 48906" d="M965.426,478.2c.165.062.3.118.447.166a3.828,3.828,0,0,1,2.7,3.066,5.116,5.116,0,0,1,.053,1.184h-1.069v1h-1.11v-.985h-1.072v.986h-1.106v-.982h-1.079v.985h-1.1v-1h-1.068c0-.331-.021-.635,0-.935a3.913,3.913,0,0,1,3.032-3.405.357.357,0,0,0,.307-.306,2.575,2.575,0,0,1,1.795-1.878,1.919,1.919,0,0,1,.6-.063q2.627-.007,5.254,0a.468.468,0,0,1,.167.026,3.057,3.057,0,0,1,1.83,1.822.587.587,0,0,1,.031.2q.022,5.388.041,10.776c0,.062-.006.124-.01.2h-1.094c0-.08-.011-.159-.011-.238q-.008-3.046-.015-6.092c0-1.409-.026-2.818-.01-4.226a1.262,1.262,0,0,0-.465-.993,1.458,1.458,0,0,0-1.032-.406c-1.351.02-2.7.009-4.055.013-.209,0-.418.02-.628.022a1.542,1.542,0,0,0-.7.208A1.412,1.412,0,0,0,965.426,478.2Z" transform="translate(-70.68 0)"/>
    <path id="Path_48907" data-name="Path 48907" d="M882.508,539.379c-1.116,0-2.233,0-3.349,0-.279,0-.557-.018-.836-.034-.2-.012-.23-.054-.191-.251a1.712,1.712,0,0,1,1.345-1.323,1.573,1.573,0,0,1,1.635.692c.064.087.123.178.19.262a.544.544,0,0,0,.928-.081c.036-.066.052-.142.083-.212a1.908,1.908,0,0,1,1.389-1.209,1.2,1.2,0,0,1,1.455.739.542.542,0,0,0,.562.363c.215-.009.431-.014.646-.021a.837.837,0,0,1,.857.509c.037.08.089.154.127.234.071.153.04.234-.128.259a5.918,5.918,0,0,1-.756.07c-.647.012-1.294.01-1.941.012-.336,0-.672,0-1.009,0h-1.008Z" transform="translate(-2.486 -50.308)"/>
    <path id="Path_48908" data-name="Path 48908" d="M937.211,544.39c-.2,0-.406.01-.608,0s-.252-.087-.176-.259a2.4,2.4,0,0,1,.358-.619.647.647,0,0,1,1.065.112,1.8,1.8,0,0,1,.174.478c.053.209,0,.276-.222.292-.139.01-.279.007-.419.009h-.171Z" transform="translate(-50.432 -55.322)"/>
    <path id="Path_48909" data-name="Path 48909" d="M968.16,524.923v1.091h-1.1v-.42c0-.177,0-.355,0-.532,0-.078.017-.139.113-.139Z" transform="translate(-75.661 -40.22)"/>
    <path id="Path_48910" data-name="Path 48910" d="M992.823,524.991v1.081h-1.077v-1.081Z" transform="translate(-95.971 -40.276)"/>
    <path id="Path_48911" data-name="Path 48911" d="M968.175,538.391c-.339,0-.661,0-.983,0-.036,0-.1-.05-.1-.079-.007-.334,0-.668,0-1.014h1.09Z" transform="translate(-75.681 -50.399)"/>
    <path id="Path_48912" data-name="Path 48912" d="M991.706,538.409v-1.091h1.075a.88.88,0,0,1,.023.14c0,.266,0,.532,0,.8,0,.07,0,.151-.1.152C992.381,538.411,992.053,538.409,991.706,538.409Z" transform="translate(-95.938 -50.418)"/>
    <path id="Path_48913" data-name="Path 48913" d="M905.781,624.321v-1.09h1.071a.59.59,0,0,1,.027.122c0,.272,0,.545,0,.817,0,.07.006.15-.1.151C906.455,624.322,906.127,624.321,905.781,624.321Z" transform="translate(-25.246 -121.1)"/>
    <path id="Path_48914" data-name="Path 48914" d="M979.452,525h1.076v1.081h-1.076Z" transform="translate(-85.856 -40.284)"/>
    <path id="Path_48915" data-name="Path 48915" d="M979.461,537.289h1.072v1.082h-1.072Z" transform="translate(-85.864 -50.394)"/>
    <path id="Path_48916" data-name="Path 48916" d="M1011.165,623.221v1.033a.4.4,0,0,1-.094.025c-.265,0-.531,0-.8,0-.086,0-.148-.019-.15-.124,0-.246-.01-.493-.014-.739a.17.17,0,0,1,.182-.2C1010.576,623.218,1010.859,623.221,1011.165,623.221Z" transform="translate(-111.08 -121.091)"/>
  </g>
</svg>
