<svg xmlns="http://www.w3.org/2000/svg" width="30.333" height="27.773" viewBox="0 0 30.333 27.773">
  <g id="villa_icon" data-name="villa icon" transform="translate(-673.38 -590.673)">
    <path id="Path_54321" data-name="Path 54321" d="M673.386,671.783c0-.66-.018-1.179.007-1.7a9.512,9.512,0,0,1,.171-1.035,13.6,13.6,0,0,1,1.386-.14q13.548-.012,27.1,0c1.525,0,1.689.25,1.664,1.754-.016.949-.421,1.3-1.339,1.3q-14.02-.021-28.041-.019A6.632,6.632,0,0,1,673.386,671.783Z" transform="translate(0 -53.519)"/>
    <path id="Path_54322" data-name="Path 54322" d="M680.892,596.275c.525-.31.76-.481,1.021-.6,3.5-1.558,7.013-3.1,10.513-4.667a2.443,2.443,0,0,1,2.106-.164c3.962,1.687,7.939,3.34,11.909,5.01a4.526,4.526,0,0,1,.59.418Z" transform="translate(-5.139)"/>
    <path id="Path_54323" data-name="Path 54323" d="M691.505,662.874q-5.822,0-11.643,0a3.821,3.821,0,0,1-1.247-.054c-.314-.114-.734-.483-.74-.748a1.086,1.086,0,0,1,.639-.849,28.186,28.186,0,0,1,3.293-.117c3.873.022,7.745.076,11.618.1,3.51.021,7.021.018,10.532.031.26,0,.593-.047.764.089a1.347,1.347,0,0,1,.5.821.861.861,0,0,1-.518.632,4.251,4.251,0,0,1-1.245.091q-5.978.007-11.957,0Z" transform="translate(-3.075 -48.181)"/>
    <path id="Path_54324" data-name="Path 54324" d="M705.381,621a3,3,0,0,1,.431-.272c3.229-.49,3.372-.367,3.372,2.892,0,2.407.013,4.814,0,7.22-.011,1.672-.1,1.744-1.812,1.751a2.652,2.652,0,0,1-1.084-.05c-.355-.171-.861-.551-.866-.847C705.36,628.1,705.381,624.505,705.381,621Z" transform="translate(-21.89 -20.418)"/>
    <path id="Path_54325" data-name="Path 54325" d="M691.532,613.445q5.98,0,11.96,0a2.891,2.891,0,0,1,1.09.071,1.07,1.07,0,0,1,.6.731,1.052,1.052,0,0,1-.565.757,2.744,2.744,0,0,1-1.087.079c-7.988,0-15.975.014-23.962-.019-.663,0-1.82.447-1.746-.88.062-1.108,1.08-.75,1.739-.754,3.99-.026,7.98-.013,11.97-.013Z" transform="translate(-3.037 -15.534)"/>
    <path id="Path_54326" data-name="Path 54326" d="M748.393,632.512a4.349,4.349,0,0,1-.687.253c-3.009.346-3.1.261-3.1-2.735,0-2.413,0-4.826,0-7.24,0-1.972.009-1.972,2.037-1.956.262,0,.524.013.787.011a.842.842,0,0,1,.967.955C748.391,625.361,748.393,628.921,748.393,632.512Z" transform="translate(-48.722 -20.632)"/>
    <path id="Path_54327" data-name="Path 54327" d="M728.5,626.924c0,1.47.017,2.94,0,4.409-.021,1.357-.105,1.426-1.416,1.477-2.4.094-2.4.094-2.4-2.232,0-2.677-.009-5.354,0-8.031.008-1.662.05-1.692,1.654-1.711.315,0,.631.02.945,0,.864-.053,1.239.33,1.223,1.2-.029,1.627-.008,3.254-.008,4.882Z" transform="translate(-35.094 -20.632)"/>
    <path id="Path_54328" data-name="Path 54328" d="M685.486,626.659c0-1.576.02-3.152-.008-4.727-.016-.87.357-1.179,1.221-1.221,2.59-.126,2.61-.136,2.61,2.5,0,2.678.014,5.357-.007,8.036-.01,1.342-.1,1.405-1.444,1.449-2.375.078-2.376.078-2.379-2.26q0-1.891,0-3.781Z" transform="translate(-8.276 -20.52)"/>
  </g>
</svg>
