<svg xmlns="http://www.w3.org/2000/svg" width="14.898" height="27.86" viewBox="0 0 14.898 27.86">
  <g id="Heater_icon" data-name="Heater icon" transform="translate(-773.541 -379.155)">
    <path id="Path_54346" data-name="Path 54346" d="M1061.306,436.484c-.371-.088-.749-.153-1.112-.267a6.023,6.023,0,0,1-2.055-10.5.925.925,0,0,0,.393-.8q-.018-6.423-.006-12.847a3.4,3.4,0,0,1,6.77-.411c.026.26.031.523.031.784q0,6.285-.006,12.57a.911.911,0,0,0,.365.774,6.028,6.028,0,0,1-3.013,10.622,1.937,1.937,0,0,0-.259.08Zm2.859-17.1c0-2.562.042-5.07-.017-7.576a2.2,2.2,0,0,0-2.736-1.968,2.263,2.263,0,0,0-1.748,2.308c-.008,2.278,0,4.556,0,6.834,0,.131.021.262.033.4Z" transform="translate(-282.296 -29.469)" fill="#6e6c5a"/>
    <path id="Path_54348" data-name="Path 54348" d="M1174.345,431.008a.972.972,0,0,1-.843.364c-.892-.02-1.785-.006-2.677-.007a1.846,1.846,0,0,1-.276-.008.556.556,0,0,1-.548-.573.525.525,0,0,1,.542-.572c1.076-.022,2.154-.027,3.23,0,.194.006.382.214.573.329Z" transform="translate(-385.905 -49.045)" fill="#6e6c5a"/>
    <path id="Path_54349" data-name="Path 54349" d="M1174.348,571.893a1.052,1.052,0,0,1-.9.349c-.861-.018-1.723-.005-2.585-.006a2.139,2.139,0,0,1-.322-.012.549.549,0,0,1-.539-.578.526.526,0,0,1,.551-.563c1.076-.019,2.154-.025,3.23.008.191.006.376.221.564.34Z" transform="translate(-385.909 -176.896)" fill="#6e6c5a"/>
    <path id="Path_54350" data-name="Path 54350" d="M1174.324,501.57a.8.8,0,0,1-.774.388c-.939-.018-1.878-.006-2.818-.006a1.853,1.853,0,0,1-.231-.007.545.545,0,0,1-.523-.587.512.512,0,0,1,.526-.533c1.093-.013,2.187-.022,3.279.012.184.006.36.236.54.363Z" transform="translate(-385.884 -113.136)" fill="#6e6c5a"/>
    <path id="Path_54351" data-name="Path 54351" d="M1174.327,466.315a.858.858,0,0,1-.784.376c-.938-.018-1.876-.005-2.815-.007a1.1,1.1,0,0,1-.32-.024.568.568,0,0,1,.15-1.118c1.061-.011,2.123-.02,3.183.011.2.006.391.2.586.3Z" transform="translate(-385.888 -81.116)" fill="#6e6c5a"/>
    <path id="Path_54352" data-name="Path 54352" d="M1174.33,536.778a1.075,1.075,0,0,1-.865.317c-.876-.017-1.753-.005-2.63-.006a2.542,2.542,0,0,1-.322-.011.544.544,0,0,1-.529-.58.515.515,0,0,1,.519-.542c1.091-.018,2.184-.025,3.275.008.187.006.368.229.551.352Z" transform="translate(-385.891 -145.016)" fill="#6e6c5a"/>
  </g>
</svg>
