<svg id="Group_54987" data-name="Group 54987" xmlns="http://www.w3.org/2000/svg" width="35" height="35" viewBox="0 0 35 35">
  <rect id="Rectangle_9901" data-name="Rectangle 9901" width="35" height="35" rx="5" fill="#ff7400"/>
  <g id="Collapse" transform="translate(7.561 6.034)">
    <g id="Group_52910" data-name="Group 52910">
      <path id="Path_55002" data-name="Path 55002" d="M8.017,24.342a1.017,1.017,0,0,0,1.017-1.017V5.017A1.017,1.017,0,0,0,7,5.017V23.325A1.017,1.017,0,0,0,8.017,24.342Z" transform="translate(-7 -4)" fill="#fff"/>
      <path id="Path_55003" data-name="Path 55003" d="M20.332,23.9a1.068,1.068,0,0,0,1.373.1.966.966,0,0,0,.1-1.526L18.451,19.12H27.2a1.017,1.017,0,1,0,0-2.034H18.451l3.356-3.356a.966.966,0,0,0-.1-1.526,1.068,1.068,0,0,0-1.373.1L15.3,17.391a.966.966,0,0,0,0,1.424Z" transform="translate(-10.924 -7.932)" fill="#fff"/>
    </g>
  </g>
</svg>
