<svg xmlns="http://www.w3.org/2000/svg" width="31.766" height="22.236" viewBox="0 0 31.766 22.236">
  <path id="Icon_awesome-wifi" data-name="Icon awesome-wifi" d="M31.513,8.349a23.078,23.078,0,0,0-31.261,0A.789.789,0,0,0,.235,9.49l1.7,1.686a.806.806,0,0,0,1.112.019,19.043,19.043,0,0,1,25.673,0,.806.806,0,0,0,1.112-.019l1.7-1.686a.789.789,0,0,0-.018-1.141Zm-15.63,9.784A3.177,3.177,0,1,0,19.06,21.31,3.176,3.176,0,0,0,15.883,18.133Zm10.059-4.149a15.238,15.238,0,0,0-20.119,0A.785.785,0,0,0,5.8,15.133L7.5,16.82a.81.81,0,0,0,1.094.04,11.179,11.179,0,0,1,14.567,0,.81.81,0,0,0,1.094-.04l1.709-1.687A.785.785,0,0,0,25.942,13.984Z" transform="translate(0 -2.25)" fill="#6e6c5a"/>
</svg>
