<svg xmlns="http://www.w3.org/2000/svg" width="30" height="33" viewBox="0 0 30 33">
  <g id="Icon_feather-share-2" data-name="Icon feather-share-2" transform="translate(1.5 1.5)">
    <path id="Path_54341" data-name="Path 54341" d="M31.5,7.5A4.5,4.5,0,1,1,27,3a4.5,4.5,0,0,1,4.5,4.5Z" transform="translate(-4.5 -3)" fill="none" stroke="#002357" stroke-linecap="round" stroke-linejoin="round" stroke-width="3"/>
    <path id="Path_54342" data-name="Path 54342" d="M13.5,18A4.5,4.5,0,1,1,9,13.5,4.5,4.5,0,0,1,13.5,18Z" transform="translate(-4.5 -3)" fill="none" stroke="#002357" stroke-linecap="round" stroke-linejoin="round" stroke-width="3"/>
    <path id="Path_54343" data-name="Path 54343" d="M31.5,28.5A4.5,4.5,0,1,1,27,24,4.5,4.5,0,0,1,31.5,28.5Z" transform="translate(-4.5 -3)" fill="none" stroke="#002357" stroke-linecap="round" stroke-linejoin="round" stroke-width="3"/>
    <path id="Path_54344" data-name="Path 54344" d="M12.885,20.265l10.245,5.97" transform="translate(-4.5 -3)" fill="none" stroke="#002357" stroke-linecap="round" stroke-linejoin="round" stroke-width="3"/>
    <path id="Path_54345" data-name="Path 54345" d="M23.115,9.765l-10.23,5.97" transform="translate(-4.5 -3)" fill="none" stroke="#002357" stroke-linecap="round" stroke-linejoin="round" stroke-width="3"/>
  </g>
</svg>
