<svg xmlns="http://www.w3.org/2000/svg" xmlns:xlink="http://www.w3.org/1999/xlink" width="62" height="62" viewBox="0 0 62 62">
  <defs>
    <filter id="Rectangle_18362" x="0" y="0" width="62" height="62" filterUnits="userSpaceOnUse">
      <feOffset dy="3" input="SourceAlpha"/>
      <feGaussianBlur stdDeviation="3" result="blur"/>
      <feFlood flood-color="#414141" flood-opacity="0.353"/>
      <feComposite operator="in" in2="blur"/>
      <feComposite in="SourceGraphic"/>
    </filter>
  </defs>
  <g id="Group_55552" data-name="Group 55552" transform="translate(-88.859 -3053.859)">
    <g transform="matrix(1, 0, 0, 1, 88.86, 3053.86)" filter="url(#Rectangle_18362)">
      <rect id="Rectangle_18362-2" data-name="Rectangle 18362" width="44" height="44" rx="9" transform="translate(9 6)" fill="#fff" opacity="0.679"/>
    </g>
    <g id="Group_54179" data-name="Group 54179" transform="translate(108.881 3072.252)">
      <path id="Icon_awesome-heart" data-name="Icon awesome-heart" d="M19.827,3.561a5.865,5.865,0,0,0-8,.583l-.845.871-.845-.871a5.865,5.865,0,0,0-8-.583,6.158,6.158,0,0,0-.425,8.916l8.3,8.569a1.345,1.345,0,0,0,1.943,0l8.3-8.569a6.155,6.155,0,0,0-.42-8.916Z" transform="translate(0.001 -2.248)" fill="none" stroke="#6e6c5a" stroke-width="2"/>
    </g>
  </g>
</svg>
