<svg xmlns="http://www.w3.org/2000/svg" width="24.17" height="19.83" viewBox="0 0 24.17 19.83">
  <g id="Group_51878" data-name="Group 51878" transform="translate(-860.75 -459.407)">
    <path id="Path_54723" data-name="Path 54723" d="M861,468.69a3.33,3.33,0,0,1,1.33-1.207q6.158-3.577,12.3-7.186a4.3,4.3,0,0,1,3.571-.44c1.586.465,3.175.92,4.777,1.326a2.412,2.412,0,0,1,1.695,1.236v1.065c-.433,1.592-.891,3.179-1.291,4.779a4.548,4.548,0,0,1-2.3,2.989c-4.174,2.376-8.327,4.791-12.488,7.191-.171.1-.338.2-.514.29a1.672,1.672,0,0,1-2.264-.644c-1.62-2.769-3.214-5.554-4.817-8.333Zm15.683-8.311a8.181,8.181,0,0,0-1.433.528q-6.42,3.713-12.812,7.473c-.71.415-.818.847-.4,1.571q2.157,3.736,4.326,7.464c.456.785.824.891,1.591.449q6.5-3.746,13-7.5a3.168,3.168,0,0,0,1.535-2.008q.638-2.4,1.266-4.793c.249-.95.052-1.292-.9-1.557q-2.529-.707-5.062-1.4C877.48,460.515,877.147,460.47,876.683,460.379Z" transform="translate(0 0)" fill="#ff8027" stroke="#ff8027" stroke-width="0.5"/>
    <path id="Path_54724" data-name="Path 54724" d="M936.293,518.662c-.349-.022-.53-.265-.449-.514a1.594,1.594,0,0,1,.237-.405q1.647-2.311,3.3-4.618c.3-.42.516-.518.749-.364s.229.4-.07.82q-1.68,2.36-3.372,4.711A2.451,2.451,0,0,1,936.293,518.662Z" transform="translate(-65.969 -46.761)" fill="#ff8027"/>
    <path id="Path_54725" data-name="Path 54725" d="M1016.843,484.5a1.532,1.532,0,0,1,1.55,1.514,1.564,1.564,0,0,1-1.5,1.518,1.546,1.546,0,0,1-1.544-1.529A1.506,1.506,0,0,1,1016.843,484.5Zm.037,2.179a.641.641,0,0,0,.661-.665.689.689,0,0,0-.7-.708.732.732,0,0,0-.676.686A.68.68,0,0,0,1016.88,486.683Z" transform="translate(-136.081 -21.909)" fill="#ff8027"/>
    <path id="Path_54726" data-name="Path 54726" d="M958.56,545.127a1.294,1.294,0,0,1-1.329,1.341,1.326,1.326,0,1,1,.022-2.653A1.314,1.314,0,0,1,958.56,545.127Zm-.8,0a.5.5,0,0,0-.507-.463.48.48,0,1,0,.029.959A.5.5,0,0,0,957.757,545.129Z" transform="translate(-83.673 -74.2)" fill="#ff8027"/>
    <path id="Path_54727" data-name="Path 54727" d="M933.561,510.8a1.338,1.338,0,0,1-1.325,1.365,1.388,1.388,0,0,1-1.33-1.32,1.345,1.345,0,0,1,1.346-1.348A1.29,1.29,0,0,1,933.561,510.8Zm-1.318-.494a.51.51,0,0,0-.484.488.471.471,0,0,0,.5.518.482.482,0,0,0,.5-.473A.544.544,0,0,0,932.243,510.3Z" transform="translate(-61.632 -43.943)" fill="#ff8027"/>
    <path id="Path_54728" data-name="Path 54728" d="M1004.067,508.979c.665.023.932.419.715,1.062l.01-.009c-.748.04-1.032-.383-.715-1.062Z" transform="translate(-126.031 -43.479)" fill="#ff8027"/>
    <path id="Path_54729" data-name="Path 54729" d="M986.233,481.4a.83.83,0,0,1,.582.733.376.376,0,0,1-.441.361.845.845,0,0,1-.537-.7A.385.385,0,0,1,986.233,481.4Z" transform="translate(-110.062 -19.169)" fill="#ff8027"/>
    <path id="Path_54730" data-name="Path 54730" d="M1009.909,517.956a.664.664,0,0,1,.744.52.541.541,0,0,1-.108.491.562.562,0,0,1-.511-.047c-.33-.236-.342-.531-.114-.972Z" transform="translate(-131.159 -51.395)" fill="#ff8027"/>
    <path id="Path_54731" data-name="Path 54731" d="M889.895,539.929a.36.36,0,0,1-.416.345c-.219-.006-.562-.419-.562-.674a.392.392,0,0,1,.394-.421C889.555,539.158,889.9,539.6,889.895,539.929Z" transform="translate(-24.613 -70.113)" fill="#ff8027"/>
    <path id="Path_54732" data-name="Path 54732" d="M895.917,549.308c-.09.07-.224.241-.392.285-.228.06-.636-.409-.579-.681a.609.609,0,0,1,.345-.38C895.522,548.453,895.9,548.875,895.917,549.308Z" transform="translate(-29.924 -78.351)" fill="#ff8027"/>
    <path id="Path_54733" data-name="Path 54733" d="M907.865,568.355c-.477,0-.758-.156-.829-.539-.027-.143.039-.4.137-.446a.568.568,0,0,1,.508.06.667.667,0,0,1,.173.934Z" transform="translate(-40.583 -94.937)" fill="#ff8027"/>
    <path id="Path_54734" data-name="Path 54734" d="M913.83,577.016c-.744.036-1.028-.392-.709-1.065l-.01.009c.67.028.936.428.709,1.064Z" transform="translate(-45.838 -102.533)" fill="#ff8027"/>
    <path id="Path_54735" data-name="Path 54735" d="M998.825,501.353c-.477,0-.76-.163-.828-.543-.026-.144.041-.4.139-.446a.574.574,0,0,1,.509.062.676.676,0,0,1,.17.936Z" transform="translate(-120.779 -35.862)" fill="#ff8027"/>
    <path id="Path_54736" data-name="Path 54736" d="M1016.479,528.109a.384.384,0,0,1-.435.372.764.764,0,0,1-.536-.683.369.369,0,0,1,.426-.377C1016.159,527.431,1016.49,527.861,1016.479,528.109Z" transform="translate(-136.222 -59.746)" fill="#ff8027"/>
    <path id="Path_54737" data-name="Path 54737" d="M918.952,584.955a.654.654,0,0,1,.745.521.539.539,0,0,1-.135.488.566.566,0,0,1-.508-.079c-.3-.236-.306-.489-.092-.938Z" transform="translate(-50.971 -110.464)" fill="#ff8027"/>
    <path id="Path_54738" data-name="Path 54738" d="M992.8,491.539a1.306,1.306,0,0,1-.416.284c-.211.053-.56-.392-.564-.668a.357.357,0,0,1,.4-.406C992.443,490.751,992.79,491.157,992.8,491.539Z" transform="translate(-115.336 -27.415)" fill="#ff8027"/>
    <path id="Path_54739" data-name="Path 54739" d="M901.162,557.68a.821.821,0,0,1,.677.683.394.394,0,0,1-.416.409.754.754,0,0,1-.548-.742C900.921,557.878,901.092,557.762,901.162,557.68Z" transform="translate(-35.148 -86.424)" fill="#ff8027"/>
  </g>
</svg>
