<svg xmlns="http://www.w3.org/2000/svg" width="31.037" height="27.763" viewBox="0 0 31.037 27.763">
  <g id="room_icon" data-name="room icon" transform="translate(-843 -435)">
    <path id="Path_48917" data-name="Path 48917" d="M871.025,462.763H845.881c-.4-.249-.383-.645-.383-1.043q0-6.279,0-12.558c0-.293-.035-.585-.059-.947A1.881,1.881,0,0,1,843,447.048V446a3.086,3.086,0,0,1,1.268-1.441c1.6-1.051,3.184-2.14,4.769-3.221q4.645-3.166,9.285-6.339h.262q7.061,4.769,14.127,9.531A3.391,3.391,0,0,1,874.037,446v1.048c-.609,1.182-1.039,1.4-2.588,1.273-.015.3-.042.6-.043.9q-.008,6.251-.007,12.5C871.4,462.115,871.43,462.515,871.025,462.763Zm-12.588-1.252q5.5,0,11,0c.734,0,.743-.008.743-.722,0-4.211,0-8.421.008-12.632a1.018,1.018,0,0,0-.509-.964q-5.293-3.5-10.558-7.04a.846.846,0,0,0-1.1-.012q-5.32,3.516-10.675,6.98a1.157,1.157,0,0,0-.6,1.109c.016,4.145.008,8.29.01,12.435,0,.843,0,.845.886.846Z"/>
    <path id="Path_48918" data-name="Path 48918" d="M887.13,590.47q-2.125,0-4.25,0a1.112,1.112,0,0,1-1.155-1.111c-.019-.435.024-.871.019-1.307-.01-.725-.083-.808-.794-1a1.1,1.1,0,0,1-.831-1.345,1.319,1.319,0,0,1,1.551-.88,1.892,1.892,0,0,1,1.377,1.287c.229.665.617.8,1.257.8a18.516,18.516,0,0,0,2.717.152c1.29-.2,2.554.106,3.82-.051.162-.02.326-.234.44-.393a16.1,16.1,0,0,1,.951-1.39,1.026,1.026,0,0,1,1.412-.252,1.079,1.079,0,0,1,.622,1.125c-.064.522-.427.831-1.055,1a.772.772,0,0,0-.462.421,3.078,3.078,0,0,0-.1.9c-.01.282.039.567.019.848a1.249,1.249,0,0,1-1.286,1.205Z" transform="translate(-32.224 -130.175)"/>
    <path id="Path_48919" data-name="Path 48919" d="M930.106,505.68h8.085c.024.227.065.433.066.64q.008,2.091,0,4.182c0,.65-.028.683-.648.685-2.309.007-4.618,0-6.926.006-.4,0-.666-.054-.659-.558.022-1.524.009-3.049.014-4.574A2.6,2.6,0,0,1,930.106,505.68Zm.535.63v4.176h7.014V506.31Z" transform="translate(-75.628 -61.424)"/>
    <path id="Path_48920" data-name="Path 48920" d="M1002.913,561.857l.779-3.105c.831,0,1.613-.012,2.393.011a.5.5,0,0,1,.382.248c.257.915.479,1.839.733,2.846Z" transform="translate(-138.971 -107.543)"/>
    <path id="Path_48921" data-name="Path 48921" d="M927.356,573.369h-1.97c-.03-.252-.073-.482-.083-.714-.036-.76-.056-1.522-.09-2.282-.029-.644.125-.883.764-.984a3.117,3.117,0,0,1,.963.036.679.679,0,0,1,.636.819C927.487,571.277,927.428,572.312,927.356,573.369Z" transform="translate(-71.442 -116.769)"/>
    <path id="Path_48922" data-name="Path 48922" d="M1008.584,590.484v-4.526h.77v4.525a3.84,3.84,0,0,1,.834.075c.142.046.235.246.349.376-.123.1-.242.278-.368.282-.784.027-1.569.03-2.352,0-.132-.005-.255-.218-.382-.334.134-.115.252-.279.408-.333A3.326,3.326,0,0,1,1008.584,590.484Z" transform="translate(-142.9 -131.189)"/>
    <path id="Path_48923" data-name="Path 48923" d="M943.516,577.332c.059-1.062.107-2.077.184-3.09a.424.424,0,0,1,.29-.291,4.089,4.089,0,0,1,1.088.052c.35.076.461.354.359.713-.184.649-.354,1.3-.53,1.953-.194.719-.194.72-.916.7C943.882,577.37,943.774,577.355,943.516,577.332Z" transform="translate(-87.353 -120.744)"/>
    <path id="Path_48924" data-name="Path 48924" d="M911.72,577.5c-1.083.206-1.12.186-1.373-.7-.155-.542-.291-1.09-.469-1.625a.649.649,0,0,1,.393-.9,3.947,3.947,0,0,1,1.18-.068c.039,0,.111.136.115.212C911.623,575.446,911.671,576.479,911.72,577.5Z" transform="translate(-58.074 -120.964)"/>
    <path id="Path_48925" data-name="Path 48925" d="M955.607,580.427h-.915c.238-.866.443-1.685.693-2.49a.714.714,0,0,1,.988-.37,3.219,3.219,0,0,1,.783.8c.02.023-.1.174-.159.258C956.551,579.2,956.1,579.783,955.607,580.427Z" transform="translate(-97.065 -123.829)"/>
    <path id="Path_48926" data-name="Path 48926" d="M894.985,578.2a3.852,3.852,0,0,1,.628-.578.717.717,0,0,1,1.143.472c.207.683.4,1.371.6,2.053-.7.242-.793.2-1.074-.332a5.335,5.335,0,0,0-.491-.844A8.315,8.315,0,0,0,894.985,578.2Z" transform="translate(-45.177 -123.823)"/>
    <path id="Path_48927" data-name="Path 48927" d="M945.226,521.734l.747-.976c.612.643.612.643,1.288-.691l.6.747.957-1.376.913,2.3Z" transform="translate(-88.839 -73.38)"/>
    <path id="Path_48928" data-name="Path 48928" d="M948.722,515.385c.231.291.474.464.464.619a.638.638,0,0,1-.428.423c-.111.026-.4-.227-.406-.366C948.341,515.887,948.537,515.7,948.722,515.385Z" transform="translate(-91.555 -69.858)"/>
  </g>
</svg>
