<svg xmlns="http://www.w3.org/2000/svg" width="32.66" height="32.595" viewBox="0 0 32.66 32.595">
  <g id="Group_54528" data-name="Group 54528" transform="translate(7648.125 -1269.875)">
    <path id="Path_54577" data-name="Path 54577" d="M867.4,424h3.6c.143.038.285.087.43.112,6.762,1.163,11.208,5.024,13.356,11.522a27.333,27.333,0,0,1,.619,2.77v3.6c-.04.168-.091.335-.119.506a16.092,16.092,0,0,1-8.7,12.126,17.7,17.7,0,0,1-5.412,1.707H867.2l-1.075-.213a16.265,16.265,0,0,1-12.883-12.958c-.074-.391-.159-.779-.239-1.169v-3.6c.043-.194.091-.386.127-.581q1.871-10.161,11.726-13.262C865.681,424.3,866.553,424.184,867.4,424Zm.36,13.433a4.856,4.856,0,0,0,.355.417,21.769,21.769,0,0,0,2.757,2.525,6.528,6.528,0,0,1,1.082,1.228c.44.5.768,1.157,1.492,1.286a2.814,2.814,0,0,1,2.23,2.081,1.924,1.924,0,0,0,.28.683c.841.885,1.714,1.74,2.649,2.68a12.445,12.445,0,0,0-6.64-20.257c-4.33-1.079-8.892.655-10.829,2.781.7.754,1.448,1.468,2.207,2.223.186-.37.3-.647.457-.9a2.327,2.327,0,0,1,3.813-.478,4.01,4.01,0,0,1,1.178,2.607A3.965,3.965,0,0,1,867.764,437.433Zm-7.978-5.38A12,12,0,0,0,857.27,443.6c1.572,5.221,5.225,8.182,10.628,8.942,3.317.467,7.691-1,9.319-3.024l-1.638-1.658c-.129.2-.243.392-.37.574a2.191,2.191,0,0,1-2.6.97c-.386-.1-.757-.255-1.143-.357a6.334,6.334,0,0,0-1.166-.246,8.189,8.189,0,0,0-3.69.43c-.23.092-.483.122-.723.193a2.119,2.119,0,0,1-2.474-.942,3.746,3.746,0,0,1-.641-2.923,2.886,2.886,0,0,1,2.656-2.681.846.846,0,0,0,.484-.394,7.145,7.145,0,0,1,1.916-2.434c-.568-.568-1.08-1.111-1.627-1.616a4.286,4.286,0,0,0-.908-.629,3.006,3.006,0,0,1-1.432-1.38,5.4,5.4,0,0,0-1.237-1.579q-1.06-1.061-2.125-2.116C860.3,432.521,860.075,432.324,859.786,432.053Z" transform="translate(-8501 846)" fill="#6e6c5a" stroke="#e4e4e4" stroke-width="0.25"/>
    <path id="Path_54578" data-name="Path 54578" d="M962.83,473.421a4.584,4.584,0,0,1,1.249-2.944,2.386,2.386,0,0,1,4,.588,4.364,4.364,0,0,1-.578,4.762,2.4,2.4,0,0,1-4.2-.622A10.868,10.868,0,0,1,962.83,473.421Z" transform="translate(-8594.35 807.204)" fill="#6e6c5a"/>
    <path id="Path_54579" data-name="Path 54579" d="M996.144,510.347a3.755,3.755,0,0,1-1.444,2.933,2.081,2.081,0,0,1-3.325-.887,3.79,3.79,0,0,1,.963-4.168,2.121,2.121,0,0,1,3.6,1.03A9.042,9.042,0,0,1,996.144,510.347Z" transform="translate(-8618.388 774.958)" fill="#6e6c5a"/>
    <path id="Path_54580" data-name="Path 54580" d="M897.635,510.266a2.9,2.9,0,0,1,.452-1.666,2.029,2.029,0,0,1,2.8-.729,3.687,3.687,0,0,1,1.272,4.9,2.038,2.038,0,0,1-2.862.694A3.635,3.635,0,0,1,897.635,510.266Z" transform="translate(-8538.938 774.956)" fill="#6e6c5a"/>
  </g>
</svg>
