<svg xmlns="http://www.w3.org/2000/svg" width="44" height="44" viewBox="0 0 44 44">
  <g id="Group_54695" data-name="Group 54695" transform="translate(-327.364 -155.364)">
    <g id="Group_52097" data-name="Group 52097" transform="translate(327 155)">
      <g id="Group_52095" data-name="Group 52095" transform="translate(0 0)">
        <rect id="Rectangle_9568" data-name="Rectangle 9568" width="44" height="44" rx="8" transform="translate(0.364 0.364)" fill="#fff" opacity="0.772"/>
      </g>
    </g>
    <g id="Group_52099" data-name="Group 52099" transform="translate(331.385 166.475)">
      <path id="Path_54790" data-name="Path 54790" d="M352.523,292.324c0,1,.012,2.01,0,3.014a3.2,3.2,0,0,1-.434,1.7,2.8,2.8,0,0,1-2.126,1.333,5.645,5.645,0,0,1-2.4-.162,2.681,2.681,0,0,1-1.834-2.028,6.064,6.064,0,0,1-.139-1.613c0-1.542,0-3.084,0-4.625a7.339,7.339,0,0,1,.2-1.773,2.321,2.321,0,0,1,1.355-1.619,4.3,4.3,0,0,1,4.068.181,2.445,2.445,0,0,1,1.233,1.938c.072.613.08,1.234.1,1.852.015.6,0,1.2,0,1.807Zm-2.934-.059h.01c0-1.023,0-2.045,0-3.068a7.765,7.765,0,0,0-.065-.875c-.031-.256-.178-.36-.453-.357s-.434.11-.465.364a6.345,6.345,0,0,0-.066.758q-.007,3.234,0,6.468a4.836,4.836,0,0,0,.051.677c.037.257.164.354.43.364.282.011.436-.085.487-.341a3.4,3.4,0,0,0,.07-.641C349.593,294.5,349.59,293.383,349.59,292.266Z" transform="translate(-323.304 -284.702)" fill="#505050"/>
      <path id="Path_54791" data-name="Path 54791" d="M264.643,289.517h-2.984c0-.1,0-.2,0-.293-.008-.265-.005-.531-.031-.794a.517.517,0,0,0-.547-.45.489.489,0,0,0-.553.412,5.616,5.616,0,0,0-.042.76c-.006.63,0,1.26,0,1.89,0,.031.006.062.009.1.02-.006.035-.005.038-.011a1.785,1.785,0,0,1,1.63-.837,2.416,2.416,0,0,1,1.909.8,2,2,0,0,1,.48,1.193,23.246,23.246,0,0,1,.04,3.229,3.5,3.5,0,0,1-.183,1.156,2.5,2.5,0,0,1-1.658,1.528,5.17,5.17,0,0,1-3.352-.041,2.54,2.54,0,0,1-1.771-2.2,18.135,18.135,0,0,1-.094-2.184q-.01-2.188.028-4.377a4.377,4.377,0,0,1,.153-1.177,2.71,2.71,0,0,1,2.033-1.9,5.343,5.343,0,0,1,2.753,0,2.532,2.532,0,0,1,2.01,2.091C264.577,288.766,264.6,289.135,264.643,289.517Zm-4.142,4.894h-.018c0,.094,0,.188,0,.281.017.48.018.961.059,1.439a.468.468,0,0,0,.494.476.547.547,0,0,0,.557-.467,3.841,3.841,0,0,0,.063-.625q.013-1.177,0-2.354a3.3,3.3,0,0,0-.07-.624.473.473,0,0,0-.5-.417.485.485,0,0,0-.541.407,1.135,1.135,0,0,0-.048.276C260.5,293.341,260.5,293.876,260.5,294.412Z" transform="translate(-243.188 -284.715)" fill="#505050"/>
      <path id="Path_54792" data-name="Path 54792" d="M172.693,292.643v-1.7l.207-.012c.32-.019.64-.032.959-.059a.523.523,0,0,0,.512-.482c.052-.47.064-.946.074-1.419a2.917,2.917,0,0,0-.064-.639.415.415,0,0,0-.473-.346c-.263.007-.421.115-.447.373-.042.411-.05.825-.068,1.239-.006.142,0,.284,0,.437H170.47a.176.176,0,0,1-.02-.059c.025-.645.025-1.293.088-1.934a1.836,1.836,0,0,1,.59-1.211,2.291,2.291,0,0,1,1.061-.515,7.036,7.036,0,0,1,3.171.022,2.325,2.325,0,0,1,1.812,1.86,4.907,4.907,0,0,1,.054,1.958,1.653,1.653,0,0,1-.771,1.129c-.109.074-.22.144-.342.225.107.054.2.1.3.15a1.538,1.538,0,0,1,.86,1.146,10.886,10.886,0,0,1,.1,2.644,5.9,5.9,0,0,1-.179,1.076,2.33,2.33,0,0,1-1.592,1.68,5.578,5.578,0,0,1-2.325.214,3.646,3.646,0,0,1-1.43-.385,2.236,2.236,0,0,1-1.308-1.9c-.059-.842-.063-1.689-.09-2.533a.351.351,0,0,1,.015-.071h2.927c0,.067,0,.131,0,.194.006.735.01,1.47.019,2.205a2.012,2.012,0,0,0,.043.345.357.357,0,0,0,.392.345c.275.017.452-.072.507-.3a3.092,3.092,0,0,0,.086-.655c.013-.58.012-1.161,0-1.741a2.387,2.387,0,0,0-.074-.557.777.777,0,0,0-.695-.639c-.252-.03-.505-.048-.758-.07C172.843,292.648,172.773,292.647,172.693,292.643Zm.224,4.332.01,0-.01.012v-.009Zm-.265-.265.01,0-.01.012v-.008Zm-.265-.265.01,0-.01.012v-.009Zm-.265-.265.01,0-.01.012v-.009Zm-.265-.265.01,0-.01.012v-.009Zm-.265-.266.01,0-.01.012v-.009Zm-.4-.4,0,.009,0-.011Zm-.265-.266,0,.008,0-.011Z" transform="translate(-163.965 -284.72)" fill="#505050"/>
      <path id="Path_54793" data-name="Path 54793" d="M118.647,349.91c-.253.122-.5.251-.759.366q-2.32,1.039-4.642,2.073c-.039.017-.08.029-.142.052v-1.49c-.488-.057-.959-.11-1.43-.169a30.42,30.42,0,0,1-3.337-.615,23.367,23.367,0,0,1-4.607-1.594,13.29,13.29,0,0,1-3-1.905,7.2,7.2,0,0,1-1.336-1.486,4.48,4.48,0,0,1-.812-2.631,4.548,4.548,0,0,1,.863-2.483,8.666,8.666,0,0,1,2.343-2.219,15.583,15.583,0,0,1,2.091-1.174c.034-.016.071-.026.107-.039.061.238.052.252-.149.366a8.508,8.508,0,0,0-2.651,2.189,3.653,3.653,0,0,0-.743,3.253,4.251,4.251,0,0,0,.92,1.687,9.777,9.777,0,0,0,3.268,2.384,20.971,20.971,0,0,0,4.516,1.548,30.744,30.744,0,0,0,3.689.615c.081.009.163.009.263.015v-1.3c.215.093.4.174.594.258l2.766,1.237q1.058.474,2.114.952a1.2,1.2,0,0,1,.112.065l-.012.016a.024.024,0,0,1-.021.02Z" transform="translate(-98.585 -330.623)" fill="#505050"/>
      <path id="Path_54794" data-name="Path 54794" d="M339.638,350.75c0-.063-.011-.112-.011-.16,0-.636,0-1.272,0-1.907,0-.125.035-.172.163-.185a27.681,27.681,0,0,0,5.488-1.136,17.035,17.035,0,0,0,3.456-1.5,8.518,8.518,0,0,0,2.372-1.944,3.892,3.892,0,0,0,.979-2.608,3.851,3.851,0,0,0-.829-2.23,8.016,8.016,0,0,0-2.368-2.043,2.052,2.052,0,0,0-.3-.175c-.181-.07-.223-.191-.17-.387.18.085.359.165.534.253a13.545,13.545,0,0,1,2.332,1.449,6.729,6.729,0,0,1,2.228,2.748,4.214,4.214,0,0,1-.531,4.151,9.38,9.38,0,0,1-3.188,2.766,19.941,19.941,0,0,1-4.332,1.8,28.68,28.68,0,0,1-3.991.882c-.563.083-1.128.148-1.692.221C339.737,350.748,339.7,350.747,339.638,350.75Z" transform="translate(-317.876 -330.507)" fill="#505050"/>
      <path id="Path_54795" data-name="Path 54795" d="M428.948,272.553a2.252,2.252,0,0,1-.4,1.276,1.426,1.426,0,0,1-2.362.012,2.749,2.749,0,0,1,.127-3,1.423,1.423,0,0,1,2.214.137A2.745,2.745,0,0,1,428.948,272.553Zm-2.326-.245a1.852,1.852,0,0,0,.177.943.6.6,0,0,0,1.1.047,1.885,1.885,0,0,0-.037-1.823.565.565,0,0,0-.969-.024A1.455,1.455,0,0,0,426.622,272.308Z" transform="translate(-396.284 -270.377)" fill="#505050"/>
      <path id="Path_54796" data-name="Path 54796" d="M321.28,483.7l.04.022-.044.015,0,0a.018.018,0,0,1-.01-.023Z" transform="translate(-301.177 -464.455)" fill="#505050"/>
      <path id="Path_54797" data-name="Path 54797" d="M320.99,484.08l-.037,0,.008-.006.016,0,.015.006Z" transform="translate(-300.89 -464.797)" fill="#505050"/>
    </g>
  </g>
</svg>
