<svg xmlns="http://www.w3.org/2000/svg" width="30" height="31.5" viewBox="0 0 30 31.5">
  <path id="Icon_material-smoke-free" data-name="Icon material-smoke-free" d="M3,9,13.485,19.5H3V24H17.985l10.5,10.5,1.89-1.875-25.5-25.5ZM30.75,19.5H33V24H30.75ZM27,19.5h2.25V24H27ZM28.275,7.32a4.985,4.985,0,0,0,1.5-3.57h-2.25A2.778,2.778,0,0,1,24.75,6.525v2.25a6.031,6.031,0,0,1,6,6.1V18H33V14.88a8.336,8.336,0,0,0-4.725-7.56ZM21.75,13.05h2.3A2.891,2.891,0,0,1,27,16.125V18h2.25V15.615a4.979,4.979,0,0,0-5.2-4.74h-2.3a2.98,2.98,0,0,1-2.775-3A2.654,2.654,0,0,1,21.75,5.25V3a5.025,5.025,0,1,0,0,10.05ZM25.5,23.9V19.5H21.1Z" transform="translate(-3 -3)" fill="#6e6c5a"/>
</svg>
