<svg xmlns="http://www.w3.org/2000/svg" width="18.971" height="17.616" viewBox="0 0 18.971 17.616">
  <path id="Icon_ionic-ios-star" data-name="Icon ionic-ios-star" d="M20.5,9.473H14.272L12.379,3.824a.686.686,0,0,0-1.287,0L9.2,9.473H2.928a.68.68,0,0,0-.678.678.5.5,0,0,0,.013.114.651.651,0,0,0,.284.479l5.12,3.608L5.7,20.063a.679.679,0,0,0,.233.762.655.655,0,0,0,.381.165.83.83,0,0,0,.423-.152l5-3.561,5,3.561a.793.793,0,0,0,.423.152.608.608,0,0,0,.377-.165.671.671,0,0,0,.233-.762L15.8,14.351l5.077-3.642L21,10.6a.71.71,0,0,0,.22-.453A.717.717,0,0,0,20.5,9.473Z" transform="translate(-2.25 -3.375)" fill="#ff6517"/>
</svg>
