<svg xmlns="http://www.w3.org/2000/svg" width="324.991" height="244.217" viewBox="0 0 324.991 244.217">
  <g id="Group_55358" data-name="Group 55358" transform="translate(-912.137 -2463.149)">
    <path id="Path_57279" data-name="Path 57279" d="M1154.028,2480.313c-3.863,1.721-6.952,3.03-9.982,4.469a67.6,67.6,0,0,0-23.355,18.512c-1.673,2.038-3.111,2.38-5.6,1.774-43.3-10.559-85.115-6.542-125.232,13.175a176.239,176.239,0,0,0-45.79,32.8c-8.068,7.918-18.669,8.41-26.161,1.348-7.668-7.231-7.716-18.711-.016-26.438a209.7,209.7,0,0,1,40.126-31.455,216.44,216.44,0,0,1,192.918-15.69C1151.753,2479.132,1152.524,2479.578,1154.028,2480.313Z" transform="translate(0 0)" fill="#fbd4a3"/>
    <path id="Path_57280" data-name="Path 57280" d="M1097.518,2529.992a61.574,61.574,0,0,1-59.309,63.791c-31.524,1.413-60.816-21.585-63.927-56.631a61.74,61.74,0,1,1,123.236-7.16ZM1035.7,2572.2c22.477.056,40.088-17.7,40.166-40.493.075-21.836-18.034-39.782-40.166-39.8-21.708-.023-39.979,18.038-40.07,39.609C995.534,2554.181,1013.227,2572.147,1035.7,2572.2Z" transform="translate(139.568 16.279)" fill="#fbd4a3"/>
    <path id="Path_57281" data-name="Path 57281" d="M1075.287,2525.779c-1.406-.335-2.493-.556-3.56-.852-42.955-11.932-80.943-3.153-113.626,27.4-8.1,7.576-19.287,7.886-26.483.406-7.115-7.391-6.734-18.535,1.055-26.144q37.61-36.728,89.916-42.266a153.948,153.948,0,0,1,46.9,2.5c2.422.5,3.954,1.178,3.447,4.29a69.426,69.426,0,0,0,2.18,32.353A12.024,12.024,0,0,1,1075.287,2525.779Z" transform="translate(32.483 45.98)" fill="#fbd4a3"/>
    <path id="Path_57282" data-name="Path 57282" d="M1004.549,2503.9c23.277.351,42.577,8.119,58.671,23.6,7.853,7.557,8.218,18.852,1.1,26.167-7.216,7.418-18.284,7.4-26.219-.056-19.371-18.179-46.928-18.1-66.049.2-7.57,7.241-18.789,7.206-25.9-.084a17.958,17.958,0,0,1,.329-25.615C962.815,2511.995,982.619,2504.2,1004.549,2503.9Z" transform="translate(64.956 91.887)" fill="#fbd4a3"/>
    <path id="Path_57283" data-name="Path 57283" d="M1000.725,2547.455a23.428,23.428,0,0,1-23.974,23.5c-13.126-.058-23.44-10.734-23.339-24.156.094-12.839,10.871-23.228,24-23.14A23.5,23.5,0,0,1,1000.725,2547.455Z" transform="translate(93.06 136.416)" fill="#fbd4a3"/>
    <path id="Path_57284" data-name="Path 57284" d="M998.877,2544.554c-5.5-5.426-10.376-10.226-15.837-15.605l18.216-16.725-18.119-17.012,15.756-15.437,16.417,17.768c6.024-6.461,11.32-12.137,17.054-18.284,5.239,5.272,9.929,9.889,14.418,14.7.358.38-.391,2.379-1.133,3.111-4.911,4.823-9.959,9.51-15.58,14.818,5.318,5.116,9.852,9.731,14.672,14.024,2.773,2.468,2.955,4.178.065,6.733-4.15,3.672-7.925,7.769-12.426,12.248L1015.6,2526.78Z" transform="translate(159.86 36.317)" fill="#f7942c" stroke="#fff" stroke-width="4"/>
  </g>
</svg>
