<svg xmlns="http://www.w3.org/2000/svg" width="28.46" height="40.544" viewBox="0 0 28.46 40.544">
  <g id="Group_51441" data-name="Group 51441" transform="translate(-647.591 -823.774)">
    <path id="Path_53479" data-name="Path 53479" d="M27.919,21.837A4.919,4.919,0,1,0,23,16.919,4.925,4.925,0,0,0,27.919,21.837Zm0-8.432a3.513,3.513,0,1,1-3.514,3.513A3.517,3.517,0,0,1,27.919,13.405Z" transform="translate(634.027 820.956)" fill="#1a1a1a" stroke="#1a1a1a" stroke-width="1.5"/>
    <path id="Path_53480" data-name="Path 53480" d="M24.122,38.476,34.9,22.907c4.043-5.39,3.459-14.25-1.252-18.96a13.475,13.475,0,0,0-19.057,0C9.883,8.656,9.3,17.516,13.325,22.885ZM15.587,4.941a12.071,12.071,0,0,1,17.07,0c4.251,4.25,4.775,12.253,1.105,17.145l-9.64,13.922L14.466,22.064C10.812,17.193,11.336,9.191,15.587,4.941Z" transform="translate(637.701 824.524)" fill="#1a1a1a" stroke="#1a1a1a" stroke-width="1.5"/>
  </g>
</svg>
