<svg id="Group_55198" data-name="Group 55198" xmlns="http://www.w3.org/2000/svg" width="62.161" height="64.429" viewBox="0 0 62.161 64.429">
  <g id="Group_55188" data-name="Group 55188" transform="translate(0 0)">
    <path id="Path_57364" data-name="Path 57364" d="M762.3,2520.077c-4.455,3.624-6.912,8.214-6.91,13.892,0,5.654,2.416,10.239,6.893,13.912-.335.015-.566.035-.8.035q-11.907,0-23.815,0-5.121,0-10.242,0a2.608,2.608,0,0,1-2.8-2.833c0-2.974.068-5.95-.016-8.922a13.935,13.935,0,0,1,4.558-10.753,25.1,25.1,0,0,1,10.207-5.829,36.593,36.593,0,0,1,22.275.242C761.841,2519.886,762.024,2519.967,762.3,2520.077Z" transform="translate(-724.607 -2483.488)" fill="#fff"/>
    <path id="Path_57365" data-name="Path 57365" d="M820.181,2243.738a15.491,15.491,0,1,1-15.524,15.389A15.486,15.486,0,0,1,820.181,2243.738Z" transform="translate(-794.594 -2243.737)" fill="#fff"/>
    <path id="Path_57366" data-name="Path 57366" d="M1010.96,2560.356c-7.976.152-13.941-6.944-13.882-13.962a13.84,13.84,0,0,1,13.954-13.917,14.019,14.019,0,0,1,13.953,13.864A13.836,13.836,0,0,1,1010.96,2560.356Zm-1.163-12.189v.707c0,1.55.011,3.1-.008,4.649,0,.406.128.573.537.559.544-.019,1.09-.025,1.633,0,.451.019.6-.187.559-.6-.017-.187,0-.377,0-.565,0-1.382.013-2.764-.009-4.146-.007-.459.146-.669.613-.627.145.013.293,0,.44,0,1.424,0,2.848,0,4.272-.006.228,0,.57.093.581-.292.023-.869.007-1.74.007-2.7h-5.907v-5.858h-2.737v5.9h-5.839v2.982Z" transform="translate(-962.825 -2496.178)" fill="#fff"/>
  </g>
</svg>
