<svg xmlns="http://www.w3.org/2000/svg" width="23.923" height="23.916" viewBox="0 0 23.923 23.916">
  <path id="Path_54654" data-name="Path 54654" d="M147.718,111.311a.507.507,0,0,0,.5-.5v-1.555A1.251,1.251,0,0,0,146.972,108H126.051a1.251,1.251,0,0,0-1.251,1.251v20.914a1.251,1.251,0,0,0,1.251,1.251h20.914a1.251,1.251,0,0,0,1.251-1.251V115.174a.5.5,0,1,0-1.009,0v3.38h-6.462a.5.5,0,0,0,0,1.009h6.462v4.216h-2.281a.5.5,0,1,0,0,1.009h2.288v5.384a.24.24,0,0,1-.242.242h-11.8v-5.633h4.886a.5.5,0,0,0,0-1.009H130.9a.5.5,0,1,0,0,1.009h3.262v5.633h-8.114a.24.24,0,0,1-.242-.242v-5.384h1.631a.5.5,0,1,0,0-1.009H125.8v-7.4h7.658a.507.507,0,0,0,.5-.5v-2.336a.5.5,0,1,0-1.009,0v1.832H125.8v-6.124a.24.24,0,0,1,.242-.242h6.911v1.417a.5.5,0,1,0,1.009,0v-1.417h6.282v7a.5.5,0,1,0,1.009,0v-7h5.709a.24.24,0,0,1,.242.242v1.555A.518.518,0,0,0,147.718,111.311Z" transform="translate(-124.55 -107.75)" fill="#636363" stroke="#616161" stroke-width="0.5"/>
</svg>
