<svg xmlns="http://www.w3.org/2000/svg" width="36" height="36" viewBox="0 0 36 36">
  <g id="Group_54977" data-name="Group 54977" transform="translate(-21255 10343)">
    <circle id="Ellipse_1082" data-name="Ellipse 1082" cx="18" cy="18" r="18" transform="translate(21255 -10343)" fill="#ff8027"/>
    <path id="Path_54910" data-name="Path 54910" d="M56.923,46.132c0,.5.032.993-.011,1.484a3.245,3.245,0,0,1-.255,1.028,1.214,1.214,0,0,1-1.7.7,5.605,5.605,0,0,1-1.365-.894c-.653-.546-1.256-1.151-1.884-1.726a4.875,4.875,0,0,0-3.26-1.406c-1.537-.025-3.075,0-4.612.035a4.359,4.359,0,0,0-2.672,1.17c-.717.6-1.368,1.273-2.077,1.882a5.733,5.733,0,0,1-1.274.889,1.306,1.306,0,0,1-1.913-.827,2.587,2.587,0,0,1-.187-.8,24.964,24.964,0,0,1,1.746-10.488,3.6,3.6,0,0,1,3.682-2.374,6.367,6.367,0,0,1,1.438.345,11.015,11.015,0,0,0,7.2.1,7.229,7.229,0,0,1,2.329-.431,3.37,3.37,0,0,1,2.978,2.159,17.712,17.712,0,0,1,1.433,4.8c.25,1.43.344,2.887.507,4.332ZM41.1,40.773l.981-.124V39.54c-.938-.151-.938-.151-1.224-1.229l-1,.048c-.1.4-.084.785-.266.944-.214.187-.6.176-.935.257v1.062l1,.172.195.9h1.078ZM53.09,39.211a.984.984,0,0,0-.912.878.875.875,0,0,0,.794.795.829.829,0,0,0,.883-.768A.877.877,0,0,0,53.09,39.211Zm-4.121.817a.809.809,0,1,0,1.615.015.853.853,0,0,0-.761-.831A.839.839,0,0,0,48.969,40.028ZM50.606,41.7a.773.773,0,0,0,.738.822.843.843,0,0,0,.074-1.684A.856.856,0,0,0,50.606,41.7Zm.791-4.062a.74.74,0,0,0-.789.828.777.777,0,0,0,.851.778.791.791,0,0,0,.759-.8A.769.769,0,0,0,51.4,37.639Z" transform="translate(21226.637 -10367.133)" fill="#fff"/>
  </g>
</svg>
