<svg xmlns="http://www.w3.org/2000/svg" width="57.924" height="58.386" viewBox="0 0 57.924 58.386">
  <g id="Group_55278" data-name="Group 55278" transform="translate(-1255.164 -383.56)">
    <path id="Path_57398" data-name="Path 57398" d="M1369.971,521.861a33.819,33.819,0,0,1-3.721-.988,17.769,17.769,0,0,1-11.761-14.007,18.278,18.278,0,1,1,21.663,14.768c-.388.08-.777.151-1.166.227Zm1.282-7.573c0,.3-.008.582,0,.864a1.015,1.015,0,0,0,.6.9,1.486,1.486,0,0,0,2.3-1.341c.008-.316.091-.46.427-.536a6.008,6.008,0,0,0,4.831-6.285,5.324,5.324,0,0,0-2.826-4.745,10.24,10.24,0,0,0-3.074-.977,8.715,8.715,0,0,1-2.853-.918,3.135,3.135,0,0,1,.243-5.51,3.848,3.848,0,0,1,2.159-.363,2.973,2.973,0,0,1,2.673,1.9c.373.9.77,1.105,1.735.926a1.2,1.2,0,0,0,.99-1.87,5.011,5.011,0,0,0-3.312-2.984c-.771-.215-1.1-.5-1.018-1.326a1.065,1.065,0,0,0-.924-1.128c-.957-.156-1.61.041-1.849.619a2.4,2.4,0,0,0-.115.832c-.019.665-.01.664-.638.829a5.536,5.536,0,0,0-3.468,2.493,5.7,5.7,0,0,0-.784,3.325,4.74,4.74,0,0,0,2.726,4.4,26.991,26.991,0,0,0,3.151,1.114c.842.28,1.714.482,2.536.811a2.582,2.582,0,0,1,1.6,1.679,3.679,3.679,0,0,1-3.439,4.967,3.784,3.784,0,0,1-3.954-3.007c-.3-.933-.893-1.176-2.054-.839a1.173,1.173,0,0,0-.756,1.6,5.656,5.656,0,0,0,3.707,4.143C1370.292,514.012,1370.73,514.13,1371.253,514.288Z" transform="translate(-77.688 -79.916)" fill="#fff"/>
    <path id="Path_57399" data-name="Path 57399" d="M1255.368,425.5c.473.3.858.572,1.265.8a21.013,21.013,0,0,0,5.867,2.1,49.417,49.417,0,0,0,7.48,1.054,63.1,63.1,0,0,0,7.8.085,43.5,43.5,0,0,0,11.956-2.041,14.435,14.435,0,0,0,3.965-2.036,5.524,5.524,0,0,1,.063.552c0,2.431,0,4.863,0,7.294a2.532,2.532,0,0,1-.8,1.884,8.823,8.823,0,0,1-3.061,1.821,30.994,30.994,0,0,1-6.881,1.706,57.492,57.492,0,0,1-10.049.567,43.643,43.643,0,0,1-12.886-1.944,20.935,20.935,0,0,1-2.943-1.338,5.046,5.046,0,0,1-1.188-.962,2.042,2.042,0,0,1-.634-1.477c.006-2.564,0-5.129,0-7.693C1255.333,425.788,1255.349,425.7,1255.368,425.5Z" transform="translate(-0.129 -32.883)" fill="#fff"/>
    <path id="Path_57400" data-name="Path 57400" d="M1274.283,395.08a51.863,51.863,0,0,1-12.551-1.425,16.442,16.442,0,0,1-4.243-1.6,7.771,7.771,0,0,1-1.625-1.227,1.955,1.955,0,0,1-.014-2.984,8.193,8.193,0,0,1,1.918-1.4,20.234,20.234,0,0,1,5.653-1.848,55.339,55.339,0,0,1,12.907-1,46.391,46.391,0,0,1,11.733,1.676,13.868,13.868,0,0,1,3.8,1.641,5.856,5.856,0,0,1,1.2,1.034,1.911,1.911,0,0,1-.027,2.771,7.685,7.685,0,0,1-1.791,1.375,19.592,19.592,0,0,1-5.577,1.9A55.293,55.293,0,0,1,1274.283,395.08Z" fill="#fff"/>
    <path id="Path_57401" data-name="Path 57401" d="M1283.413,481.784a20.247,20.247,0,0,0-7.7,10.915c-1.306,0-2.6.052-3.88-.013-1.628-.082-3.257-.212-4.875-.406a29.06,29.06,0,0,1-8.1-1.944,14.394,14.394,0,0,1-2.547-1.476,2.488,2.488,0,0,1-1.047-2.215c.039-2.583.013-5.166.013-7.749v-.7c.433.283.755.509,1.091.71a20.037,20.037,0,0,0,5.784,2.157,40.8,40.8,0,0,0,8.439,1.142c2.864.064,5.731.039,8.594-.026,1.227-.028,2.449-.256,3.674-.39C1282.994,481.772,1283.123,481.784,1283.413,481.784Z" transform="translate(-0.083 -74.249)" fill="#fff"/>
    <path id="Path_57402" data-name="Path 57402" d="M1275.334,538.7a22.051,22.051,0,0,0-.238,5.247,20.162,20.162,0,0,0,1.084,5.066,2.451,2.451,0,0,1-.331.061,53.354,53.354,0,0,1-13.447-1.252,17.791,17.791,0,0,1-4.544-1.6,11.2,11.2,0,0,1-1.845-1.312,2.139,2.139,0,0,1-.715-1.728c.019-2.678.008-5.356.007-8.034v-.555a.945.945,0,0,1,.246.073,18.086,18.086,0,0,0,6.64,2.718,45,45,0,0,0,8.551,1.159c1.365.056,2.732.074,4.1.112C1274.989,538.657,1275.135,538.681,1275.334,538.7Z" transform="translate(-0.106 -118.498)" fill="#fff"/>
  </g>
</svg>
