<svg xmlns="http://www.w3.org/2000/svg" width="25.818" height="25.689" viewBox="0 0 25.818 25.689">
  <g id="Group_54701" data-name="Group 54701" transform="translate(0.149 0.144)">
    <path id="Path_54782" data-name="Path 54782" d="M116.4,227.287c0,2.349-.007,4.7,0,7.048,0,.677.12.746-.728,1.092q-5.764,2.351-11.521,4.718a1.1,1.1,0,0,1-.905.009q-5.789-2.373-11.588-4.721c-.852-.344-.771-.355-.77-1.148q0-7.124,0-14.248c0-.579.063-.668.612-.868,3.843-1.4,7.688-2.787,11.524-4.2a1.623,1.623,0,0,1,1.222,0c3.809,1.4,7.625,2.779,11.439,4.164.067.024.135.048.2.073.411.156.507.291.508.729Q116.405,223.61,116.4,227.287Zm-13.311-11.121c-.143.047-.258.081-.371.122q-5.219,1.891-10.44,3.777c-.233.084-.271.207-.271.426q.009,6.542,0,13.083v.349c.112-.033.18-.048.245-.072q5.306-1.923,10.614-3.84c.23-.083.22-.219.22-.395q0-6.557,0-13.114Zm3.318,14.545v-.419q0-4.32,0-8.64c0-.684.311-.9.958-.662q2.282.84,4.562,1.683c.521.193.6.3.6.852q0,4.228,0,8.456c0,.315-.092.707.06.922s.553.257.849.365c.6.22,1.2.435,1.83.66.007-.124.016-.213.016-.3q0-6.587.006-13.174a.35.35,0,0,0-.279-.391q-5.222-1.883-10.44-3.78c-.111-.04-.225-.072-.365-.116v.251q0,6.618,0,13.236c0,.041-.014.089,0,.121.038.071.078.172.141.2C105.021,230.218,105.693,230.454,106.411,230.71Zm7.853,4.058c-.117-.052-.169-.079-.224-.1q-5.091-1.846-10.184-3.684a.739.739,0,0,0-.462.02q-4.446,1.6-8.886,3.222c-.462.168-.924.338-1.444.528.144.066.224.106.306.139q5,2.038,10,4.08a.764.764,0,0,0,.637,0q3.223-1.333,6.454-2.649Zm-2.884-2.246c.01-.133.02-.213.021-.293q0-4.149.006-8.3a.336.336,0,0,0-.27-.37c-1.113-.4-2.221-.809-3.331-1.214-.08-.029-.164-.046-.247-.068a.555.555,0,0,0-.023.092q0,4.287,0,8.574a.349.349,0,0,0,.186.253c.434.176.878.327,1.319.486Z" transform="translate(-90.894 -214.848)" fill="#636363" stroke="#636363" stroke-width="0.3"/>
    <path id="Path_54783" data-name="Path 54783" d="M160.267,316.833c0,.878,0,1.755,0,2.633a.624.624,0,0,1-.485.718q-2.347.923-4.7,1.841c-.594.232-.936,0-.936-.637q0-2.6,0-5.205c0-.441.092-.579.5-.74q2.341-.939,4.683-1.874c.59-.235.938,0,.939.631C160.269,315.077,160.268,315.955,160.267,316.833Zm-1.12-1.981c-1.283.51-2.506.991-3.722,1.491-.08.033-.141.209-.142.32-.01,1.267-.007,2.533-.005,3.8,0,.085.017.169.029.283,1.247-.5,2.46-.975,3.666-1.471a.387.387,0,0,0,.166-.3c.012-1,.007-2,.007-3Z" transform="translate(-150.271 -307.432)" fill="#636363" stroke="#636363" stroke-width="0.3"/>
  </g>
</svg>
