<svg xmlns="http://www.w3.org/2000/svg" width="29.68" height="25.829" viewBox="0 0 29.68 25.829">
  <g id="villa_icon" data-name="villa icon" transform="translate(0.699 0.234)">
    <path id="Path_54321" data-name="Path 54321" d="M673.386,671.588c0-.615-.017-1.1.006-1.581a8.874,8.874,0,0,1,.16-.965,12.7,12.7,0,0,1,1.292-.13q12.632-.011,25.264,0c1.421,0,1.575.234,1.552,1.635-.014.885-.393,1.213-1.248,1.212q-13.072-.02-26.145-.018A6.187,6.187,0,0,1,673.386,671.588Z" transform="translate(-673.38 -646.864)" fill="#636363" stroke="#fff" stroke-width="1.4"/>
    <path id="Path_54322" data-name="Path 54322" d="M680.892,595.9c.489-.289.709-.449.952-.557,3.266-1.453,6.539-2.891,9.8-4.351a2.278,2.278,0,0,1,1.964-.153c3.694,1.573,7.4,3.114,11.1,4.671a4.22,4.22,0,0,1,.55.39Z" transform="translate(-678.68 -590.673)" fill="#636363" stroke="#fff" stroke-width="0.5"/>
    <path id="Path_54323" data-name="Path 54323" d="M690.583,662.754q-5.428,0-10.855,0a3.564,3.564,0,0,1-1.163-.051c-.292-.106-.684-.45-.69-.7a1.012,1.012,0,0,1,.6-.792,26.279,26.279,0,0,1,3.07-.109c3.611.021,7.222.071,10.833.093,3.273.02,6.547.017,9.82.029.243,0,.553-.044.712.083a1.256,1.256,0,0,1,.47.766.8.8,0,0,1-.483.59,3.964,3.964,0,0,1-1.161.085q-5.574.007-11.149,0Z" transform="translate(-676.551 -640.359)" fill="#636363" stroke="#fff" stroke-width="0.5"/>
    <path id="Path_54324" data-name="Path 54324" d="M705.381,620.971a2.805,2.805,0,0,1,.4-.254c3.011-.457,3.144-.342,3.144,2.7,0,2.244.012,4.488,0,6.732-.011,1.559-.095,1.626-1.689,1.633a2.473,2.473,0,0,1-1.011-.047c-.331-.16-.8-.513-.807-.79C705.362,627.59,705.381,624.235,705.381,620.971Z" transform="translate(-695.953 -611.728)" fill="#636363" stroke="#fff" stroke-width="1.5"/>
    <path id="Path_54325" data-name="Path 54325" d="M690.6,613.441q5.575,0,11.151,0a2.7,2.7,0,0,1,1.016.067,1,1,0,0,1,.561.682.98.98,0,0,1-.527.705,2.558,2.558,0,0,1-1.014.073c-7.447,0-14.895.013-22.342-.018-.618,0-1.7.417-1.628-.82.058-1.033,1.007-.7,1.621-.7,3.72-.024,7.44-.012,11.161-.012Z" transform="translate(-676.512 -606.692)" fill="#636363" stroke="#fff" stroke-width="0.5"/>
    <path id="Path_54326" data-name="Path 54326" d="M748.136,631.722a4.051,4.051,0,0,1-.641.236c-2.806.323-2.894.244-2.894-2.55,0-2.25,0-4.5,0-6.75,0-1.839.008-1.839,1.9-1.823.245,0,.489.012.733.011a.785.785,0,0,1,.9.89C748.135,625.055,748.136,628.374,748.136,631.722Z" transform="translate(-723.624 -611.949)" fill="#636363" stroke="#fff" stroke-width="1.5"/>
    <path id="Path_54327" data-name="Path 54327" d="M728.244,626.512c0,1.37.016,2.741,0,4.111-.019,1.265-.1,1.329-1.321,1.377-2.233.087-2.235.087-2.237-2.081,0-2.5-.008-4.992,0-7.488.007-1.549.047-1.578,1.542-1.595.294,0,.589.019.881,0,.806-.05,1.155.307,1.14,1.123-.027,1.517-.008,3.034-.008,4.552Z" transform="translate(-709.569 -611.95)" fill="#636363" stroke="#fff" stroke-width="1.5"/>
    <path id="Path_54328" data-name="Path 54328" d="M685.485,626.254c0-1.469.019-2.939-.007-4.407-.014-.811.333-1.1,1.138-1.139,2.414-.118,2.434-.127,2.434,2.335,0,2.5.013,4.995-.007,7.492-.01,1.251-.1,1.31-1.346,1.351-2.215.073-2.215.073-2.218-2.107q0-1.763,0-3.526Z" transform="translate(-681.914 -611.834)" fill="#636363" stroke="#fff" stroke-width="1.5"/>
  </g>
</svg>
