<svg xmlns="http://www.w3.org/2000/svg" width="232.505" height="74.542" viewBox="0 0 232.505 74.542">
  <g id="Group_54708" data-name="Group 54708" transform="translate(-8836.172 12236)">
    <g id="Group_52103" data-name="Group 52103" transform="translate(8701.428 -12331.15)">
      <path id="Path_54798" data-name="Path 54798" d="M689.325,248.991,688.3,264.345l9.417,9.315s1.433,1.638,0,2.764-35.827,35.315-35.827,35.315-.717,1.331-2.15,0-13.819-13.819-13.819-13.819l6.653-23.645.307,3.1,14.536,4.374-3.992,14.638,12.693-.307Z" transform="translate(-488.956 -142.638)" fill="#ff8001"/>
      <path id="Path_54799" data-name="Path 54799" d="M636.725,259.715l6.858-24.157-13.819-13.614a1.7,1.7,0,0,0-2.252,0l-35.827,35.827a1.665,1.665,0,0,0,0,1.945c.717,1.024,9.724,9.724,9.724,9.724l-1.25,21.382,13.431-53.114,12.386.1-3.992,14.535,14.74,4.248Z" transform="translate(-456.623 -126.339)" fill="#ff8001"/>
    </g>
    <g id="Group_52937" data-name="Group 52937" transform="translate(22642.766 -12638.456)">
      <path id="Path_54446" data-name="Path 54446" d="M1924.465,368.891q0-.46-.017-1.575t-.017-2.354q0-1.273-.019-2.37t-.017-1.521q0-1.2-.07-2.655t-.248-3.185q.955.107,2.14.212t2.212.106q.991,0,2.212-.089t2.142-.23q-.107,1.239-.178,2.583t-.124,2.672q-.053,1.327-.07,2.548t-.019,2.248q.814.036,1.8.053t2.053.018q.92,0,1.947-.036t2.017-.036q0-1.062-.017-2.318t-.071-2.565q-.054-1.311-.124-2.638t-.177-2.53q.957.107,2.159.212t2.195.106q.991,0,2.212-.089t2.141-.23q-.212,2.23-.3,4.6t-.089,5.522q0,2.371.036,4.335t.089,3.752q.054,1.787.106,3.5t.124,3.627a33.3,33.3,0,0,0-4.637-.317q-1.025,0-2.035.088c-.672.058-1.351.136-2.035.23q.14-1.166.23-2.813t.125-3.326q.034-1.683.053-3.187t.017-2.423q-.955,0-1.947-.036t-1.981-.036q-.921,0-1.947.017t-1.947.054q0,.955.019,2.459t.052,3.185q.036,1.681.107,3.309t.176,2.8q-1.1-.175-2.195-.247t-2.229-.07q-1.345,0-2.335.088c-.661.058-1.3.136-1.911.23l.142-1.769q.07-.778.123-1.964t.07-2.548q.018-1.363.036-2.779T1924.465,368.891Z" transform="translate(-15645.427 72.58)"/>
      <path id="Path_54447" data-name="Path 54447" d="M1966.487,354.936a18.967,18.967,0,0,1,5.7.832,13.452,13.452,0,0,1,4.618,2.459,11.409,11.409,0,0,1,3.079,4.017,12.984,12.984,0,0,1,1.115,5.539,13.729,13.729,0,0,1-1.132,5.786,11.429,11.429,0,0,1-3.1,4.088,12.52,12.52,0,0,1-4.652,2.389,21.148,21.148,0,0,1-5.77.761,17.758,17.758,0,0,1-5.485-.833,13.175,13.175,0,0,1-4.53-2.477,11.576,11.576,0,0,1-3.061-4.07,13.014,13.014,0,0,1-1.115-5.5,13.47,13.47,0,0,1,1.1-5.609,11.5,11.5,0,0,1,3.025-4.07,12.969,12.969,0,0,1,4.547-2.477A18.621,18.621,0,0,1,1966.487,354.936Zm.284,23.075a4.565,4.565,0,0,0,2.194-.5,5,5,0,0,0,1.557-1.293,6.572,6.572,0,0,0,1.027-1.857,13.867,13.867,0,0,0,.6-2.176,18.053,18.053,0,0,0,.284-2.248q.07-1.134.07-2.089a30.057,30.057,0,0,0-.195-3.274,12.009,12.009,0,0,0-.814-3.255,6.336,6.336,0,0,0-1.8-2.5,4.785,4.785,0,0,0-3.167-.991,4.641,4.641,0,0,0-3.026.938,6.353,6.353,0,0,0-1.787,2.354,10.791,10.791,0,0,0-.85,3.1,25.052,25.052,0,0,0-.212,3.132q0,1.1.053,2.317a18.05,18.05,0,0,0,.265,2.407,13.322,13.322,0,0,0,.6,2.248,6.36,6.36,0,0,0,1.079,1.893,4.9,4.9,0,0,0,1.7,1.31A5.624,5.624,0,0,0,1966.771,378.011Z" transform="translate(-15643.104 72.555)"/>
      <path id="Path_54448" data-name="Path 54448" d="M1986.654,375.288a4.879,4.879,0,0,0,1.256,1.257,6,6,0,0,0,1.68.8,6.78,6.78,0,0,0,1.965.281,5.943,5.943,0,0,0,1.275-.14,3.93,3.93,0,0,0,1.15-.444,2.416,2.416,0,0,0,.831-.8,2.108,2.108,0,0,0,.318-1.167,2.239,2.239,0,0,0-.284-1.134,3.275,3.275,0,0,0-.991-.991,12.943,12.943,0,0,0-1.875-1.044q-1.168-.549-2.937-1.292a9.561,9.561,0,0,1-3.858-2.849,7.052,7.052,0,0,1-1.486-4.548,8.464,8.464,0,0,1,.743-3.681,7.31,7.31,0,0,1,2.017-2.583,8.676,8.676,0,0,1,2.991-1.54,12.721,12.721,0,0,1,3.663-.513,17.061,17.061,0,0,1,3.786.425,28.787,28.787,0,0,1,3.681,1.1,17.548,17.548,0,0,0-.9,2.619,15.794,15.794,0,0,0-.478,2.655h-1.415a4.7,4.7,0,0,0-1.469-2.69,4.377,4.377,0,0,0-3.1-1.1,5.808,5.808,0,0,0-1.221.142,4.513,4.513,0,0,0-1.2.442,2.752,2.752,0,0,0-.9.78,1.928,1.928,0,0,0-.354,1.186,1.869,1.869,0,0,0,.354,1.15,3.572,3.572,0,0,0,.955.867,9.147,9.147,0,0,0,1.451.744q.849.352,1.805.777l2.725,1.2a7.014,7.014,0,0,1,3.4,2.761,8.277,8.277,0,0,1,1.026,4.282,9.207,9.207,0,0,1-.744,3.857,7.282,7.282,0,0,1-2.053,2.69,8.2,8.2,0,0,1-3.114,1.54,15.177,15.177,0,0,1-3.893.479q-1.169,0-2.124-.089t-1.858-.23a12.97,12.97,0,0,1-1.822-.425q-.921-.283-1.981-.672.141-.744.265-1.363t.23-1.273c.071-.436.135-.9.195-1.4s.112-1.074.159-1.735h1.451A4.33,4.33,0,0,0,1986.654,375.288Z" transform="translate(-15640.497 72.553)"/>
      <path id="Path_54449" data-name="Path 54449" d="M2009.4,358.911q-1.7,0-3.327.089t-3.256.265a9.333,9.333,0,0,0,.213-2.018,6.338,6.338,0,0,0-.072-.938c-.047-.319-.094-.678-.141-1.079q2.654.248,5.29.284t5.291.035q2.548,0,5.2-.035t5.449-.284c-.048.284-.093.6-.141.956a9.1,9.1,0,0,0-.07,1.2,7.2,7.2,0,0,0,.07,1.026c.048.33.093.614.141.85q-1.627-.179-3.255-.265t-3.327-.089c-.048.777-.077,1.67-.089,2.671s-.017,2.013-.017,3.026v1.911q0,2.053.017,3.857t.036,3.5q.018,1.7.089,3.326t.176,3.362q-1.84-.175-2.884-.247t-1.54-.07a21.074,21.074,0,0,0-2.495.123c-.672.082-1.209.148-1.61.194q.106-.989.177-2.229t.125-2.619q.052-1.38.07-2.8t.017-2.725v-4.671q0-1.345-.035-3.1T2009.4,358.911Z" transform="translate(-15638.911 72.58)"/>
      <path id="Path_54450" data-name="Path 54450" d="M2026.95,360.953q.318-1.311.619-2.407a8.581,8.581,0,0,1,.743-1.894,3.793,3.793,0,0,1,1.08-1.256,2.713,2.713,0,0,1,1.628-.46,2.908,2.908,0,0,1,2.07.779,2.6,2.6,0,0,1,.832,1.981,3.318,3.318,0,0,1-.513,1.735,19.242,19.242,0,0,1-1.752,2.3l-4.849,5.7-1.274-.672Z" transform="translate(-15637.032 72.555)" fill="#ff8001"/>
      <path id="Path_54451" data-name="Path 54451" d="M2043.872,366.927q-.78-.8-1.522-1.61V369q0,.991.053,2.443t.124,3.043q.072,1.593.159,3.185t.159,2.9c-.33-.093-.654-.171-.973-.23a6.471,6.471,0,0,0-1.15-.088,7.61,7.61,0,0,0-1.167.088c-.378.058-.791.136-1.239.23q.142-1.52.266-3.22t.212-3.433q.088-1.733.141-3.432t.054-3.221q0-3.113-.054-6.016t-.23-6.017c.5.094,1,.171,1.5.23a12.9,12.9,0,0,0,1.5.089,10.481,10.481,0,0,0,1.38-.089q.672-.088,1.344-.23.991,1.311,2.142,2.691t2.282,2.654q1.132,1.273,2.159,2.406t1.8,1.981q.744.78,1.362,1.452t1.2,1.327l1.186,1.326q.6.672,1.309,1.416,0-1.592-.052-3.1t-.089-3.1q-.034-1.307-.07-2.459t-.088-2.247q-.054-1.1-.107-2.159t-.123-2.195a11.037,11.037,0,0,0,1.238.248,8.807,8.807,0,0,0,1.168.07,7.742,7.742,0,0,0,1.1-.07,5.744,5.744,0,0,0,1.026-.248q-.072,1.345-.177,2.691t-.177,2.689q-.141,3.646-.212,7.149t-.072,7.149q0,1.415.036,2.83t.106,2.831a10.7,10.7,0,0,0-1.345-.23,13.9,13.9,0,0,0-1.557-.088,9.621,9.621,0,0,0-1.487.105q-.673.107-1.239.212-1.2-1.45-2.282-2.724t-2.123-2.46q-1.044-1.186-2.036-2.318t-2.017-2.3l-1.947-2.23Q2044.649,367.723,2043.872,366.927Z" transform="translate(-15635.974 72.58)" fill="#ff8001"/>
    </g>
  </g>
</svg>
