<svg xmlns="http://www.w3.org/2000/svg" width="74.656" height="74.542" viewBox="0 0 74.656 74.542">
  <g id="Group_52103" data-name="Group 52103" transform="translate(-134.744 -95.15)">
    <path id="Path_54798" data-name="Path 54798" d="M689.325,248.991,688.3,264.345l9.417,9.315s1.433,1.638,0,2.764-35.827,35.315-35.827,35.315-.717,1.331-2.15,0-13.819-13.819-13.819-13.819l6.653-23.645.307,3.1,14.536,4.374-3.992,14.638,12.693-.307Z" transform="translate(-488.956 -142.638)" fill="#ff8001"/>
    <path id="Path_54799" data-name="Path 54799" d="M636.725,259.715l6.858-24.157-13.819-13.614a1.7,1.7,0,0,0-2.252,0l-35.827,35.827a1.665,1.665,0,0,0,0,1.945c.717,1.024,9.724,9.724,9.724,9.724l-1.25,21.382,13.431-53.114,12.386.1-3.992,14.535,14.74,4.248Z" transform="translate(-456.623 -126.339)" fill="#ff8001"/>
  </g>
</svg>
