<svg xmlns="http://www.w3.org/2000/svg" width="239" height="154" viewBox="0 0 239 154">
  <g id="Group_54872" data-name="Group 54872" transform="translate(-69 -174)">
    <g id="Group_52773" data-name="Group 52773" transform="translate(1 76)">
      <g id="Group_52772" data-name="Group 52772" transform="translate(12720.563 -11.898)">
        <path id="Subtraction_13" data-name="Subtraction 13" d="M233.982,154H5.018a119.5,119.5,0,1,1,228.964,0Z" transform="translate(-12652.563 109.898)" fill="#dce1e5" opacity="0.53"/>
        <g id="Group_52771" data-name="Group 52771" transform="translate(-12582.646 205.821)">
          <g id="Icon_ionic-ios-mail" data-name="Icon ionic-ios-mail">
            <path id="Path_55001" data-name="Path 55001" d="M85.692,10.436,64.225,32.3a.386.386,0,0,0,0,.559l15.023,16a2.589,2.589,0,0,1,0,3.671,2.6,2.6,0,0,1-3.671,0L60.614,36.592a.409.409,0,0,0-.579,0L56.384,40.3a16.063,16.063,0,0,1-11.452,4.828,16.386,16.386,0,0,1-11.691-4.968L29.73,36.592a.409.409,0,0,0-.579,0L14.188,52.533a2.6,2.6,0,0,1-3.671,0,2.589,2.589,0,0,1,0-3.671l15.023-16a.425.425,0,0,0,0-.559L4.053,10.436a.393.393,0,0,0-.678.279V54.468a6.4,6.4,0,0,0,6.384,6.384H79.986a6.4,6.4,0,0,0,6.384-6.384V10.716A.4.4,0,0,0,85.692,10.436Z" transform="translate(-3.375 -3.394)" fill="#34709b"/>
            <path id="Path_55002" data-name="Path 55002" d="M43.31,44.405a10.847,10.847,0,0,0,7.8-3.272l31.3-31.862a6.27,6.27,0,0,0-3.95-1.4H8.176a6.229,6.229,0,0,0-3.95,1.4l31.3,31.862A10.848,10.848,0,0,0,43.31,44.405Z" transform="translate(-1.812 -7.875)" fill="#f6f6f6"/>
          </g>
          <g id="Rectangle_17959" data-name="Rectangle 17959" fill="none" stroke="#00406a" stroke-width="2">
            <rect width="83.001" height="57.461" rx="4" stroke="none"/>
            <rect x="1" y="1" width="81.001" height="55.461" rx="3" fill="none"/>
          </g>
        </g>
        <g id="Ellipse_1097" data-name="Ellipse 1097" transform="translate(-12518.563 189.898)" fill="#ff7400" stroke="#edf2f6" stroke-width="3.5">
          <ellipse cx="16" cy="16.5" rx="16" ry="16.5" stroke="none"/>
          <ellipse cx="16" cy="16.5" rx="17.75" ry="18.25" fill="none"/>
        </g>
        <path id="Icon_awesome-wifi" data-name="Icon awesome-wifi" d="M17.112,3.988a11.025,11.025,0,0,0-16.975,0,.591.591,0,0,0-.009.746l.923,1.1a.386.386,0,0,0,.6.012,9.092,9.092,0,0,1,13.941,0,.386.386,0,0,0,.6-.012l.923-1.1a.592.592,0,0,0-.01-.746ZM14.087,7.673a7.256,7.256,0,0,0-10.925,0,.587.587,0,0,0-.015.751l.928,1.1a.387.387,0,0,0,.594.026,5.315,5.315,0,0,1,7.91,0,.387.387,0,0,0,.594-.026l.928-1.1A.587.587,0,0,0,14.087,7.673Z" transform="matrix(0.809, 0.588, -0.588, 0.809, -12486.024, 168.927)" fill="#054d7b" stroke="#dce1e5" stroke-width="0.5" opacity="0.27"/>
      </g>
      <path id="Path_55005" data-name="Path 55005" d="M-12766.626,664.442h42.038" transform="translate(12968 -414)" fill="none" stroke="#00406a" stroke-linecap="round" stroke-width="2"/>
      <path id="Path_55006" data-name="Path 55006" d="M-12766.626,664.442h8.375" transform="translate(13018 -414)" fill="none" stroke="#00406a" stroke-linecap="round" stroke-width="2"/>
    </g>
    <g id="Layer_2" data-name="Layer 2" transform="matrix(0.921, -0.391, 0.391, 0.921, 188.606, 216.821)" opacity="0.34">
      <g id="invisible_box" data-name="invisible box">
        <rect id="Rectangle_17971" data-name="Rectangle 17971" width="8.227" height="8.227" fill="none"/>
      </g>
      <g id="icons_Q2" data-name="icons Q2" transform="translate(0.343 0.514)">
        <path id="Path_55007" data-name="Path 55007" d="M5.771,3,2,5.4V9.856a.343.343,0,0,0,.343.343H9.2a.343.343,0,0,0,.343-.343V5.4ZM8.8,5.742,5.771,7.491,2.737,5.742,5.771,3.806ZM2.686,9.513v-3L5.771,8.279,8.856,6.514v3Z" transform="translate(-2 -3)" fill="#eea66b"/>
      </g>
    </g>
    <g id="Layer_2-2" data-name="Layer 2" transform="matrix(0.921, -0.391, 0.391, 0.921, 128.531, 245.386)">
      <g id="invisible_box-2" data-name="invisible box">
        <rect id="Rectangle_17971-2" data-name="Rectangle 17971" width="9.867" height="9.867" fill="none"/>
      </g>
      <g id="icons_Q2-2" data-name="icons Q2" transform="translate(0.411 0.617)">
        <path id="Path_55007-2" data-name="Path 55007" d="M6.522,3,2,5.878v5.344a.411.411,0,0,0,.411.411h8.222a.411.411,0,0,0,.411-.411V5.878ZM10.16,6.289l-3.638,2.1-3.638-2.1L6.522,3.966ZM2.822,10.811v-3.6l3.7,2.117,3.7-2.117v3.6Z" transform="translate(-2 -3)" fill="#e2cebc"/>
      </g>
    </g>
    <g id="Layer_2-3" data-name="Layer 2" transform="matrix(0.921, -0.391, 0.391, 0.921, 143.84, 208.309)" opacity="0.52">
      <g id="invisible_box-3" data-name="invisible box">
        <rect id="Rectangle_17971-3" data-name="Rectangle 17971" width="12.447" height="12.447" fill="none"/>
      </g>
      <g id="icons_Q2-3" data-name="icons Q2" transform="translate(0.519 0.778)">
        <path id="Path_55007-3" data-name="Path 55007" d="M7.7,3,2,6.63v6.742a.519.519,0,0,0,.519.519H12.891a.519.519,0,0,0,.519-.519V6.63Zm4.59,4.149L7.7,9.794,3.115,7.149,7.7,4.219Zm-9.258,5.7V8.316L7.7,10.987l4.668-2.671v4.538Z" transform="translate(-2 -3)" fill="#f0a05e"/>
      </g>
    </g>
    <path id="Path_53945" data-name="Path 53945" d="M0,0C11.013.034,25.653,6.244,28.591,18.169a13.571,13.571,0,0,1-3.682,13.48c-4.82,4.438-10.112.383-8.81-5.812C18.238,15.661,30.667,8.125,40.114,8.019c5.46-.062,10.582,2.556,12.545,7.906" transform="matrix(-0.485, -0.875, 0.875, -0.485, 164.681, 271.31)" fill="none" stroke="rgba(255,116,0,0.23)" stroke-width="1" stroke-dasharray="2 3"/>
    <g id="Group_52927" data-name="Group 52927" transform="translate(-35.465 -4.802)">
      <path id="Path_54479" data-name="Path 54479" d="M654.324,248.991l-.2,2.972,1.823,1.8s.277.317,0,.535-6.934,6.835-6.934,6.835-.139.258-.416,0-2.674-2.674-2.674-2.674l1.288-4.576.059.6,2.813.847-.773,2.833,2.457-.059Z" transform="translate(-394.711 21.075)" fill="#fff"/>
      <path id="Path_54480" data-name="Path 54480" d="M600.146,228.888l1.327-4.675-2.674-2.635a.328.328,0,0,0-.436,0l-6.934,6.934a.322.322,0,0,0,0,.376c.139.2,1.882,1.882,1.882,1.882l-.242,4.138,2.6-10.28,2.4.02-.773,2.813,2.853.822Z" transform="translate(-344.456 46.409)" fill="#fff"/>
    </g>
  </g>
</svg>
